<svg
   viewBox="0 0 30 29"
   version="1.1"
   xmlns="http://www.w3.org/2000/svg"
   xmlns:svg="http://www.w3.org/2000/svg">
  <path d="M 11.591797,9.0820313 C 9.8296831,8.8001074 8.2148438,10.17656 8.2148438,11.960938 v 4.886718 c 0,2.305222 1.0475923,4.48573 2.8476562,5.925781 l 2.251953,1.802735 c 1.175898,0.940718 2.855352,0.940718 4.03125,0 l 2.251953,-1.802735 c 1.800118,-1.440051 2.847657,-3.620561 2.847656,-5.925781 v -4.886718 c 10e-7,-1.784386 -1.614916,-3.1608375 -3.376953,-2.8789067 -2.47707,0.3963273 -4.999596,0.3963263 -7.476562,0 z m -0.158203,0.9882817 c 2.581628,0.413072 5.211244,0.413071 7.792968,0 1.173161,-0.1877093 2.218751,0.702613 2.21875,1.890625 v 4.886718 c 10e-7,2.002176 -0.909177,3.895738 -2.472656,5.146485 l -2.251953,1.800781 c -0.8151,0.65208 -1.96615,0.65208 -2.78125,0 L 11.6875,21.994141 C 10.124067,20.743394 9.2148437,18.849831 9.2148438,16.847656 v -4.886718 c 0,-1.188021 1.0454662,-2.0783412 2.2187502,-1.890625 z"/>
  <path d="m 16.332031,2.3222656 c -0.872103,-0.045903 -1.747175,0.00156 -2.609375,0.140625 l -0.630859,0.1015625 c -0.754393,0.121687 -1.487304,0.352057 -2.175781,0.6835938 L 10.480469,3.4570313 C 9.6520566,3.8558891 8.9277657,4.4450698 8.3671875,5.1738281 7.5755495,6.2029411 7.1464844,7.4633463 7.1464844,8.7617188 v 0.3730468 c 0,0.4597175 0.044607,0.9183884 0.1347656,1.3691404 l 0.4433594,2.216797 a 0.5,0.5 0 0 0 0.5898437,0.392578 0.5,0.5 0 0 0 0.390625,-0.589843 L 8.2617188,10.306641 C 8.1844779,9.9204733 8.1464844,9.5286272 8.1464844,9.1347656 V 8.7617188 c 0,-1.0779852 0.3564113,-2.1240905 1.0136719,-2.9785157 C 9.625537,5.1782027 10.226336,4.6904965 10.914063,4.359375 L 11.349609,4.1484375 C 11.95113,3.8587749 12.590795,3.6590672 13.25,3.5527344 l 0.630859,-0.1035156 c 0.792199,-0.1277746 1.597142,-0.1691296 2.398438,-0.1269532 l 0.638672,0.033203 c 1.079616,0.056821 2.144227,0.2686317 3.164062,0.6269531 l 0.982422,0.4921875 c 0.01804,0.00902 0.02734,0.02477 0.02734,0.044922 0,0.019162 -0.0087,0.033671 -0.02539,0.042969 L 20.875,4.6699219 c -0.392295,0.2179471 -0.636719,0.6332973 -0.636719,1.0820312 0,0.3467386 0.146705,0.6777594 0.402344,0.9121094 l 0.890625,0.8164062 0.550781,0.5527344 c 0.266666,0.2666488 0.470863,0.5882779 0.597656,0.9433594 0.134069,0.375332 0.178317,0.7762938 0.128907,1.1718755 l -0.03516,0.289062 c -0.03734,0.299 -0.111498,0.593497 -0.21875,0.875 l -0.576171,1.511719 a 0.5,0.5 0 0 0 0.289062,0.644531 0.5,0.5 0 0 0 0.646484,-0.289062 l 0.576172,-1.511719 C 23.625982,11.311673 23.718367,10.9409 23.765625,10.5625 l 0.03516,-0.289062 c 0.06879,-0.5507384 0.007,-1.1100459 -0.179687,-1.632813 C 23.444488,8.1460474 23.160396,7.6974825 22.789062,7.3261719 L 22.222656,6.7578125 21.316406,5.9277344 c -0.04936,-0.04525 -0.07813,-0.1087402 -0.07813,-0.1757813 0,-0.087345 0.04674,-0.1665918 0.123047,-0.2089844 L 21.552734,5.4375 c 0.332668,-0.1848617 0.539063,-0.5373111 0.539063,-0.9179688 0,-0.3968279 -0.225116,-0.7619912 -0.580078,-0.9394531 l -1.050782,-0.5273437 -0.03125,-0.00977 C 19.314948,2.6495167 18.1513,2.4176043 16.970703,2.3554688 Z"/>
  <path d="m 11.037109,23.056641 v 3.226562 h 1 v -3.226562 z"/>
  <path d="m 18.53125,23.056641 v 3.226562 h 1 v -3.226562 z"/>
  <path d="M 3.6425781,0.65429687 C 2.0456,0.65429688 0.74023437,1.9596705 0.74023437,3.5566406 V 7.828125 a 0.5,0.5 0 0 0 0.50000003,0.5 0.5,0.5 0 0 0 0.5,-0.5 V 3.5566406 c 0,-1.0565272 0.8458045,-1.9023437 1.9023437,-1.9023437 h 4.2714844 a 0.5,0.5 0 0 0 0.5,-0.5 0.5,0.5 0 0 0 -0.5,-0.50000003 z"/>
  <path d="m 1.2402344,20.671875 a 0.5,0.5 0 0 0 -0.50000003,0.5 v 4.271484 c 0,1.59701 1.30537823,2.902344 2.90234373,2.902344 h 4.2714844 a 0.5,0.5 0 0 0 0.5,-0.5 0.5,0.5 0 0 0 -0.5,-0.5 H 3.6425781 c -1.0565518,0 -1.9023437,-0.845756 -1.9023437,-1.902344 v -4.271484 a 0.5,0.5 0 0 0 -0.5,-0.5 z"/>
  <path d="m 22.326172,0.65429687 a 0.5,0.5 0 0 0 -0.5,0.50000003 0.5,0.5 0 0 0 0.5,0.5 h 4.271484 c 1.056588,0 1.902344,0.8458039 1.902344,1.9023437 V 7.828125 a 0.5,0.5 0 0 0 0.5,0.5 0.5,0.5 0 0 0 0.5,-0.5 V 3.5566406 c 0,-1.5969575 -1.305334,-2.90234372 -2.902344,-2.90234373 z"/>
  <path d="m 29,20.671875 a 0.5,0.5 0 0 0 -0.5,0.5 v 4.271484 c 0,1.0566 -0.845744,1.902344 -1.902344,1.902344 h -4.271484 a 0.5,0.5 0 0 0 -0.5,0.5 0.5,0.5 0 0 0 0.5,0.5 h 4.271484 c 1.596998,0 2.902344,-1.305346 2.902344,-2.902344 v -4.271484 a 0.5,0.5 0 0 0 -0.5,-0.5 z"/>
</svg>
