<svg viewBox="0 0 34 32" xmlns="http://www.w3.org/2000/svg">
<path d="M10.045 31.881c-3.176 0-5.633-0.809-7.371-2.427-1.738-1.648-2.607-3.895-2.607-6.741 0-2.247 0.884-4.314 2.652-6.202 1.798-1.918 4-3.386 6.606-4.404-0.21-1.198-0.315-2.277-0.315-3.236 0-2.517 0.719-4.614 2.157-6.292 1.468-1.708 3.356-2.562 5.663-2.562 1.618 0 2.936 0.494 3.955 1.483 1.049 0.989 1.573 2.262 1.573 3.82s-0.584 2.966-1.753 4.225c-1.169 1.228-3.071 1.888-5.708 1.977 2.277 1.198 4.929 1.798 7.955 1.798 1.858 0 3.745-0.689 5.663-2.067 0.869-0.629 1.558-0.944 2.067-0.944 0.689 0 1.034 0.374 1.034 1.124 0 0.479-0.3 0.929-0.899 1.348-0.569 0.389-1.303 0.704-2.202 0.944-1.738 0.419-3.266 0.659-4.584 0.719-0.090 4.284-0.899 7.865-2.427 10.741 1.708 1.408 3.685 2.711 5.932 3.91 2.277 1.169 4.3 1.768 6.067 1.798l0.090 0.539h-6.786c-1.918-0.419-4.225-1.693-6.921-3.82-2.427 2.846-5.708 4.27-9.842 4.27zM10.72 30.532c3.655 0 6.337-1.273 8.045-3.82-2.217-1.858-4.165-3.985-5.843-6.382s-2.831-4.914-3.461-7.55c-3.865 2.187-5.798 5.513-5.798 9.977 0 2.457 0.674 4.374 2.022 5.753 1.378 1.348 3.056 2.022 5.034 2.022zM16.562 0.825c-1.228 0-2.262 0.734-3.101 2.202-0.809 1.438-1.213 3.281-1.213 5.528s0.644 4.764 1.932 7.55c1.288 2.786 3.281 5.423 5.977 7.91 1.139-2.756 1.738-5.962 1.798-9.618-2.966-0.27-5.513-1.228-7.64-2.876v-0.404c1.468 0 2.697-0.539 3.685-1.618 1.019-1.109 1.528-2.382 1.528-3.82s-0.27-2.607-0.809-3.506c-0.509-0.899-1.228-1.348-2.157-1.348z"></path>
</svg>
