<svg viewBox="0 0 26 26" xmlns="http://www.w3.org/2000/svg">
<path d="M23.6031 2.04991C22.9198 1.3666 22.1534 0.858749 21.3039 0.526329C20.4544 0.175441 19.5864 0 18.7 0C17.8135 0 16.9456 0.175441 16.096 0.526329C15.2465 0.858749 14.4801 1.3666 13.7968 2.04991L11.6638 4.04442C11.4422 4.2845 11.3314 4.56151 11.3314 4.87547C11.3314 5.18942 11.4422 5.46643 11.6638 5.70651C11.9039 5.94659 12.1809 6.06663 12.4948 6.06663C12.8088 6.06663 13.0858 5.94659 13.3259 5.70651L15.3481 3.712C16.29 2.82555 17.3888 2.38233 18.6446 2.38233C19.9004 2.38233 21.0084 2.82555 21.9688 3.712C22.9106 4.59845 23.3862 5.69727 23.3954 7.00848C23.4046 8.31969 22.966 9.41851 22.0796 10.305L18.5338 13.8508C18.4784 13.9246 18.3999 14.0077 18.2983 14.1001C18.1967 14.1924 18.1182 14.2755 18.0628 14.3494C16.9917 15.1066 15.8098 15.402 14.517 15.2358C13.2243 15.0696 12.1994 14.451 11.4422 13.3798C11.2575 13.1582 10.9943 13.0197 10.6527 12.9643C10.311 12.9089 10.0202 12.9735 9.78009 13.1582C9.54001 13.3244 9.39689 13.583 9.35072 13.9339C9.30455 14.2847 9.3738 14.5802 9.55848 14.8203C10.2603 15.7622 11.1144 16.4685 12.1209 16.9395C13.1274 17.4104 14.1569 17.6459 15.2096 17.6459C15.9298 17.6459 16.6593 17.5258 17.398 17.2857C18.1367 17.0457 18.8292 16.6948 19.4756 16.2331C19.5864 16.1038 19.7065 15.9838 19.8357 15.873C19.965 15.7622 20.122 15.6421 20.3067 15.5128L23.8525 11.9671C24.5358 11.2837 25.0344 10.5081 25.3483 9.64013C25.6808 8.77214 25.8377 7.88108 25.8193 6.96693C25.8008 6.05278 25.6069 5.17095 25.2375 4.32144C24.8682 3.45345 24.3234 2.69628 23.6031 2.04991ZM12.2732 20.139L10.251 22.1335C9.30916 23.02 8.20573 23.4632 6.94069 23.4632C5.67564 23.4632 4.57221 23.02 3.63036 22.1335C2.6885 21.2471 2.21296 20.1436 2.20373 18.8232C2.19449 17.5027 2.6331 16.3993 3.51955 15.5128L7.06534 11.9671C7.12075 11.9116 7.19923 11.8332 7.30081 11.7316C7.40238 11.63 7.48087 11.5515 7.53627 11.4961C8.07183 11.1452 8.63509 10.8867 9.22606 10.7205C9.81703 10.5543 10.4357 10.4989 11.0821 10.5543C11.7284 10.6651 12.3148 10.8728 12.8411 11.1776C13.3674 11.4823 13.806 11.9024 14.1569 12.438C14.3416 12.6781 14.6048 12.8212 14.9464 12.8674C15.2881 12.9135 15.5789 12.8535 15.819 12.6873C16.0406 12.5026 16.1791 12.2395 16.2345 11.8978C16.2899 11.5561 16.2253 11.2653 16.0406 11.0252C15.4497 10.2496 14.7571 9.63089 13.963 9.1692C13.1689 8.70751 12.3286 8.42126 11.4422 8.31045C10.5557 8.12578 9.66006 8.14886 8.75514 8.37971C7.85021 8.61055 7.00994 9.02146 6.2343 9.61242C6.12349 9.72323 6.00807 9.83865 5.88803 9.95869C5.76799 10.0787 5.64333 10.1942 5.51406 10.305L1.96827 13.8508C1.30343 14.571 0.804804 15.3743 0.472384 16.2608C0.139964 17.1288 -0.0170099 18.0198 0.00145802 18.934C0.0199259 19.8481 0.204601 20.73 0.555488 21.5795C0.906376 22.4475 1.42347 23.2231 2.10677 23.9064C2.80855 24.5528 3.5888 25.0514 4.44755 25.4023C5.3063 25.7532 6.17889 25.9286 7.06534 25.9286C7.9518 25.9286 8.82438 25.7532 9.68314 25.4023C10.5419 25.0514 11.3221 24.5528 12.0239 23.9064L14.0461 21.9119C14.2677 21.6718 14.3785 21.3948 14.3785 21.0808C14.3785 20.7669 14.2677 20.4899 14.0461 20.2498C13.806 20.0097 13.5059 19.8712 13.1458 19.8343C12.7857 19.7973 12.4948 19.8989 12.2732 20.139Z" />
</svg>
