<?xml version="1.0" encoding="UTF-8" standalone="no"?>
<svg viewBox="0 0 72 61" version="1.1" xmlns="http://www.w3.org/2000/svg" xmlns:svg="http://www.w3.org/2000/svg">
  <path d="M 21.308594,0.5 V 0.99804688 L 21.066406,0.5625 1.2695312,11.613281 C 0.79546464,11.8778 0.5,12.379026 0.5,12.921875 v 46.386719 c 0,1.112714 1.2313821,1.848149 2.2109375,1.320312 l 4.1933594,-2.259765 9.2363281,-4.97461 5.296875,-2.853515 h 49.015625 c 0.822452,0 1.5,-0.677437 1.5,-1.5 V 2 c 0,-0.8225527 -0.677536,-1.5 -1.5,-1.5 z m 0.5,1 h 48.644531 c 0.281935,0 0.5,0.2179938 0.5,0.5 v 47.041016 c 0,0.282036 -0.218053,0.5 -0.5,0.5 H 21.808594 Z m -1,0.3535156 V 49.744141 l -4.425782,2.382812 -0.515624,-21.660156 c -0.02675,-1.117777 -1.287406,-1.822088 -2.253907,-1.259766 l -6.6992185,3.896485 c -0.4609303,0.268228 -0.7460938,0.76355 -0.7460938,1.296875 V 57.630859 L 2.2363281,59.748047 C 1.8834249,59.93821 1.5,59.709478 1.5,59.308594 V 12.921875 c 0,-0.18215 0.096927,-0.346866 0.2558594,-0.435547 z m 14.724609,2.6601563 c -0.822457,0 -1.5,0.6774422 -1.5,1.5 V 26.212891 c 0,0.822563 0.677549,1.5 1.5,1.5 h 10.296875 10.296875 c 0.822503,0 1.5,-0.677498 1.5,-1.5 V 6.0136719 c 0,-0.8224975 -0.677491,-1.5 -1.5,-1.5 H 45.830078 Z m 0,1 h 9.796875 V 26.712891 h -9.796875 c -0.281947,0 -0.5,-0.217964 -0.5,-0.5 V 6.0136719 c 0,-0.2820211 0.218059,-0.5 0.5,-0.5 z m 10.796875,0 h 9.796875 c 0.28209,0 0.5,0.2179185 0.5,0.5 V 26.212891 c 0,0.282096 -0.217904,0.5 -0.5,0.5 H 46.330078 Z M 14.619141,30.052734 c 0.143056,0.08003 0.243222,0.235889 0.248047,0.4375 l 0.529296,22.167969 -8.2285153,4.433594 V 34.400391 c 0,-0.178875 0.093438,-0.34167 0.2480469,-0.431641 l 6.6992184,-3.898438 c 0.174349,-0.101438 0.360851,-0.09761 0.503907,-0.01758 z"/>
  <path d="M57.5601 34.9119L60.525 27.6232C60.6782 27.2464 61.0445 27 61.4513 27H63.7623C64.151 27 64.5045 27.2252 64.6687 27.5775L68.066 34.8663C68.375 35.5292 67.891 36.2887 67.1596 36.2887H65.9185H63.9272V57.4085C63.9272 57.9608 63.4795 58.4085 62.9272 58.4085H62.1721C61.6198 58.4085 61.1721 57.9608 61.1721 57.4085V36.2887H58.4863C57.7764 36.2887 57.2925 35.5696 57.5601 34.9119Z" fill="#D9D9D9"/>
  <path d="m 61.451172,26.5 c -0.608701,0 -1.159382,0.371601 -1.388672,0.935547 l -2.964844,7.287109 c -0.394846,0.970443 0.34112,2.066407 1.388672,2.066406 h 2.185547 v 20.619141 c 0,0.822503 0.677497,1.5 1.5,1.5 h 0.755859 c 0.822503,0 1.5,-0.677497 1.5,-1.5 V 36.789062 h 0.990235 v 4.38086 a 0.5,0.5 0 0 0 0.5,0.5 0.5,0.5 0 0 0 0.5,-0.5 v -4.38086 h 0.742187 c 1.077539,0 1.814631,-1.158102 1.359375,-2.134765 l -3.398437,-7.28711 C 64.875281,26.839782 64.343541,26.5 63.761719,26.5 Z m 0,1 h 2.310547 c 0.195577,0 0.370538,0.111869 0.453125,0.289062 l 3.398437,7.289063 c 0.162744,0.349135 -0.06786,0.710937 -0.453125,0.710937 h -1.242187 -1.990235 -2.755859 -2.685547 c -0.372246,0 -0.603244,-0.344497 -0.462891,-0.689453 L 60.988281,27.8125 v -0.002 C 61.065391,27.620893 61.246273,27.5 61.451172,27.5 Z m 0.220703,9.289062 h 1.755859 v 20.619141 c 0,0.282096 -0.217903,0.5 -0.5,0.5 h -0.755859 c -0.282096,0 -0.5,-0.217904 -0.5,-0.5 z"/>
  <path style="fill:#d9d9d9;" d="m 28.63059,43.850601 h 19.207219 c 0.420758,0 0.759491,0.338733 0.759491,0.759491 V 54.84341 c 0,0.420758 -0.338733,0.759491 -0.759491,0.759491 H 28.63059 c -0.420758,0 -0.759491,-0.338733 -0.759491,-0.759491 V 44.610092 c 0,-0.420758 0.338733,-0.759491 0.759491,-0.759491 z"/>
  <path d="m 28.630859,43.351562 c -0.689108,10e-7 -1.259765,0.568704 -1.259765,1.257813 V 54.84375 c 0,0.689109 0.570657,1.259766 1.259765,1.259766 h 19.207032 c 0.689108,0 1.259765,-0.570657 1.259765,-1.259766 V 44.609375 c 0,-0.689109 -0.570657,-1.257813 -1.259765,-1.257813 z m 0,1 h 19.207032 c 0.152406,0 0.259765,0.105407 0.259765,0.257813 V 54.84375 c 0,0.152406 -0.107359,0.259766 -0.259765,0.259766 H 28.630859 c -0.152406,0 -0.259765,-0.10736 -0.259765,-0.259766 V 44.609375 c 0,-0.152406 0.107359,-0.257813 0.259765,-0.257813 z"/>
  <path d="m 28.5,52.5 h 8 c 0.5523,0 1,0.4477 1,1 0,0.5523 -0.4477,1 -1,1 h -8 z"/>
  <path d="m 28,52 v 0.5 2.5 h 8.5 C 37.322503,55 38,54.322503 38,53.5 38,52.677497 37.322503,52 36.5,52 Z m 1,1 h 7.5 c 0.282096,0 0.5,0.217904 0.5,0.5 0,0.282096 -0.217904,0.5 -0.5,0.5 H 29 Z"/>
  <path d="m 47.5,52.5 h -8 c -0.5523,0 -1,0.4477 -1,1 0,0.5523 0.4477,1 1,1 h 8 z"/>
  <path d="m 39.5,52 c -0.822503,0 -1.5,0.677497 -1.5,1.5 0,0.822503 0.677497,1.5 1.5,1.5 H 48 v -3 h -0.5 z m 0,1 H 47 v 1 H 39.5 C 39.217904,54 39,53.782096 39,53.5 39,53.217904 39.217904,53 39.5,53 Z"/>
  <mask
     id="path-7-inside-1_1965_17744"
     fill="white">
    <path
       fill-rule="evenodd"
       clip-rule="evenodd"
       d="M25.4824 49.8055C25.4824 48.6751 26.3987 47.7588 27.5291 47.7588C28.6594 47.7588 29.5758 48.6751 29.5758 49.8055V53.8988L46.8926 53.8988V49.8055C46.8926 48.6751 47.8089 47.7588 48.9393 47.7588C50.0696 47.7588 50.9859 48.6751 50.9859 49.8055V55.9455C50.9859 57.0758 50.0696 57.9921 48.9393 57.9921C48.8047 57.9921 48.6732 57.9792 48.5459 57.9544C48.4186 57.9792 48.287 57.9922 48.1524 57.9922L28.158 57.9922C28.051 57.9922 27.946 57.984 27.8434 57.9682C27.741 57.984 27.636 57.9921 27.5291 57.9921C26.3987 57.9921 25.4824 57.0758 25.4824 55.9455V49.8055Z"
       />
  </mask>
  <path fill-rule="evenodd" clip-rule="evenodd" d="M25.4824 49.8055C25.4824 48.6751 26.3987 47.7588 27.5291 47.7588C28.6594 47.7588 29.5758 48.6751 29.5758 49.8055V53.8988L46.8926 53.8988V49.8055C46.8926 48.6751 47.8089 47.7588 48.9393 47.7588C50.0696 47.7588 50.9859 48.6751 50.9859 49.8055V55.9455C50.9859 57.0758 50.0696 57.9921 48.9393 57.9921C48.8047 57.9921 48.6732 57.9792 48.5459 57.9544C48.4186 57.9792 48.287 57.9922 48.1524 57.9922L28.158 57.9922C28.051 57.9922 27.946 57.984 27.8434 57.9682C27.741 57.984 27.636 57.9921 27.5291 57.9921C26.3987 57.9921 25.4824 57.0758 25.4824 55.9455V49.8055Z" fill="#D9D9D9"/>
  <path d="M29.5758 53.8988H28.5758V54.8988H29.5758V53.8988ZM46.8926 53.8988V54.8988H47.8926V53.8988H46.8926ZM48.5459 57.9544L48.737 56.9728L48.5459 56.9356L48.3548 56.9728L48.5459 57.9544ZM48.1524 57.9922V56.9922V57.9922ZM28.158 57.9922V58.9922V57.9922ZM27.8434 57.9682L27.9959 56.9799L27.8435 56.9563L27.6911 56.9798L27.8434 57.9682ZM27.5291 46.7588C25.8465 46.7588 24.4824 48.1228 24.4824 49.8055H26.4824C26.4824 49.2274 26.951 48.7588 27.5291 48.7588V46.7588ZM30.5758 49.8055C30.5758 48.1228 29.2117 46.7588 27.5291 46.7588V48.7588C28.1072 48.7588 28.5758 49.2274 28.5758 49.8055H30.5758ZM30.5758 53.8988V49.8055H28.5758V53.8988H30.5758ZM29.5758 54.8988L46.8926 54.8988V52.8988L29.5758 52.8988V54.8988ZM45.8926 49.8055V53.8988H47.8926V49.8055H45.8926ZM48.9393 46.7588C47.2566 46.7588 45.8926 48.1228 45.8926 49.8055H47.8926C47.8926 49.2274 48.3612 48.7588 48.9393 48.7588V46.7588ZM51.9859 49.8055C51.9859 48.1228 50.6219 46.7588 48.9393 46.7588V48.7588C49.5173 48.7588 49.9859 49.2274 49.9859 49.8055H51.9859ZM51.9859 55.9455V49.8055H49.9859V55.9455H51.9859ZM48.9393 58.9921C50.6219 58.9921 51.9859 57.6281 51.9859 55.9455H49.9859C49.9859 56.5235 49.5173 56.9921 48.9393 56.9921V58.9921ZM48.3549 58.936C48.5448 58.9729 48.7402 58.9921 48.9393 58.9921V56.9921C48.8692 56.9921 48.8017 56.9854 48.737 56.9728L48.3549 58.936ZM48.3548 56.9728C48.2901 56.9854 48.2225 56.9922 48.1524 56.9922V58.9922C48.3515 58.9922 48.5471 58.973 48.7371 58.9359L48.3548 56.9728ZM48.1524 56.9922L28.158 56.9922V58.9922L48.1524 58.9922V56.9922ZM28.158 56.9922C28.1022 56.9922 28.0482 56.9879 27.9959 56.9799L27.691 58.9565C27.8438 58.98 27.9998 58.9922 28.158 58.9922V56.9922ZM27.5291 58.9921C27.6872 58.9921 27.8431 58.98 27.9958 58.9565L27.6911 56.9798C27.6388 56.9879 27.5848 56.9921 27.5291 56.9921V58.9921ZM24.4824 55.9455C24.4824 57.6281 25.8465 58.9921 27.5291 58.9921V56.9921C26.951 56.9921 26.4824 56.5235 26.4824 55.9455H24.4824ZM24.4824 49.8055V55.9455H26.4824V49.8055H24.4824Z" mask="url(#path-7-inside-1_1965_17744)"/>
  <path d="m 38.734375,43.349609 a 0.5,0.5 0 0 0 -0.5,0.5 v 1.519532 a 0.5,0.5 0 0 0 0.5,0.5 0.5,0.5 0 0 0 0.5,-0.5 v -1.519532 a 0.5,0.5 0 0 0 -0.5,-0.5 z"/>
  <path d="m 9.6582031,42.5625 c -0.55925,0 -1.0234375,0.464188 -1.0234375,1.023437 0,0.55925 0.4641875,1.023438 1.0234375,1.023438 0.5592499,0 1.0234379,-0.464188 1.0234379,-1.023438 0,-0.559249 -0.464188,-1.023437 -1.0234379,-1.023437 z m 0,1 c 0.01881,0 0.023437,0.0046 0.023437,0.02344 0,0.01881 -0.00463,0.02344 -0.023437,0.02344 -0.01881,0 -0.023437,-0.0046 -0.023437,-0.02344 0,-0.01881 0.00463,-0.02344 0.023437,-0.02344 z"/>
</svg>
