<svg version="1.1" xmlns="http://www.w3.org/2000/svg" viewBox="0 0 1024 1024">
<path fill="#00d2ff" d="M296.81 994.26c0-16.379-13.244-29.674-29.621-29.741l-156.923-0.613c-27.665-0.11-50.064-22.509-50.172-50.172l-0.616-156.923c-0.065-16.379-13.36-29.624-29.739-29.624-16.425 0-29.739 13.317-29.739 29.741v216.701c0 27.82 22.552 50.371 50.371 50.371h216.704c16.425 0 29.737-13.314 29.737-29.737z"></path>
<path fill="#00d2ff" d="M994.258 296.812c-16.377 0-29.674-13.244-29.737-29.624l-0.617-156.922c-0.107-27.665-22.506-50.064-50.172-50.172l-156.921-0.615c-16.379-0.065-29.624-13.36-29.624-29.739 0-16.425 13.314-29.74 29.741-29.74h216.701c27.817 0 50.371 22.552 50.371 50.371v216.701c0 16.425-13.314 29.741-29.741 29.741z"></path>
<path fill="none" stroke-linejoin="miter" stroke-linecap="round" stroke-miterlimit="4" stroke-width="24.381" stroke="#00d2ff" d="M259.708 771.71l489.738-489.738"></path>
</svg>