<svg version="1.1" xmlns="http://www.w3.org/2000/svg" viewBox="0 0 1024 1024">
<path fill="none" stroke="#D9D9D9" stroke-linejoin="miter" stroke-linecap="butt" stroke-miterlimit="4" stroke-width="90.328" d="M948.445 496.805c0 249.434-202.206 451.64-451.64 451.64s-451.64-202.206-451.64-451.64c0-249.434 202.206-451.64 451.64-451.64s451.64 202.206 451.64 451.64z"></path>
<path fill="#D9D9D9" d="M677.861 390.697c-18.284-16.967-46.86-15.9-63.827 2.384l-153.607 165.528c-16.967 18.284-15.9 46.86 2.384 63.827s46.86 15.9 63.827-2.384l153.607-165.528c16.967-18.284 15.9-46.86-2.384-63.827z"></path>
<path fill="#D9D9D9" d="M524.248 556.245l-132.422-122.886c-18.284-16.967-46.86-15.9-63.827 2.384s-15.9 46.86 2.384 63.827l132.422 122.886c18.284 16.967 46.86 15.9 63.827-2.384s15.9-46.86-2.384-63.827z"></path>
</svg>
