<svg viewBox="0 0 39 19" xmlns="http://www.w3.org/2000/svg"
   >
  <path
     d="m 22.460937,0.6328125 c -2.15454,0 -4.288711,0.4235035 -6.279296,1.2480469 C 14.19108,2.7053924 12.380972,3.9139608 10.857422,5.4375 9.3338718,6.9610391 8.1253166,8.7711307 7.3007812,10.761719 6.4762378,12.752304 6.0527344,14.884431 6.0527344,17.039062 a 1.36727,1.36727 0 0 0 1.3671875,1.369141 1.36727,1.36727 0 0 0 1.3671875,-1.369141 c 0,-1.795564 0.3539005,-3.571658 1.0410156,-5.230468 0.687123,-1.658849 1.695197,-3.1678622 2.964844,-4.4375003 1.269647,-1.269638 2.776711,-2.2757651 4.435547,-2.9628906 1.65881,-0.6871151 3.436966,-1.0410156 5.232421,-1.0410156 1.795565,0 3.571659,0.3539005 5.230469,1.0410156 1.658836,0.6871255 3.167853,1.6932526 4.4375,2.9628906 1.269636,1.2696266 2.275684,2.7786113 2.962891,4.4375003 0.686636,1.658456 1.041015,3.435521 1.041015,5.230468 A 1.36727,1.36727 0 0 0 37.5,18.408203 1.36727,1.36727 0 0 0 38.867187,17.039062 c 0,-2.154622 -0.423556,-4.286698 -1.248046,-6.277343 C 36.794549,8.7711908 35.586062,6.9610507 34.0625,5.4375 32.53895,3.9139608 30.728842,2.7053924 28.738281,1.8808594 26.747696,1.056316 24.615569,0.6328125 22.460937,0.6328125 Z"
     />
  <path
     d="m 13.085938,11.310547 -6.5000005,5 a 1.5,1.5 0 0 0 -0.2753906,2.103515 1.5,1.5 0 0 0 2.1035156,0.275391 l 6.5000005,-5 a 1.5,1.5 0 0 0 0.27539,-2.103515 1.5,1.5 0 0 0 -2.103515,-0.275391 z"
     />
  <path
     
     d="m 2,10.5 a 1.5,1.5 0 0 0 -1.06054687,0.439453 1.5,1.5 0 0 0 0,2.121094 l 5.49999997,5.5 a 1.5,1.5 0 0 0 2.1210938,0 1.5,1.5 0 0 0 0,-2.121094 l -5.5,-5.5 A 1.5,1.5 0 0 0 2,10.5 Z"
     />
</svg>
