<?xml version="1.0" encoding="UTF-8" standalone="no"?>
<svg
   viewBox="0 0 8 26"
   version="1.1"
   xmlns="http://www.w3.org/2000/svg"
   xmlns:svg="http://www.w3.org/2000/svg">
  <path
     d="M0.364989 4.56926C0.566008 4.77028 0.891727 4.77092 1.09353 4.57069L3.02698 2.65235C3.36784 2.31415 3.91766 2.31415 4.25851 2.65235L6.19196 4.57069C6.39377 4.77092 6.71949 4.77028 6.92051 4.56926C7.12209 4.36768 7.12209 4.04086 6.92051 3.83928L4.26094 1.17972C3.91952 0.838299 3.36597 0.838299 3.02455 1.17972L0.364989 3.83928C0.163411 4.04086 0.163411 4.36768 0.364989 4.56926Z"
     />
  <path
     d="M0.364989 21.6888C0.566008 21.4878 0.891727 21.4871 1.09353 21.6874L3.02698 23.6057C3.36784 23.9439 3.91766 23.9439 4.25851 23.6057L6.19196 21.6874C6.39377 21.4871 6.71949 21.4878 6.92051 21.6888C7.12209 21.8904 7.12209 22.2172 6.92051 22.4188L4.26094 25.0783C3.91952 25.4198 3.36597 25.4198 3.02455 25.0783L0.364989 22.4188C0.163411 22.2172 0.163411 21.8904 0.364989 21.6888Z"
     />
  <path
     
     d="M 3.5507813,6.5722656 A 0.273206,0.273206 0 0 0 3.2792969,6.8457031 V 18.867187 a 0.273206,0.273206 0 0 0 0.2714844,0.271485 0.273206,0.273206 0 0 0 0.2734375,-0.271485 V 6.8457031 A 0.273206,0.273206 0 0 0 3.5507813,6.5722656 Z"
      />
</svg>
