<svg version="1.1" xmlns="http://www.w3.org/2000/svg" viewBox="0 0 3365 1024">
<path fill="#00d2ff" d="M502.54 963.84c27.711-27.711 27.799-72.611 0.197-100.428l-264.442-266.529c-46.62-46.987-46.62-122.779-0.001-169.766l264.443-266.526c27.602-27.819 27.514-72.72-0.197-100.43-27.787-27.787-72.84-27.787-100.627 0l-366.621 366.621c-47.065 47.065-47.064 123.372 0 170.436l366.621 366.622c27.787 27.786 72.84 27.786 100.627 0z"></path>
<path fill="#00d2ff" d="M2862.461 963.84c-27.711-27.711-27.802-72.611-0.203-100.428l264.443-266.529c46.624-46.987 46.624-122.779 0-169.766l-264.443-266.526c-27.599-27.819-27.508-72.72 0.203-100.43 27.786-27.787 72.837-27.787 100.624 0l366.619 366.621c47.069 47.065 47.069 123.372 0 170.436l-366.619 366.622c-27.786 27.786-72.837 27.786-100.624 0z"></path>
<path fill="none" stroke-linejoin="miter" stroke-linecap="round" stroke-miterlimit="4" stroke-width="73.1429" stroke="#00d2ff" d="M816.286 524.553h1657.102"></path>
</svg>