<svg version="1.1" xmlns="http://www.w3.org/2000/svg" viewBox="0 0 312 1024">
<path fill="#00d2ff" d="M18.501 152.928c8.432 8.433 22.096 8.46 30.562 0.060l81.106-80.472c14.299-14.187 37.363-14.187 51.662 0l81.105 80.473c8.467 8.399 22.131 8.372 30.564-0.060 8.456-8.456 8.456-22.166 0-30.621l-111.567-111.566c-14.322-14.322-37.543-14.322-51.866 0l-111.566 111.566c-8.456 8.456-8.456 22.166 0 30.621z"></path>
<path fill="#00d2ff" d="M18.501 871.072c8.432-8.433 22.096-8.46 30.562-0.062l81.106 80.472c14.299 14.188 37.363 14.188 51.662 0l81.105-80.472c8.467-8.398 22.131-8.371 30.564 0.062 8.456 8.456 8.456 22.165 0 30.62l-111.567 111.565c-14.322 14.324-37.543 14.324-51.866 0l-111.566-111.565c-8.456-8.456-8.456-22.165 0-30.62z"></path>
<path fill="none" stroke-linejoin="miter" stroke-linecap="round" stroke-miterlimit="4" stroke-width="22.2609" stroke="#00d2ff" d="M152.179 248.404v504.27"></path>
</svg>