<svg
   viewBox="0 0 27 35"
   xmlns="http://www.w3.org/2000/svg"
   xmlns:svg="http://www.w3.org/2000/svg">
  <path
     d="m 14.068359,16.240234 c -5.174122,0 -9.378906,4.206737 -9.3789059,9.38086 C 4.6894535,30.795216 8.8942374,35 14.068359,35 c 5.174122,0 9.378906,-4.204784 9.378907,-9.378906 0,-5.174123 -4.204784,-9.38086 -9.378907,-9.38086 z m 0,1 c 4.633683,0 8.378907,3.747177 8.378907,8.38086 C 22.447265,30.254776 18.702042,34 14.068359,34 9.434677,34 5.6894535,30.254776 5.6894531,25.621094 c -10e-8,-4.633683 3.7452235,-8.38086 8.3789059,-8.38086 z"
     />
  <path
     d="m 14.068359,21.001953 c -0.36289,0 -0.725924,0.179926 -0.908203,0.537109 l -0.613281,1.201172 c -0.148361,0.290674 -0.425827,0.491707 -0.748047,0.542969 l -1.332031,0.212891 C 9.674712,23.622026 9.3394742,24.655181 9.90625,25.222656 l 0.953125,0.955078 c 0.230619,0.230955 0.335968,0.556429 0.285156,0.878907 l -0.208984,1.333984 c -0.125006,0.792209 0.753892,1.42998 1.46875,1.066406 l 1.203125,-0.611328 c 0.290844,-0.147941 0.632984,-0.147941 0.923828,0 l 1.203125,0.611328 c 0.714858,0.363574 1.593756,-0.274197 1.46875,-1.066406 l -0.208984,-1.333984 c -0.05081,-0.322478 0.05454,-0.647952 0.285156,-0.878907 l 0.953125,-0.955078 c 0.566727,-0.567483 0.231541,-1.60063 -0.560547,-1.726562 l -1.333984,-0.212891 c -0.32222,-0.05126 -0.599687,-0.252295 -0.748047,-0.542969 l -0.613281,-1.201172 c -0.182279,-0.357183 -0.545314,-0.537109 -0.908204,-0.537109 z m -0.01563,0.990234 c 0.02104,-0.04123 0.01216,-0.04123 0.0332,0 l 0.613281,1.203125 c 0.293239,0.574526 0.845443,0.974835 1.482422,1.076172 l 1.332031,0.210938 c 0.04571,0.0073 0.04439,4.87e-4 0.01172,0.0332 l -0.953125,0.955078 c -0.455781,0.456445 -0.666795,1.105066 -0.566407,1.742188 l 0.208985,1.333984 c 0.0072,0.04559 0.014,0.04056 -0.02734,0.01953 l -1.203125,-0.611328 c -0.574955,-0.292458 -1.255123,-0.292458 -1.830078,0 l -1.203125,0.611328 c -0.04134,0.02103 -0.03649,0.02606 -0.0293,-0.01953 l 0.210938,-1.333984 c 0.100388,-0.637122 -0.110626,-1.285743 -0.566407,-1.742188 l -0.953125,-0.955078 c -0.03268,-0.03272 -0.03595,-0.02594 0.0098,-0.0332 l 1.333984,-0.210938 c 0.636979,-0.101337 1.18723,-0.501646 1.480469,-1.076172 z"
     />
  <path
     d="m 7.5351562,9.3789063 a 0.5,0.5 0 0 0 -0.5,0.5 0.5,0.5 0 0 0 0.5,0.4999997 H 20.603516 a 0.5,0.5 0 0 0 0.5,-0.4999997 0.5,0.5 0 0 0 -0.5,-0.5 z"
     />
  <path
     d="m 4.0175781,4.6894531 a 0.5,0.5 0 0 0 -0.5,0.5 0.5,0.5 0 0 0 0.5,0.5 H 22.947266 a 0.5,0.5 0 0 0 0.5,-0.5 0.5,0.5 0 0 0 -0.5,-0.5 z"
     />
  <path
     d="M 0.5,0 A 0.5,0.5 0 0 0 0,0.5 0.5,0.5 0 0 0 0.5,1 h 25.964844 a 0.5,0.5 0 0 0 0.5,-0.5 0.5,0.5 0 0 0 -0.5,-0.5 z"
     />
</svg>
