<svg viewBox="0 0 33 33" xmlns="http://www.w3.org/2000/svg" xmlns:svg="http://www.w3.org/2000/svg">
    <path d="M 16.5,0 C 7.3932331,0 0,7.3932331 0,16.5 0,25.606767 7.3932331,33 16.5,33 25.606767,33 33,25.606767 33,16.5 33,7.3932331 25.606767,0 16.5,0 Z m 0,1 C 25.066327,1 32,7.9336726 32,16.5 32,25.066327 25.066327,32 16.5,32 7.9336726,32 1,25.066327 1,16.5 1,7.9336726 7.9336726,1 16.5,1 Z" />
    <path d="M 16.5,7 A 0.5,0.5 0 0 0 16,7.5 v 14 A 0.5,0.5 0 0 0 16.5,22 0.5,0.5 0 0 0 17,21.5 V 7.5 A 0.5,0.5 0 0 0 16.5,7 Z" />
    <path d="M 16.5,7 A 0.5,0.5 0 0 0 16,7.5 v 14 A 0.5,0.5 0 0 0 16.5,22 0.5,0.5 0 0 0 17,21.5 V 7.5 A 0.5,0.5 0 0 0 16.5,7 Z" />
    <path d="M 16.5,7 A 0.5,0.5 0 0 0 16,7.5 v 14 A 0.5,0.5 0 0 0 16.5,22 0.5,0.5 0 0 0 17,21.5 V 7.5 A 0.5,0.5 0 0 0 16.5,7 Z" />
    <path d="M 16.5,7 A 0.5,0.5 0 0 0 16,7.5 v 14 A 0.5,0.5 0 0 0 16.5,22 0.5,0.5 0 0 0 17,21.5 V 7.5 A 0.5,0.5 0 0 0 16.5,7 Z" />
    <path d="M 16.5,24 A 0.5,0.5 0 0 0 16,24.5 v 1 A 0.5,0.5 0 0 0 16.5,26 0.5,0.5 0 0 0 17,25.5 v -1 A 0.5,0.5 0 0 0 16.5,24 Z" />
    <path d="M 16.5,24 A 0.5,0.5 0 0 0 16,24.5 v 1 A 0.5,0.5 0 0 0 16.5,26 0.5,0.5 0 0 0 17,25.5 v -1 A 0.5,0.5 0 0 0 16.5,24 Z" />
    <path d="M 16.5,24 A 0.5,0.5 0 0 0 16,24.5 v 1 A 0.5,0.5 0 0 0 16.5,26 0.5,0.5 0 0 0 17,25.5 v -1 A 0.5,0.5 0 0 0 16.5,24 Z" />
    <path d="M 16.5,24 A 0.5,0.5 0 0 0 16,24.5 v 1 A 0.5,0.5 0 0 0 16.5,26 0.5,0.5 0 0 0 17,25.5 v -1 A 0.5,0.5 0 0 0 16.5,24 Z" />
</svg>
