<svg viewBox="0 0 27 41" xmlns="http://www.w3.org/2000/svg">
    <mask id="a" fill="#fff"><path d="M13.376 9.294c-3.08 0-5.454-.515-7.124-1.543S3.747 5.708 3.747 4.706V3.085 2.017C2.556 2.702 1.634 3.493.98 4.39.327 5.286 0 6.96 0 9.412V29.7c0 1.898.428 3.526 1.285 4.884a10.942 10.942 0 003.268 3.342 14.837 14.837 0 004.335 1.938c1.569.421 3.064.632 4.488.632 1.423 0 2.926-.21 4.509-.632a14.504 14.504 0 004.335-1.938 11.04 11.04 0 003.246-3.342c.857-1.358 1.285-2.986 1.285-4.884V9.412c0-2.452-.327-4.126-.98-5.022-.654-.897-1.576-1.688-2.767-2.373v2.689c0 1.002-.835 2.017-2.505 3.045s-4.045 1.543-7.123 1.543zm4.008 5.497c.29.184.37.461.24.83l-.197.554-3.006 5.971.893.317c.596.21 1.155.422 1.678.633.523.21.973.46 1.35.751.378.29.233.857-.435 1.7-.349.422-.922 1.042-1.721 1.86-.799.817-1.605 1.62-2.418 2.412a249.2 249.2 0 01-2.179 2.096l-.958.91-.392.296c-.262.197-.538.204-.828.02-.29-.159-.37-.422-.24-.791l.196-.554 3.006-6.011-.893-.317a41.66 41.66 0 01-1.677-.632 4.52 4.52 0 01-1.329-.712c-.363-.29-.225-.857.414-1.7.349-.449.922-1.075 1.721-1.88a374.55 374.55 0 012.418-2.412 97.43 97.43 0 012.178-2.096l.959-.89.392-.296c.261-.198.537-.217.828-.06zM8.757 2.294v1.503c0 .553.392 1.067 1.177 1.542.784.474 1.859.712 3.224.712 1.394 0 2.483-.238 3.267-.712.785-.475 1.177-.989 1.177-1.542V2.294c0-.58-.392-1.108-1.177-1.582C15.641.237 14.552 0 13.158 0c-1.365 0-2.44.237-3.224.712-.785.474-1.177 1.002-1.177 1.582z"/></mask><path d="M6.252 7.751L7.39 5.904 6.252 7.75zM3.747 2.017h2.17v-3.752L2.664.137l1.082 1.88zM.98 4.39L-.773 3.112.98 4.39zm.305 30.194l1.835-1.158-1.835 1.158zm3.268 3.342L3.36 39.738l1.193-1.812zm13.332 1.938l-.559-2.097.559 2.097zm7.58-5.28l-1.834-1.158 1.835 1.158zm.306-30.194l1.753-1.278L25.77 4.39zm-2.767-2.373l1.082-1.88-3.251-1.872v3.752h2.17zM20.5 7.75l-1.137-1.847 1.137 1.847zm-3.115 7.04l1.163-1.831-.061-.04-.064-.035-1.038 1.906zm.24.83l-2.045-.724 2.044.724zm-.197.554l1.938.975.062-.122.046-.129-2.046-.724zm-3.006 5.971l-1.938-.975-1.106 2.198 2.32.822.724-2.045zm.893.317l.725-2.045-.725 2.045zm2.593 3.084l1.672 1.382.014-.017.015-.018-1.701-1.346zm-1.721 1.86l1.551 1.515-1.551-1.516zm-5.555 5.417l1.309 1.73.096-.073.088-.083-1.493-1.574zm-.392.297l1.308 1.73-1.308-1.73zm-.828.02l1.163-1.831-.061-.04-.065-.035-1.037 1.906zm-.24-.791l-2.045-.725 2.045.725zm.196-.554l-1.94-.97-.06.12-.045.126 2.045.724zm3.006-6.011l1.94.97 1.099-2.195-2.314-.82-.725 2.045zm-.893-.317l.725-2.044-.725 2.044zm-1.677-.632l.812-2.012-.045-.018-.045-.016-.722 2.046zm-1.329-.712L7.12 25.819l1.354-1.695zm.414-1.7l-1.713-1.332-.008.01-.008.011 1.729 1.31zm1.721-1.88l1.54 1.53-1.54-1.53zm2.418-2.412l-1.525-1.542 1.525 1.542zm2.178-2.096l1.476 1.59-1.476-1.59zm.959-.89l-1.309-1.73-.087.066-.08.075 1.476 1.59zm.392-.296l1.309 1.73-1.309-1.73zm-3.18-7.726c-2.887 0-4.801-.49-5.987-1.22L5.115 9.599c2.155 1.326 4.99 1.864 8.26 1.864V7.124zm-5.987-1.22c-.72-.444-1.13-.808-1.34-1.064-.2-.241-.133-.274-.133-.134H1.577c0 2.25 1.81 3.828 3.538 4.893l2.274-3.695zM5.916 4.706v-.002-.002V4.7v-.003-.002-.002-.002-.002-.003-.002-.002-.002-.002-.003-.002-.002-.002-.002-.003-.002-.002-.002-.003-.002-.002-.002-.003-.002-.002-.003-.002-.002-.002-.003-.002-.002-.003-.002-.002-.003-.002-.002-.003-.002-.002-.003V4.6v-.002-.003-.002-.002-.003-.002-.002-.003-.002-.003-.002-.002-.003-.002-.003-.002-.002-.003-.002-.003-.002-.002-.003-.002-.003-.002-.003-.002-.003-.002-.003-.002-.002-.003-.002-.003-.002-.003-.002-.003-.002-.003-.002-.003-.002-.003-.003-.002-.003-.002-.003-.002-.003-.002-.003-.002-.003-.003-.002-.003-.002-.003-.003-.002-.003-.002-.003-.003-.002-.003-.002-.003-.003-.002-.003-.003-.002-.003-.003V4.4v-.003-.003-.002-.003-.003-.002-.003-.003-.002-.003-.003-.002-.003-.003-.003-.002-.003-.003-.002-.003-.003-.003-.002-.003-.003-.003-.002-.003-.003-.003-.003-.002-.003-.003-.003-.003V4.3v-.003-.003-.003-.003-.002-.003-.003-.003-.003-.003-.002-.003-.003-.003-.003-.003-.003-.002-.003-.003-.003-.003-.003-.003-.003-.003-.003-.002-.003-.003-.003-.003-.003V4.2v-.003-.003-.003-.003-.003-.003-.003-.003-.003-.003-.003-.003-.003-.003-.003-.003-.003-.003-.003-.003-.003-.003-.003-.003-.003-.003-.003-.003-.003-.003-.003-.003-.003-.003-.003-.003-.003-.004-.003-.003-.003-.003-.003-.003-.003-.003-.003-.004-.003-.003-.003-.003-.003-.003-.004-.003-.003-.003-.003-.003-.004-.003-.003-.003-.003-.004-.003-.003-.003-.003-.004-.003-.003-.003-.003-.004-.003-.003-.003-.004-.003-.003-.003-.004-.003-.003-.004-.003-.003-.003-.004-.003-.003-.004-.003-.003-.004-.003-.003-.004-.003-.003-.004-.003-.003-.004-.003-.003-.004-.003-.003-.004-.003-.004-.003-.003-.004-.003-.004-.003-.003-.004-.003-.004-.003V3.8v-.004-.003-.004-.003-.004-.003-.004-.003-.004-.003-.004-.003-.003-.004-.003-.004-.003-.004-.003-.004-.003-.004-.003-.004-.004-.003-.004-.003-.004-.003-.004-.003-.004-.004-.003-.004-.003-.004-.003-.004-.004-.003-.004-.003-.004-.004-.003-.004-.003-.004-.004-.003-.004-.004-.003V3.6v-.004-.003-.004-.004-.003-.004-.004-.003-.004-.004-.003-.004-.004-.003-.004-.004-.004-.003-.004-.004-.004-.003-.004-.004-.003-.004V3.5v-.004-.004-.003-.004-.004-.004-.003-.004-.004-.004-.004-.003-.004-.004-.004-.004-.003-.004-.004-.004-.004-.004-.003-.004-.004-.004-.004-.004-.004-.004-.003-.004-.004-.004-.004-.004-.004-.004-.004-.003-.004-.004-.004-.004-.004-.004-.004-.004-.004-.004-.004V3.3v-.004-.004-.004-.004-.004-.004-.004-.004-.004-.004-.004-.004-.004-.004-.004-.004-.004-.004-.004-.004-.004-.004-.004-.004V3.2v-.004-.004-.004-.004-.004-.005-.004-.004-.004-.004-.004-.004-.004-.004-.004-.005-.004-.004-.004-.004-.004-.004-.005-.004-.004-.004-.004-.004H1.577V4.706h4.34zm0-1.621V3.08v-.005-.004-.004-.004-.004-.004-.004-.005-.004-.004-.004-.004-.004-.004-.004-.004-.004-.004-.004-.004-.004-.004-.004-.004-.004-.004-.004-.004-.004-.004-.004-.004-.003-.004-.004-.004-.004-.004-.004-.003-.004-.004-.004-.004-.004-.003-.004-.004-.004-.003-.004-.004-.004-.003-.004-.004-.004-.003-.004-.004-.003-.004-.004-.003-.004-.003-.004-.004-.003-.004-.004-.003-.004-.003-.004-.003-.004-.003-.004-.003-.004-.003-.004-.003-.004-.003-.004-.003-.004-.003-.004-.003-.003-.004-.003-.004-.003-.003-.004-.003-.003-.004-.003-.003-.004-.003-.003-.004-.003-.003-.003-.004-.003-.003-.003-.004-.003-.003-.003-.003-.004-.003-.003-.003-.003-.003-.003-.004-.003-.003-.003-.003-.003-.003-.003-.003-.003-.003-.003-.003-.003-.003-.003-.003-.003-.003-.003-.003-.003-.003-.003-.003-.003-.003-.003-.003-.003-.003-.002-.003-.003-.003-.003-.003-.002-.003-.003-.003-.003-.002-.003-.003-.003-.003-.002-.003-.003-.002-.003-.003-.003-.002-.003-.003-.002-.003-.002-.003-.003-.002-.003-.003-.002-.003-.002-.003-.002-.003-.003-.002-.003-.002-.003-.002-.003-.002-.003-.002-.003-.002-.002-.003-.002-.003-.002-.003-.002-.002-.003-.002-.003-.002-.002-.003-.002-.002-.003-.002-.002-.002-.003-.002-.002-.003-.002-.002-.002-.003-.002-.002-.002-.002-.003-.002-.002-.002-.002-.002-.002-.003-.002-.002-.002-.002-.002-.002-.002-.002-.002-.002-.003-.002-.002-.002-.002-.002-.002-.002-.002-.002-.001-.002-.002-.002-.002-.002-.002-.002-.002-.002-.002-.001-.002-.002-.002-.002-.002-.002-.001-.002-.002-.002-.002-.001-.002-.002-.002-.001V2.2v-.002-.001-.002-.002-.002-.001-.002-.002-.001-.002-.002-.001-.002-.001-.002-.002-.001-.002-.001-.002-.001-.002-.002-.001-.002-.001-.002-.001-.002-.001-.002-.001-.002-.001-.001-.002-.001-.002-.001-.002-.001-.001-.002-.001-.002-.002-.002-.002-.002-.002-.001-.002-.001-.001-.001-.002-.001-.001-.001-.002-.002-.001-.001V2.1v-.002-.001-.001-.001-.002-.002-.002-.001-.001-.001-.001-.001-.001-.001-.001-.001-.001-.001-.001-.001-.001-.001-.001-.001-.001-.001-.001-.001-.001-.002-.002-.001-.001-.001-.002-.001-.001-.001-.002-.001-.002-.001-.002-.001-.001-.001-.001-.001-.001-.001-.001-.001-.001-.001-.001-.001-.001-.001-.001-.001-.001-.001-.001-.001-.001-.001-.001-.001-.001-.001-.001-.001-.001-.001H1.577V3.086h4.34zM2.665.137C1.272.939.097 1.919-.773 3.112l3.506 2.556c.438-.6 1.107-1.202 2.096-1.77L2.665.136zM-.773 3.112c-.587.805-.917 1.793-1.111 2.79-.2 1.02-.285 2.2-.285 3.51h4.338c0-1.141.077-2.024.205-2.679.132-.676.293-.974.36-1.065L-.774 3.112zm-1.396 6.3V29.7h4.338V9.412h-4.338zm0 20.288c0 2.232.507 4.278 1.62 6.042l3.669-2.316c-.601-.952-.95-2.162-.95-3.726h-4.34zm1.62 6.042a13.11 13.11 0 003.909 3.996l2.386-3.624a8.772 8.772 0 01-2.626-2.688l-3.67 2.316zm3.909 3.996c1.52 1 3.179 1.74 4.965 2.22l1.126-4.19a12.664 12.664 0 01-3.705-1.654L3.36 39.738zm4.965 2.22c1.726.465 3.413.708 5.05.708v-4.34c-1.208 0-2.514-.178-3.924-.557l-1.126 4.19zm5.05.708c1.638 0 3.33-.243 5.069-.706l-1.118-4.193c-1.427.38-2.742.56-3.95.56v4.339zm5.069-.706a16.67 16.67 0 004.978-2.228l-2.404-3.612a12.33 12.33 0 01-3.692 1.647l1.117 4.193zm4.978-2.228a13.208 13.208 0 003.878-3.99l-3.669-2.316a8.87 8.87 0 01-2.613 2.694l2.404 3.612zm3.878-3.99c1.113-1.764 1.62-3.81 1.62-6.042h-4.338c0 1.564-.35 2.774-.95 3.726l3.668 2.316zm1.62-6.042V9.412h-4.338V29.7h4.339zm0-20.288c0-1.31-.086-2.49-.285-3.51-.194-.997-.524-1.985-1.111-2.79l-3.506 2.556c.066.09.227.389.359 1.065.128.655.205 1.538.205 2.68h4.339zm-1.396-6.3C26.654 1.919 25.48.939 24.086.137l-2.164 3.76c.989.57 1.659 1.171 2.096 1.77l3.506-2.555zm-4.52-1.095h-2.17V2.59h4.34v-.002-.002-.002-.003-.002-.002-.002-.002-.003-.002-.002-.002-.002-.003-.002-.002-.002-.002-.002-.003-.002-.002-.002-.002-.002-.002-.003-.002-.002-.002-.002-.002-.002-.002-.002-.002-.003-.002-.002-.002-.002V2.5v-.002-.002-.002-.002-.002-.002-.002-.002-.002-.002-.002-.002-.002-.002-.002-.002-.002-.002-.002-.002-.002-.002-.002-.002-.002-.002-.002-.002-.002-.002-.002-.001-.002-.002-.002-.002-.002-.002-.002-.002-.002-.001-.002-.002-.002-.002-.002-.002-.001-.002V2.4v-.002-.002-.002-.001-.002-.002-.002-.002-.001-.002-.002-.002-.002-.001-.002-.002-.002-.001-.002-.002-.002-.001-.002-.002-.002-.001-.002-.002-.001-.002-.002-.001-.002-.002-.002-.001-.002-.002-.001-.002-.002-.001-.002-.001-.002-.002-.001-.002-.002-.001-.002-.001-.002-.002-.001-.002-.001-.002V2.3 2.3v-.002-.001-.002-.001-.002-.002-.001-.002-.001-.002-.001-.002-.001-.002-.001-.002-.001-.002-.001-.002-.001-.002-.001-.002-.001-.002-.001-.001-.002-.001-.002-.001-.002-.001-.001-.002-.001-.002-.001-.002-.002-.002-.001-.001-.002-.001-.002-.002-.002-.002-.002-.002-.002-.002-.002-.002-.001-.002-.001-.001-.002V2.2 2.2v-.002-.002-.001-.002-.002-.001-.002-.002-.001-.001-.002-.002-.001-.001-.002-.002-.001-.001-.001-.002-.002-.001-.001-.001-.001-.002-.002-.001-.001-.001-.001-.001-.001-.002-.002-.002-.002-.001-.001-.001-.001-.001-.001-.001-.001-.001-.001-.001-.001-.001-.001-.001-.001-.001-.001-.001-.001-.001-.001-.001-.001-.001-.001-.001-.002-.002-.002-.001-.001-.001-.001-.001-.002-.001-.001-.001V2.1v-.002-.001-.001-.001-.001-.002-.001-.001-.002-.001-.001-.002-.001-.002-.001-.002-.001-.002-.001-.001-.001-.001-.001-.002-.002-.002-.001-.001-.001-.001-.001-.001-.001-.001-.001-.001-.001-.001-.001-.001-.001-.001-.001-.001-.001-.001-.001-.001-.001-.001-.001-.001-.001-.001-.001-.001-.001-.001-.001-.001-.001-.001-.001-.001-.001-.001-.001-.001-.001-.001-.001-.001-.001-.001h-2.17zm-2.17.573V4.706h4.34V4.7v-.006-.006-.006-.006-.006-.006-.006-.006-.006-.006-.006-.006-.006-.005-.006-.006-.006-.006-.006-.006-.006-.006-.005-.006-.006-.006-.006-.005-.006-.006-.006-.006-.005V4.5v-.006-.006-.005-.006-.006-.006-.005-.006-.006-.006-.005-.006-.006-.005-.006-.006-.005-.006-.005-.006-.006-.005-.006-.005-.006-.006-.005-.006-.005-.006-.005-.006-.005-.006-.006-.005-.006-.005-.005-.006-.005-.006-.005-.006-.005-.006-.005-.005-.006-.005-.006-.005-.005-.006-.005-.006-.005-.005-.006-.005-.005-.006-.005-.005-.005-.006-.005-.005-.005-.006-.005-.005-.005-.006-.005-.005-.005-.005-.006-.005-.005-.005-.005-.005-.006-.005-.005-.005-.005-.005-.005V4v-.006-.005-.005-.005-.005-.005-.005-.005-.005-.005-.005-.005-.005-.005-.005-.005-.005-.005-.005V3.9v-.005-.005-.004-.005-.005-.005-.005-.005-.005-.005-.005-.004-.005-.005-.005-.005-.005-.004-.005-.005-.005-.005-.004-.005-.005-.005-.004-.005-.005-.004-.005-.005-.005-.004-.005-.005-.004-.005-.005-.004-.005V3.7v-.004-.005-.004-.005-.005-.004-.005-.004-.005-.004-.005-.005-.004-.005-.004-.005-.004-.005-.004-.005-.004-.005-.004-.004-.005-.004-.005-.004-.005-.004-.004-.005-.004-.005-.004-.004-.005-.004-.004-.005-.004-.004-.005-.004-.004-.005-.004-.004-.004-.005-.004-.004-.004-.005-.004-.004-.004-.005-.004-.004-.004-.004-.004-.005-.004-.004-.004-.004-.004-.004-.004-.005-.004-.004-.004-.004-.004-.004-.004-.004-.004-.004-.004-.004-.004-.004-.004-.004-.004-.004-.004-.004-.004-.004-.004-.004-.004-.004-.003-.004-.004-.004-.004-.004-.004-.004-.003-.004-.004-.004-.004-.003-.004-.004-.004-.004-.003-.004V3.2v-.004-.003-.004-.004-.004-.003-.004-.004-.003-.004-.004-.003-.004-.004-.003-.004-.004-.003-.004-.003-.004-.004-.003-.004-.003-.004-.003-.004-.003-.004-.004-.003-.004-.003-.004-.003-.004-.003-.003-.004-.003-.004-.003-.004-.003-.003-.004-.003-.004-.003-.003-.004-.003-.003-.004-.003-.004-.003-.003-.003-.004-.003-.003-.004-.003-.003-.003-.004-.003-.003-.003-.004-.003-.003-.003-.003-.004-.003-.003-.003-.003-.003-.004-.003-.003-.003-.003V2.9v-.003-.003-.003-.003-.003-.004-.003-.003-.003-.003-.003-.003-.003-.003-.003-.003-.003-.003-.003-.003-.003-.002-.003-.003-.003-.003-.003-.003-.003-.003-.003-.002-.003-.003-.003-.003-.003-.002-.003-.003-.003-.003-.002-.003-.003-.003-.002-.003-.003-.003-.002-.003-.003-.003-.002-.003-.003-.002-.003-.003-.002-.003-.003-.002-.003-.002-.003-.003-.002V2.7 2.7v-.003-.003-.002-.003-.002-.003-.002-.003-.002-.003-.002-.003-.002-.003-.002-.003-.002-.002-.003-.002-.003-.002-.003-.002-.002-.003-.002-.003-.002-.002-.003-.002-.002-.003-.002-.002-.003-.002-.002-.002-.003-.002-.002-.002-.003h-4.34zm0 2.116c0-.14.067-.107-.131.134-.21.256-.62.62-1.341 1.064l2.274 3.695c1.73-1.065 3.538-2.643 3.538-4.893h-4.34zm-1.472 1.198c-1.186.73-3.1 1.22-5.986 1.22v4.339c3.27 0 6.106-.538 8.26-1.864l-2.274-3.695zM16.22 16.622a1.565 1.565 0 01-.643-.884 1.405 1.405 0 01.002-.841l4.09 1.448c.163-.46.28-1.105.077-1.81a2.776 2.776 0 00-1.199-1.575l-2.327 3.662zm-.641-1.725l-.148.415-.036.104-.01.026-.002.006v.002l2.044.725 2.046.724v-.002l.003-.007.009-.026.037-.103.147-.416-4.09-1.448zm-.09.302l-3.006 5.972 3.876 1.95 3.006-5.97-3.875-1.952zm-1.068 6.947l-.724 2.045.003.002.01.003.043.015.167.06.67.237 1.449-4.09-.67-.237-.168-.06-.042-.015-.01-.003-.003-.001-.725 2.044zm.169 2.362c.57.201 1.1.402 1.59.6l1.623-4.024a43.85 43.85 0 00-1.764-.666l-1.449 4.09zm1.59.6c.373.15.645.309.84.46l2.644-3.442a7.874 7.874 0 00-1.86-1.042l-1.624 4.024zm.84.46a1.673 1.673 0 01-.586-.884 1.456 1.456 0 01-.019-.733c.028-.107.054-.135.015-.068-.035.06-.103.165-.224.318l3.402 2.693c.39-.493.823-1.135 1.01-1.866.1-.393.157-.913.003-1.48a2.668 2.668 0 00-.957-1.422l-2.643 3.441zm-.786-1.402c-.288.348-.808.914-1.6 1.724l3.103 3.032c.806-.824 1.433-1.497 1.842-1.993l-3.345-2.763zm-1.6 1.724c-.786.804-1.579 1.595-2.379 2.373l3.025 3.11a136.14 136.14 0 002.457-2.45l-3.103-3.033zm-2.379 2.373c-.809.787-1.528 1.48-2.16 2.078l2.988 3.147c.647-.614 1.38-1.319 2.197-2.114l-3.025-3.11zm-2.16 2.078l-.718.682-.18.17-.045.043-.01.011-.004.003 1.493 1.574 1.493 1.574.001-.001.003-.003.011-.01.045-.043.18-.17.719-.683-2.987-3.147zm.536 2.483l-1.309-1.73-.002.001a.175.175 0 01-.004.004l-.019.014-.073.055-.294.223 2.617 3.46.294-.222.074-.056.018-.014a.217.217 0 01.005-.003l.001-.001-1.308-1.73zM8.93 31.391c.162-.123.457-.276.854-.286.387-.009.663.123.79.204l-2.327 3.663a2.92 2.92 0 001.64.47 2.856 2.856 0 001.66-.591l-2.617-3.46zm1.518-.156c.248.135.604.44.761.96.14.463.033.805.007.879l-4.09-1.449c-.157.443-.29 1.102-.07 1.828.238.784.779 1.3 1.317 1.593l2.075-3.81zm.768 1.839l.147-.416.037-.103a6.53 6.53 0 00.01-.026l.002-.007v-.001l-2.045-.725-2.045-.724v.002l-.003.006a7.416 7.416 0 01-.046.13l-.147.415 4.09 1.449zm.092-.308l3.006-6.01-3.88-1.942-3.007 6.012 3.88 1.94zm1.066-6.981l.724-2.045h-.001l-.003-.001-.01-.004-.042-.015-.167-.06-.67-.236-1.449 4.09.67.237.167.059.042.015.01.003.003.001h.001l.725-2.044zm-.17-2.361a39.71 39.71 0 01-1.59-.6l-1.623 4.023c.555.224 1.144.446 1.765.666l1.449-4.09zm-1.679-.634a2.377 2.377 0 01-.697-.361l-2.708 3.39a6.684 6.684 0 001.96 1.062l1.445-4.091zm-.697-.361c.255.203.47.507.566.874.088.334.044.59.02.691-.025.1-.048.124-.011.057.034-.061.1-.166.214-.318l-3.458-2.62c-.377.497-.787 1.136-.962 1.855a2.921 2.921 0 000 1.438 2.67 2.67 0 00.923 1.413l2.708-3.39zm.773 1.326c.264-.34.762-.891 1.547-1.681L9.07 19.016c-.813.818-1.462 1.52-1.895 2.076l3.426 2.663zm1.547-1.681c.794-.8 1.596-1.6 2.404-2.399l-3.05-3.085c-.818.808-1.629 1.617-2.432 2.426l3.078 3.058zm2.404-2.399a95.603 95.603 0 012.13-2.049l-2.953-3.18a99.512 99.512 0 00-2.227 2.144l3.05 3.085zm2.13-2.049l.718-.667.18-.167.045-.042.011-.01.003-.003-1.475-1.59-1.476-1.59h-.001l-.003.003-.011.01-.045.042-.18.167-.719.667 2.952 3.18zm-.518-2.48l1.309 1.73h.001l.005-.004.018-.014.074-.055.294-.223-2.618-3.46-.294.222-.073.056-.019.014-.004.003-.001.001 1.308 1.73zm1.7 1.434a1.423 1.423 0 01-.75.27 1.411 1.411 0 01-.768-.154l2.076-3.81a2.933 2.933 0 00-1.618-.363 2.92 2.92 0 00-1.557.597l2.618 3.46zM6.589 2.294v1.503h4.339V2.294h-4.34zm0 1.503c0 1.714 1.228 2.796 2.222 3.398l2.247-3.712a1.962 1.962 0 01-.242-.168c-.047-.04-.053-.053-.039-.033.016.02.056.079.091.175.037.099.06.216.06.34h-4.34zM8.81 7.195c1.25.756 2.767 1.025 4.348 1.025V3.881c-1.15 0-1.783-.205-2.101-.398L8.81 7.195zm4.348 1.025c1.6 0 3.135-.265 4.39-1.025l-2.246-3.712c-.313.19-.955.398-2.144.398v4.34zm4.39-1.025c.995-.602 2.223-1.684 2.223-3.398h-4.339c0-.124.023-.241.06-.34a.684.684 0 01.09-.175c.015-.02.01-.007-.038.033-.047.04-.124.096-.242.168l2.247 3.712zm2.223-3.398V2.294h-4.339v1.503h4.34zm0-1.503c0-1.71-1.186-2.811-2.223-3.438l-2.246 3.712c.114.069.188.124.231.161.044.037.049.049.034.029a.64.64 0 01-.084-.165.904.904 0 01-.05-.3h4.338zm-2.223-3.438c-1.255-.76-2.79-1.025-4.39-1.025v4.338c1.189 0 1.831.21 2.144.399l2.247-3.712zm-4.39-1.025c-1.58 0-3.098.268-4.348 1.025l2.247 3.712c.318-.193.95-.399 2.1-.399v-4.338zM8.81-1.144C7.774-.517 6.588.584 6.588 2.294h4.339a.904.904 0 01-.051.299.637.637 0 01-.084.165c-.015.02-.01.008.034-.029.043-.037.117-.092.23-.161L8.81-1.144z" mask="url(#a)"/>
</svg>
