<svg viewBox="0 0 50 83" xmlns="http://www.w3.org/2000/svg">
<path d="M37.8372 61.0156H11.3341C10.9009 61.0156 10.5547 61.3618 10.5547 61.795V70.716C10.5547 71.1492 10.9009 71.4954 11.3341 71.4954H37.9238C38.357 71.4954 38.7032 71.1492 38.7032 70.716V63.0569C38.7032 62.2177 38.676 61.0156 37.8368 61.0156H37.8372Z"/>
<path d="M37.8372 41.0156H11.3341C10.9009 41.0156 10.5547 41.3618 10.5547 41.795V50.716C10.5547 51.1492 10.9009 51.4954 11.3341 51.4954H37.9238C38.357 51.4954 38.7032 51.1492 38.7032 50.716V43.0569C38.7032 42.2177 38.676 41.0156 37.8368 41.0156H37.8372Z"/>
<path d="M37.8372 22H11.3341C10.9009 22 10.5547 22.3462 10.5547 22.7794V31.7004C10.5547 32.1335 10.9009 32.4797 11.3341 32.4797H37.9238C38.357 32.4797 38.7032 32.1335 38.7032 31.7004V24.0413C38.7032 23.2021 38.676 22 37.8368 22H37.8372Z" />
<path d="M42.0936 7.53559H33.7786V1.47293C33.7786 0.606561 33.0856 0.000604155 32.3062 0.000604155L16.8027 0C15.9364 0 15.3304 0.692971 15.3304 1.47232V7.53498H7.01539C3.11802 7.53498 0 10.653 0 14.5504V75.1785C0 79.0759 3.11802 82.1939 7.01539 82.1939H42.0931C45.9905 82.1939 49.1085 79.0759 49.1085 75.1785V14.5504C49.1085 10.6536 45.9905 7.5356 42.0931 7.5356L42.0936 7.53559ZM42.5268 75.1793C42.5268 75.4391 42.3534 75.6125 42.0936 75.6125H6.92924C6.66946 75.6125 6.49606 75.4391 6.49606 75.1793V14.5511C6.49606 14.2913 6.66946 14.118 6.92924 14.118H42.007C42.2668 14.118 42.4402 14.2913 42.4402 14.5511V75.1793H42.5268Z"/>
</svg>
