<svg viewBox="0 0 30 36" xmlns="http://www.w3.org/2000/svg">
<path d="M25.6307 9.83095L16.1508 0.507152C15.9688 0.325097 15.7932 0.195059 15.6242 0.117035C15.4551 0.0390112 15.2406 0 14.9805 0C14.7204 0 14.5059 0.0390112 14.3368 0.117035C14.1677 0.195059 13.9922 0.325097 13.8101 0.507152L4.48635 9.83095C3.00389 11.2354 1.88557 12.8608 1.13134 14.7074C0.377109 16.554 0 18.4785 0 20.4811C0 22.4577 0.370607 24.3693 1.11183 26.2159C1.85306 28.0624 2.92587 29.7009 4.3303 31.1313C5.73473 32.5358 7.3602 33.6086 9.20676 34.3498C11.0533 35.091 12.9779 35.4616 14.9805 35.4616C16.9831 35.4616 18.9077 35.091 20.7542 34.3498C22.6008 33.6086 24.2263 32.5358 25.6307 31.1313C27.0871 29.6749 28.1794 28.0234 28.9077 26.1769C29.6359 24.3303 30 22.4447 30 20.5202C30 18.5956 29.6359 16.71 28.9077 14.8635C28.1794 12.9909 27.0871 11.3134 25.6307 9.83095ZM23.29 28.7906C22.1456 29.883 20.8713 30.7087 19.4668 31.2679C18.0624 31.8271 16.567 32.1066 14.9805 32.1066C13.394 32.1066 11.9116 31.8271 10.5332 31.2679C9.15474 30.7087 7.91938 29.883 6.82705 28.7906C5.65669 27.6203 4.77894 26.3329 4.19376 24.9285C3.60858 23.5241 3.31599 22.0416 3.31599 20.4811C3.31599 18.8947 3.60208 17.4057 4.17425 16.0143C4.74643 14.6229 5.57867 13.394 6.671 12.3277L14.8244 3.97919L23.1339 12.3277C24.3043 13.446 25.1756 14.7074 25.7477 16.1118C26.3459 17.5423 26.6515 18.9987 26.6645 20.4811C26.6775 21.9636 26.3979 23.433 25.8257 24.8895C25.2796 26.3199 24.4343 27.6203 23.29 28.7906Z" />
</svg>
