<svg xmlns="http://www.w3.org/2000/svg" xmlns:xlink="http://www.w3.org/1999/xlink" version="1.1" viewBox="0 0 33 32">
<path d="M31.504 16c0 8.416-6.822 15.238-15.238 15.238s-15.238-6.822-15.238-15.238c0-6.032 3.504-11.245 8.588-13.714h-1.596c-4.646 2.8-7.754 7.894-7.754 13.714 0 8.837 7.163 16 16 16s16-7.163 16-16c0-5.82-3.108-10.915-7.754-13.714h-1.596c5.084 2.47 8.588 7.683 8.588 13.714z"></path>
<path d="M7.885 2.286h16.762v0.762h-16.762v-0.762z"></path>
<path d="M16.858 16c0 0.327-0.265 0.593-0.593 0.593s-0.593-0.265-0.593-0.593c0-0.327 0.265-0.593 0.593-0.593s0.593 0.265 0.593 0.593z"></path>
<path d="M16.858 13.63c0 0.327-0.265 0.593-0.593 0.593s-0.593-0.265-0.593-0.593c0-0.327 0.265-0.593 0.593-0.593s0.593 0.265 0.593 0.593z"></path>
<path d="M16.858 11.259c0 0.327-0.265 0.593-0.593 0.593s-0.593-0.265-0.593-0.593c0-0.327 0.265-0.593 0.593-0.593s0.593 0.265 0.593 0.593z"></path>
<path d="M14.408 11.598c0.164 0.283 0.067 0.646-0.217 0.809s-0.646 0.067-0.809-0.217c-0.164-0.283-0.067-0.646 0.217-0.809s0.646-0.067 0.809 0.217z"></path>
<path d="M12.456 13.116c0.283 0.164 0.381 0.526 0.217 0.809s-0.526 0.381-0.809 0.217c-0.283-0.164-0.381-0.526-0.217-0.809s0.526-0.381 0.809-0.217z"></path>
<path d="M11.525 15.407c0.327 0 0.593 0.265 0.593 0.593s-0.265 0.593-0.593 0.593c-0.327 0-0.593-0.265-0.593-0.593s0.265-0.593 0.593-0.593z"></path>
<path d="M11.864 17.857c0.283-0.164 0.646-0.067 0.81 0.217s0.067 0.646-0.217 0.809c-0.283 0.164-0.646 0.067-0.81-0.217s-0.067-0.646 0.217-0.809z"></path>
<path d="M13.382 19.809c0.164-0.283 0.526-0.381 0.809-0.217s0.381 0.526 0.217 0.809c-0.164 0.283-0.526 0.381-0.809 0.217s-0.381-0.526-0.217-0.809z"></path>
<path d="M13.895 14.222c0.327 0 0.593 0.265 0.593 0.593s-0.265 0.593-0.593 0.593c-0.327 0-0.593-0.265-0.593-0.593s0.265-0.593 0.593-0.593z"></path>
<path d="M13.895 16.593c0.327 0 0.593 0.265 0.593 0.593s-0.265 0.593-0.593 0.593c-0.327 0-0.593-0.265-0.593-0.593s0.265-0.593 0.593-0.593z"></path>
<path d="M16.858 18.371c0 0.327-0.265 0.593-0.593 0.593s-0.593-0.265-0.593-0.593c0-0.327 0.265-0.593 0.593-0.593s0.593 0.265 0.593 0.593z"></path>
<path d="M16.858 20.741c0 0.327-0.265 0.593-0.593 0.593s-0.593-0.265-0.593-0.593c0-0.327 0.265-0.593 0.593-0.593s0.593 0.265 0.593 0.593z"></path>
<path d="M19.149 19.809c0.164 0.283 0.067 0.646-0.217 0.809s-0.646 0.067-0.809-0.217c-0.164-0.283-0.067-0.646 0.217-0.809s0.646-0.067 0.809 0.217z"></path>
<path d="M20.667 17.857c0.283 0.164 0.381 0.526 0.217 0.809s-0.526 0.381-0.809 0.217c-0.283-0.164-0.381-0.526-0.217-0.809s0.526-0.381 0.809-0.217z"></path>
<path d="M21.006 15.407c0.327 0 0.593 0.265 0.593 0.593s-0.265 0.593-0.593 0.593c-0.327 0-0.593-0.265-0.593-0.593s0.265-0.593 0.593-0.593z"></path>
<path d="M20.075 13.116c0.283-0.164 0.646-0.067 0.809 0.217s0.067 0.646-0.217 0.809c-0.283 0.164-0.646 0.067-0.809-0.217s-0.067-0.646 0.217-0.809z"></path>
<path d="M18.123 11.598c0.164-0.283 0.526-0.381 0.809-0.217s0.381 0.526 0.217 0.809c-0.164 0.283-0.526 0.381-0.809 0.217s-0.381-0.526-0.217-0.809z"></path>
<path d="M18.636 14.222c0.327 0 0.593 0.265 0.593 0.593s-0.265 0.593-0.593 0.593c-0.327 0-0.593-0.265-0.593-0.593s0.265-0.593 0.593-0.593z"></path>
<path d="M18.636 16.593c0.327 0 0.593 0.265 0.593 0.593s-0.265 0.593-0.593 0.593c-0.327 0-0.593-0.265-0.593-0.593s0.265-0.593 0.593-0.593z"></path>
<path d="M11.694 3.048c0-1.683 1.364-3.048 3.048-3.048h3.81c1.683 0 3.048 1.364 3.048 3.048h-9.905z"></path>
</svg>
