<?xml version="1.0" encoding="UTF-8" standalone="no"?>
<svg
   viewBox="0 0 28 40"
   version="1.1"
   xmlns="http://www.w3.org/2000/svg"
   xmlns:svg="http://www.w3.org/2000/svg">
  <path
     d="M 2.7695313,5.765625 0,10.5625 2.7695313,15.359375 H 8.3085938 L 11.078125,10.5625 8.3085938,5.765625 H 7.7675781 Z M 3.8496094,7.6367187 H 7.2304687 L 8.9179688,10.5625 7.2285156,13.488281 H 3.8496094 L 2.1601563,10.5625 Z"
     />
  <path
     d="M 2.7695313,15.164063 0,19.960937 2.7695313,24.757812 H 8.3085938 L 11.078125,19.960937 8.3085938,15.164063 H 7.7675781 Z m 1.0800781,1.871093 h 3.3789062 l 1.6894532,2.925781 -1.6894532,2.927735 H 3.8496094 L 2.1601563,19.960937 Z"
      />
  <path
     d="M 2.7695313,24.564453 0,29.361328 2.7695313,34.158203 H 8.3085938 L 11.078125,29.361328 8.3085938,24.564453 H 7.7675781 Z m 1.0800781,1.869141 h 3.3789062 l 1.6894532,2.927734 -1.6894532,2.925781 H 3.8496094 L 2.1601563,29.361328 Z"
     />
  <path
     d="m 18.880859,5.765625 -2.767578,4.796875 2.767578,4.796875 h 5.539063 L 27.189453,10.5625 24.419922,5.765625 h -0.539063 z m 1.080078,1.8710937 h 3.38086 L 25.03125,10.5625 23.339844,13.488281 H 19.960937 L 18.271484,10.5625 Z"
     />
  <path
     d="m 18.880859,15.164063 -2.767578,4.796874 2.767578,4.796875 h 5.539063 l 2.769531,-4.796875 -2.769531,-4.796874 h -0.539063 z m 1.080078,1.871093 h 3.378907 l 1.691406,2.925781 -1.691406,2.927735 h -3.378907 l -1.689453,-2.927735 z"
     />
  <path d="m 18.880859,24.564453 -2.767578,4.796875 2.767578,4.796875 h 5.539063 l 2.769531,-4.796875 -2.769531,-4.796875 h -0.539063 z m 1.080078,1.869141 h 3.378907 l 1.691406,2.927734 -1.691406,2.925781 h -3.378907 l -1.689453,-2.925781 z"/>
  <path d="m 10.826172,10.464844 -2.7695314,4.796875 2.7695314,4.796875 h 5.539062 l 2.769532,-4.796875 -2.769532,-4.796875 h -0.541015 z m 1.080078,1.871094 h 3.380859 l 1.6875,2.925781 -1.689453,2.925781 H 11.90625 l -1.689453,-2.925781 z"/>
  <path
     d="m 10.826172,19.865234 -2.7695314,4.796875 2.7695314,4.796875 h 5.539062 l 2.769532,-4.796875 -2.769532,-4.796875 h -0.541015 z m 1.080078,1.869141 h 3.378906 l 1.689453,2.927734 -1.689453,2.925782 H 11.90625 l -1.689453,-2.925782 z"
     id="path325" />
  <path
     d="m 10.826172,29.263672 -2.7695314,4.796875 2.7695314,4.796875 h 5.539062 l 2.769532,-4.796875 -2.769532,-4.796875 h -0.541015 z m 1.080078,1.86914 h 3.378906 l 1.689453,2.927735 -1.689453,2.925781 H 11.90625 l -1.689453,-2.925781 z"
     />
  <path
     d="m 10.826172,1.0664062 -2.7695314,4.796875 2.7695314,4.7968748 h 5.539062 l 2.769532,-4.7968748 -2.769532,-4.796875 h -0.541015 z m 1.080078,1.8691407 h 3.378906 l 1.689453,2.9277343 -1.689453,2.9257813 H 11.90625 L 10.216797,5.8632812 Z"
     />
</svg>
