<svg viewBox="0 0 25 30" version="1.1" xmlns="http://www.w3.org/2000/svg" xmlns:svg="http://www.w3.org/2000/svg">
    <path fill="#010000" d="M 1.5,5 C 1.5,3.06689 3.06683,1.5 4.99972,1.5 H 5.02763 5.05554 5.08346 5.11138 5.13931 5.16723 5.19517 5.2231 5.25104 5.27898 5.30693 5.33488 5.36283 5.39078 5.41874 5.4467 5.47466 5.50262 5.53059 5.55856 5.58652 5.61449 5.64247 5.67044 5.69841 5.72639 5.75437 5.78234 5.81032 5.8383 5.86628 5.89426 5.92224 5.95022 5.9782 6.00618 6.03416 6.06214 6.09012 6.11809 6.14607 6.17405 6.20202 6.23 6.25797 6.28594 6.31391 6.34187 6.36984 6.3978 6.42576 6.45372 6.48168 6.50963 6.53759 6.56553 6.59348 6.62142 6.64936 6.6773 h 0.02793 0.02793 0.02793 0.02792 0.02792 0.02791 0.02791 0.0279 0.0279 0.0279 0.02789 0.02789 0.02788 0.02787 0.02788 0.02786 0.02786 0.02786 0.02784 0.02785 0.02783 0.02783 0.02783 0.02782 0.02781 0.0278 0.0278 H 7.45764 7.48542 7.5132 7.54097 7.56873 7.59649 7.62423 7.65197 7.6797 7.70743 7.73514 7.76285 7.79054 7.81823 7.84591 7.87358 7.90125 7.9289 7.95654 7.98418 8.0118 8.03942 8.06702 8.09462 8.1222 8.14978 8.17734 8.2049 8.23244 8.25997 8.28749 8.31501 8.34251 8.37 h 0.02747 0.02747 0.02745 0.02745 0.02743 0.02742 0.0274 0.0274 0.02738 0.02737 0.02735 0.02735 0.02733 0.02732 0.0273 0.02729 0.02728 0.02727 0.02725 0.02723 0.02723 0.02721 0.02719 0.02718 0.02717 0.02715 0.02714 0.02712 0.0271 0.0271 0.02707 0.02706 0.02705 0.02703 0.02701 0.027 0.02698 0.02697 0.02695 0.02693 0.02692 0.0269 0.02688 0.02687 0.02685 0.02683 0.02681 0.0268 0.02678 0.02676 0.02675 0.02672 0.02671 0.02669 0.02667 0.02665 0.02664 0.02661 0.0266 0.02658 0.02653 0.0266 0.0265 0.0265 0.0265 0.0264 0.0265 0.0264 0.0264 0.0264 0.0263 0.0264 0.0263 0.0263 0.0263 0.0262 0.0262 0.0263 0.0262 0.0261 0.0262 0.0261 0.0261 0.0261 0.026 0.0261 0.026 0.026 0.026 0.0259 0.0259 0.0259 0.0259 0.0259 0.0258 0.0258 0.0258 0.0257 0.0258 0.0257 0.0257 0.0256 0.0257 0.0256 0.0256 0.0255 0.0256 0.0255 0.0255 0.0254 0.0255 0.0254 0.0253 0.0254 0.0253 0.0253 0.0253 0.0253 0.0252 0.0252 0.0252 0.0251 0.0251 0.0251 0.0251 0.025 0.025 0.025 0.025 0.0249 0.0249 0.0248 0.0249 0.0248 0.0248 0.0247 0.0247 0.0247 0.0247 0.0246 0.0246 0.0246 0.0246 0.0245 0.0245 0.0244 0.0244 0.0244 0.0244 0.0243 0.0243 0.0243 0.0243 0.0242 0.0241 0.0242 0.0241 0.0241 0.024 0.0241 0.024 0.0239 0.0239 0.0239 0.0239 0.0238 0.0238 0.0238 0.0237 0.0237 0.0236 0.0237 0.0235 0.0236 0.0235 0.0235 0.0235 0.0234 0.0234 0.0233 0.0234 0.0232 0.0233 0.0232 0.0232 0.0231 0.0231 0.0231 0.023 0.023 0.023 0.0229 0.0229 0.0229 0.0228 0.0228 0.0227 0.0227 0.0227 0.0226 0.0226 0.0226 0.0225 0.0225 0.0224 0.0224 0.0224 0.0223 0.0223 0.0223 0.0222 0.0222 0.0221 0.0221 0.022 0.0221 0.0219 0.022 0.0219 0.0219 0.0218 0.0218 0.0217 0.0217 0.0217 0.0216 0.0216 0.0215 0.0215 0.0215 0.0214 0.0213 0.0214 0.0213 0.0212 0.0212 0.0212 0.0211 0.0211 0.021 0.021 0.021 0.0209 0.0209 0.0208 0.0208 0.0207 0.0207 0.0206 0.0206 0.0206 0.0205 0.0205 0.0204 0.0204 0.0204 0.0203 0.0202 0.0202 0.0202 0.0201 0.0201 0.02 0.02 0.0199 0.0199 0.0199 0.0198 0.0197 0.0197 0.0197 0.0196 0.0195 0.0196 0.0194 0.0195 0.0193 0.0194 0.0193 0.0192 0.0192 0.0191 0.0191 0.0191 0.019 0.0189 0.0189 0.0189 0.0188 0.0187 0.0187 0.0187 0.0186 0.0185 0.0185 0.0185 0.0184 0.0184 0.0183 0.0182 0.0182 0.0182 0.0181 0.018 0.018 0.018 0.0179 0.0178 0.0178 0.0178 0.0177 0.0176 0.0176 0.0176 0.0175 0.0174 0.0174 0.0173 0.0173 0.0172 0.0172 0.0171 0.0171 0.017 0.0169 0.017 0.0168 0.0168 0.0167 0.0167 0.0167 0.0166 0.0165 0.0165 0.0164 0.0163 0.0163 0.0163 0.0162 0.0161 0.0161 0.0161 0.0159 0.016 0.0158 0.0158 0.0158 0.0157 0.0156 0.0156 0.0155 0.0155 0.0154 0.0153 0.0153 0.0153 0.0152 0.0151 0.0151 0.015 0.0149 0.0149 0.0148 0.0148 0.0147 0.0147 0.0146 0.0145 0.0145 0.0144 0.0144 0.0143 0.0142 0.0142 0.0141 0.0141 0.014 0.0139 0.0139 0.0138 0.0138 0.0137 0.0136 0.0136 0.0135 0.0135 0.0134 0.0133 0.0133 0.0132 0.0131 c 0.3921,0 0.7664,0.15379 1.0495,0.43402 L 19.0586,0.868047 18.0033,1.93402 20.5356,4.44098 23.0553,6.9355 C 23.3399,7.21723 23.5,7.60104 23.5,8.00148 V 25 c 0,1.933 -1.567,3.5 -3.5,3.5 H 5 C 3.067,28.5 1.5,26.933 1.5,25 Z"/>
    <path style="fill:#ffffff;" d="M 17.992187,-0.1875 17.560547,0.25 C 17.342312,0.19935583 17.179376,0 16.953125,0 h -0.01172 -0.01367 -0.01367 -0.01367 -0.01367 -0.01367 -0.01172 -0.01367 -0.01367 -0.01367 -0.01367 -0.01367 -0.01563 -0.01367 -0.01367 -0.01367 -0.01367 -0.01563 -0.01367 -0.01367 -0.01563 -0.01367 -0.01367 -0.01563 -0.01367 -0.01563 -0.01367 -0.01563 -0.01367 -0.01563 -0.01563 -0.01367 -0.01563 -0.01563 -0.01563 -0.01367 -0.01563 -0.01563 -0.01563 -0.01563 -0.01563 -0.01563 -0.01563 -0.01563 -0.01563 -0.01563 -0.01563 -0.01563 -0.01758 -0.01563 -0.01563 -0.01563 -0.01758 -0.01563 -0.01563 -0.01758 -0.01563 -0.01563 -0.01758 -0.01563 -0.01758 -0.01563 -0.01758 -0.01758 -0.01563 -0.01758 -0.01758 -0.01563 -0.01758 -0.01758 -0.01758 -0.01563 -0.01758 -0.01758 -0.01758 -0.01758 -0.01758 -0.01758 -0.01758 -0.01758 -0.01758 -0.01758 -0.01758 -0.01758 -0.01953 -0.01758 -0.01758 -0.01758 -0.01758 -0.01953 -0.01758 -0.01758 -0.01953 -0.01758 -0.01953 -0.01758 -0.01953 -0.01758 -0.01953 -0.01758 -0.01953 -0.01758 -0.01953 -0.01953 -0.01758 -0.01953 -0.01953 -0.01758 -0.01953 -0.01953 -0.01953 -0.01953 -0.01953 -0.01758 -0.01953 -0.01953 -0.01953 -0.01953 -0.01953 -0.01953 -0.01953 -0.01953 -0.02149 -0.01953 -0.01953 -0.01953 -0.01953 -0.02148 -0.01953 -0.01953 -0.01953 -0.02148 -0.01953 -0.01953 -0.02148 -0.01953 -0.02149 -0.01953 -0.02148 -0.01953 -0.02148 -0.01953 -0.02149 -0.01953 -0.02148 -0.02149 -0.01953 -0.02148 -0.02149 -0.01953 -0.02148 -0.02149 -0.02148 -0.01953 -0.02149 -0.02148 -0.02148 -0.02149 -0.02148 -0.02148 -0.02149 -0.02148 -0.02149 -0.02148 -0.02148 -0.02149 -0.02148 -0.02148 -0.02149 -0.02148 -0.02344 -0.02148 -0.02148 -0.02149 -0.02148 -0.02344 -0.02148 -0.02148 -0.02344 -0.02148 -0.02149 -0.02344 -0.02149 -0.02344 -0.02148 -0.02344 -0.02148 -0.02344 -0.02148 -0.02344 -0.02148 -0.02344 -0.02148 -0.02344 -0.02344 -0.02148 -0.02344 -0.02344 -0.02149 -0.02344 -0.02344 -0.02344 -0.02344 -0.02148 -0.02344 -0.02344 -0.02344 -0.02344 -0.02344 -0.02344 -0.02344 -0.02148 -0.02344 -0.02344 -0.02344 -0.02539 -0.02344 -0.02344 -0.02344 -0.02344 -0.02344 -0.02344 -0.02344 -0.02344 -0.02539 -0.02344 -0.02344 -0.02344 -0.02344 -0.02539 -0.02344 -0.02344 -0.02539 -0.02344 -0.02344 -0.02539 -0.02344 -0.02344 -0.02539 -0.02344 -0.02539 -0.02344 -0.02539 -0.02344 -0.02539 -0.02344 -0.02539 -0.02344 -0.02539 -0.02344 -0.02539 -0.02539 -0.02344 -0.02539 -0.02539 -0.02344 -0.02539 -0.02539 -0.02344 -0.02539 -0.02539 -0.02539 -0.02344 -0.02539 -0.02539 -0.02539 -0.02539 -0.02344 -0.02539 -0.02539 -0.02539 -0.02539 -0.02539 -0.02539 -0.02539 -0.02539 -0.02539 -0.02539 -0.02539 -0.02539 -0.02539 -0.02539 -0.02539 -0.02539 -0.02539 -0.02539 -0.02539 -0.02539 -0.02539 -0.02539 -0.02734 -0.02539 -0.02539 -0.02539 -0.02539 -0.02734 -0.02539 -0.02539 -0.02539 -0.02734 -0.02539 -0.02539 -0.02539 -0.02734 -0.02539 -0.02539 -0.02734 -0.02539 -0.02539 -0.02734 -0.02539 -0.02734 -0.02539 -0.02539 -0.02734 -0.02539 -0.02734 -0.02539 -0.02734 -0.02539 -0.02734 -0.02539 -0.02734 -0.02539 -0.02734 -0.02539 -0.02734 -0.02539 -0.02734 -0.02734 -0.02539 H 9.9667969 9.9414063 9.9140625 9.8867188 9.8613281 9.8339844 9.8066406 9.78125 9.7539063 9.7265625 9.7011719 9.6738281 9.6464844 9.6191406 9.59375 9.5664063 9.5390625 9.5117188 9.4863281 9.4589844 9.4316406 9.4042969 9.3789063 9.3515625 9.3242188 9.296875 9.2695313 9.2421875 9.2167969 9.1894531 9.1621094 9.1347656 9.1074219 9.0800781 9.0527344 9.0253906 8.9980469 8.9707031 8.9453125 8.9179688 8.890625 8.8632813 8.8359375 8.8085938 8.78125 8.7539063 8.7265625 8.6992188 8.671875 8.6445313 8.6171875 8.5898438 8.5625 8.5351563 8.5078125 8.4804688 8.453125 8.4257813 8.3984375 8.3691406 8.3417969 8.3144531 8.2871094 8.2597656 8.2324219 8.2050781 8.1777344 8.1503906 8.1230469 8.09375 8.0664063 8.0390625 8.0117188 7.984375 7.9570312 7.9296875 7.9003906 7.8730469 7.8457031 7.8183594 7.7910156 7.7636719 7.734375 7.7070312 7.6796875 7.6523437 7.625 7.5957031 7.5683594 7.5410156 7.5136719 7.4863281 7.4570312 7.4296875 7.4023437 7.375 7.3457031 7.3183594 7.2910156 7.2636719 7.234375 7.2070312 7.1796875 7.1523437 7.1230469 7.0957031 7.0683594 7.0410156 7.0117187 6.984375 6.9570312 6.9277344 6.9003906 6.8730469 6.8457031 6.8164062 6.7890625 6.7617187 6.7324219 6.7050781 6.6777344 6.6484375 6.6210937 6.59375 6.5664062 6.5371094 6.5097656 6.4824219 6.453125 6.4257812 6.3984375 6.3691406 6.3417969 6.3144531 6.2851562 6.2578125 6.2304687 6.2011719 6.1738281 6.1464844 6.1171875 6.0898437 6.0625 6.0332031 6.0058594 5.9785156 5.9511719 5.921875 5.8945312 5.8671875 5.8378906 5.8105469 5.7832031 5.7539062 5.7265625 5.6992187 5.6699219 5.6425781 5.6152344 5.5859375 5.5585937 5.53125 5.5019531 5.4746094 5.4472656 5.4179687 5.390625 5.3632812 5.3339844 5.3066406 5.2792969 5.2519531 5.2226562 5.1953125 5.1679687 5.1386719 5.1113281 5.0839844 5.0546875 5.0273437 5 C 2.2564665,0 0,2.2563698 0,5 v 20 c 0,2.743654 2.2563457,5 5,5 h 15 c 2.743654,0 5,-2.256346 5,-5 V 8.0019531 C 25,7.2017037 24.68011,6.4321871 24.111328,5.8691406 L 21.591797,3.375 20.125,1.9238281 19.058594,0.8671875 c -4.43e-4,-4.3798e-4 -0.0015,4.3768e-4 -0.002,0 z M 5,3 h 0.027344 0.027344 0.029297 0.027344 0.027344 0.029297 0.027344 0.027344 0.029297 0.027344 0.027344 0.027344 0.029297 0.027344 0.027344 0.029297 0.027344 0.027344 0.029297 0.027344 0.027344 0.029297 0.027344 0.027344 0.029297 0.027344 0.027344 0.029297 0.027344 0.027344 0.029297 0.027344 0.027344 0.029297 0.027344 0.027344 0.027344 0.029297 0.027344 0.027344 0.029297 0.027344 0.027344 0.029297 0.027344 0.027344 0.029297 0.027344 0.027344 0.029297 0.027344 0.027344 0.029297 0.027344 0.027344 0.029297 0.027344 0.027344 0.027344 0.029297 0.027344 0.027344 0.029297 0.027344 0.027344 0.029297 0.027344 0.027344 0.027344 0.029297 0.027344 0.027344 0.029297 0.027344 0.027344 0.027344 0.029297 0.027344 0.027344 0.027344 0.029297 0.027344 0.027344 0.027344 0.029297 0.027344 0.027344 0.027344 0.029297 0.027344 0.027344 0.027344 0.027344 0.029297 0.027344 0.027344 0.027344 0.027344 0.029297 0.027344 0.027344 0.027344 0.027344 0.027344 0.029297 0.027344 0.027344 0.027344 0.027344 0.027344 0.027344 0.029297 0.027344 0.027344 0.027344 0.027344 0.027344 0.027344 0.027344 0.027344 0.027344 0.029297 0.027344 0.027344 0.027344 0.027344 0.027344 0.027344 0.027344 0.027344 0.027344 0.027344 0.027344 0.027344 0.027344 0.027344 0.027344 0.027344 0.027344 0.027344 0.027344 0.027344 0.025391 0.027344 0.027344 0.027344 0.027344 0.027344 0.027344 0.027344 0.027344 0.027344 0.025391 0.027344 0.027344 0.027344 0.027344 0.027344 0.025391 0.027344 0.027344 0.027344 0.025391 0.027344 0.027344 0.027344 0.025391 0.027344 0.027344 0.027344 0.025391 0.027344 0.027344 0.025391 0.027344 0.027344 0.025391 0.027344 0.027344 0.025391 0.027344 0.02539 0.02734 0.02734 0.02539 0.02734 0.02539 0.02734 0.02539 0.02734 0.02539 0.02734 0.02539 0.02734 0.02539 0.02734 0.02539 0.02734 0.02539 0.02539 0.02734 0.02539 0.02734 0.02539 0.02539 0.02734 0.02539 0.02539 0.02734 0.02539 0.02539 0.02539 0.02734 0.02539 0.02539 0.02539 0.02734 0.02539 0.02539 0.02539 0.02539 0.02734 0.02539 0.02539 0.02539 0.02539 0.02539 0.02539 0.02539 0.02539 0.02539 0.02539 0.02539 0.02539 0.02539 0.02539 0.02539 0.02539 0.02539 0.02539 0.02539 0.02539 0.02539 0.02539 0.02344 0.02539 0.02539 0.02539 0.02539 0.02344 0.02539 0.02539 0.02539 0.02344 0.02539 0.02539 0.02344 0.02539 0.02539 0.02344 0.02539 0.02539 0.02344 0.02539 0.02344 0.02539 0.02344 0.02539 0.02344 0.02539 0.02344 0.02539 0.02344 0.02539 0.02344 0.02344 0.02539 0.02344 0.02344 0.02539 0.02344 0.02344 0.02539 0.02344 0.02344 0.02344 0.02344 0.02539 0.02344 0.02344 0.02344 0.02344 0.02344 0.02344 0.02344 0.02344 0.02539 0.02344 0.02344 0.02344 0.02148 0.02344 0.02344 0.02344 0.02344 0.02344 0.02344 0.02344 0.02148 0.02344 0.02344 0.02344 0.02344 0.02149 0.02344 0.02344 0.02148 0.02344 0.02344 0.02148 0.02344 0.02148 0.02344 0.02148 0.02344 0.02148 0.02344 0.02148 0.02344 0.02149 0.02344 0.02149 0.02148 0.02344 0.02148 0.02148 0.02344 0.02148 0.02149 0.02148 0.02148 0.02344 0.02148 0.02149 0.02148 0.02148 0.02149 0.02148 0.02148 0.02149 0.02148 0.02149 0.02148 0.02148 0.02149 0.02148 0.02148 0.02149 0.01953 0.02148 0.02149 0.02148 0.01953 0.02149 0.02148 0.01953 0.02149 0.02148 0.01953 0.02149 0.01953 0.02148 0.01953 0.02148 0.01953 0.02149 0.01953 0.02148 0.01953 0.01953 0.02148 0.01953 0.01953 0.01953 0.02148 0.01953 0.01953 0.01953 0.01953 0.02149 0.01953 0.01953 0.01953 0.01953 0.01953 0.01953 0.01953 0.01953 0.01758 0.01953 0.01953 0.01953 0.01953 0.01953 0.01758 0.01953 0.01953 0.01758 0.01953 0.01953 0.01758 0.01953 0.01758 0.01953 0.01758 0.01953 0.01758 0.01953 0.01758 0.01953 0.01758 0.01758 0.01953 0.01758 0.01758 0.01758 0.01758 0.01953 0.01758 0.01758 0.01758 0.01758 0.01758 0.01758 0.01758 0.01758 0.01758 0.01758 0.01758 0.01758 0.01563 0.01758 0.01758 0.01758 0.01563 0.01758 0.01758 0.01563 0.01758 0.01758 0.01563 0.01758 0.01563 0.01758 0.01563 0.01563 0.01758 0.01563 0.01563 0.01758 0.01563 0.01563 0.01563 0.01758 0.01563 0.01563 0.01563 0.01563 0.01563 0.01563 0.01563 0.01563 0.01563 0.01563 0.01563 0.01563 0.01367 0.01563 0.01563 0.01563 0.01367 0.01563 0.01563 0.01367 0.01563 0.01367 0.01563 0.01367 0.01563 0.01367 0.01367 0.01563 0.01367 0.01367 0.01563 0.01367 0.01367 0.01367 0.01367 0.01563 0.01367 0.01367 0.01367 0.01367 0.01367 0.01172 0.01367 0.01367 0.01367 0.01367 0.01367 0.0059 l 1.066406,1.0546875 1.466797,1.453125 L 22,8.0019531 V 25 c 0,1.122342 -0.877658,2 -2,2 H 5 C 3.8776581,27 3,26.122342 3,25 V 5 C 3,3.8774141 3.8777574,3 5,3 Z"/>
    <path fill="#21ff87" d="M7 11C7 9.89543 7.89532 9 8.99989 9C10.905 9 12.8862 9 13.7815 9C14.0977 9 14.3988 9.12478 14.6235 9.34722L15.6364 10.35L16.6443 11.3478C16.8719 11.5732 17 11.8802 17 12.2006V19C17 20.1046 16.1046 21 15 21H9C7.89543 21 7 20.1046 7 19V11Z"/>
</svg>
