<svg viewBox="0 0 29 32" xmlns="http://www.w3.org/2000/svg">
<path d="M17.6308 19.1791C17.3888 19.3419 17.2518 19.6214 17.2717 19.9124C17.2915 20.2035 17.4651 20.4618 17.7272 20.5902C17.989 20.7184 18.2996 20.6972 18.5418 20.5346C20.2838 19.366 21.4383 17.5038 21.7105 15.4237C21.9827 13.3435 21.3461 11.2471 19.9633 9.6694C18.5804 8.09197 16.5855 7.18625 14.4877 7.1836C12.3897 7.18095 10.3925 8.08158 9.0057 9.65568C7.61891 11.2298 6.97697 13.3247 7.2439 15.4054C7.51083 17.4862 8.66095 19.3512 10.4 20.5241C10.5794 20.6454 10.7997 20.6904 11.0122 20.6492C11.2248 20.6082 11.4123 20.4842 11.5334 20.3049C11.6547 20.1253 11.6997 19.9052 11.6585 19.6927C11.6175 19.4801 11.4935 19.2926 11.3142 19.1713C9.96396 18.2611 9.07101 16.8139 8.86365 15.199C8.65608 13.5838 9.15416 11.9577 10.2304 10.7359C11.3066 9.51403 12.8567 8.81477 14.485 8.8168C16.1132 8.81879 17.6617 9.52177 18.7351 10.7463C19.8082 11.9707 20.3023 13.598 20.091 15.2125C19.8795 16.8269 18.9833 18.2722 17.6309 19.179L17.6308 19.1791Z"/>
<path d="M19.6128 23.9148C19.7601 23.915 19.9044 23.8751 20.0306 23.7994C21.6412 22.8331 22.9752 21.4672 23.9031 19.834C24.8312 18.2008 25.3215 16.3558 25.3272 14.4773C25.3272 8.49547 20.4605 3.62891 14.4788 3.62891C8.49644 3.62891 3.62988 8.49569 3.62988 14.4773C3.63562 16.3558 4.12598 18.2008 5.05399 19.834C5.98202 21.4672 7.31589 22.833 8.92657 23.7994C9.17694 23.9486 9.48796 23.953 9.74228 23.8107C9.99683 23.6686 10.1563 23.4015 10.1605 23.1101C10.1649 22.8187 10.0134 22.547 9.76323 22.3974C8.39474 21.5764 7.26134 20.4161 6.47296 19.0284C5.68436 17.641 5.26745 16.0733 5.26259 14.4773C5.26259 9.39572 9.39702 5.26146 14.4785 5.26146C19.5603 5.26146 23.6943 9.39567 23.6943 14.4773C23.6895 16.0733 23.2726 17.6409 22.4839 19.0284C21.6956 20.4161 20.5622 21.5764 19.1937 22.3974C18.9874 22.5205 18.846 22.7279 18.8068 22.9648C18.7673 23.2015 18.8343 23.4434 18.9894 23.6265C19.1447 23.8096 19.3726 23.9151 19.6126 23.9149L19.6128 23.9148Z" />
<path d="M14.4783 5.47756e-05C6.49459 5.47756e-05 0 6.49464 0 14.4778C0.00264702 17.0491 0.688422 19.5735 1.98745 21.7923C3.28626 24.0114 5.15173 25.8453 7.39245 27.1064C7.64679 27.2491 7.95783 27.2456 8.20861 27.0969C8.45942 26.9482 8.61184 26.6771 8.60875 26.3855C8.60544 26.0941 8.44706 25.8263 8.19295 25.6833C6.20459 24.5643 4.54935 22.937 3.39674 20.9681C2.24397 18.9992 1.63517 16.7594 1.63274 14.4775C1.63274 7.39449 7.39548 1.63231 14.4779 1.63231C21.5609 1.63231 27.3231 7.39449 27.3231 14.4775H27.3233C27.3209 16.7592 26.7121 18.999 25.5593 20.9681C24.4068 22.937 22.7515 24.5643 20.7631 25.6833C20.5743 25.7894 20.4353 25.9661 20.3769 26.1746C20.3184 26.3833 20.3453 26.6065 20.4514 26.7953C20.5575 26.9839 20.7344 27.1229 20.9431 27.1811C21.1516 27.2396 21.3748 27.2126 21.5636 27.1063C23.8043 25.8452 25.6698 24.0113 26.9686 21.7922C28.2676 19.5734 28.9534 17.049 28.956 14.4777C28.956 6.49458 22.4615 0 14.4783 0L14.4783 5.47756e-05Z" />
<path d="M15.2947 18.3789V17.132C16.1488 16.8692 16.8243 16.2112 17.1093 15.3642C17.3943 14.5171 17.254 13.5847 16.7325 12.859C16.2111 12.1333 15.3719 11.7031 14.4784 11.7031C13.5846 11.7031 12.7456 12.1333 12.2242 12.859C11.7025 13.5848 11.5624 14.5171 11.8474 15.3642C12.1324 16.2112 12.8077 16.8692 13.662 17.132V18.3789L7.97548 30.4601C7.85614 30.7128 7.87467 31.0091 8.02445 31.2451C8.17423 31.4813 8.43452 31.6243 8.714 31.6241H20.2429C20.5223 31.6243 20.7826 31.4813 20.9324 31.2451C21.0822 31.0091 21.1007 30.7128 20.9814 30.4601L15.2947 18.3789ZM10.0002 29.9914L14.4784 20.4785L18.956 29.9914H10.0002ZM14.4781 13.3362H14.4783C14.7814 13.3362 15.0722 13.4566 15.2865 13.6708C15.501 13.8852 15.6212 14.1759 15.6212 14.479C15.6212 14.7823 15.501 15.0731 15.2865 15.2872C15.0721 15.5016 14.7814 15.622 14.4783 15.622C14.175 15.622 13.8843 15.5016 13.6702 15.2872C13.4557 15.073 13.3353 14.7823 13.3353 14.479C13.3357 14.1761 13.4562 13.8856 13.6706 13.6712C13.8848 13.457 14.1753 13.3363 14.4784 13.3361L14.4781 13.3362Z"/>
</svg>
