<?xml version="1.0" encoding="UTF-8" standalone="no"?>
<svg viewBox="0 0 16 14" version="1.1" xmlns="http://www.w3.org/2000/svg" xmlns:svg="http://www.w3.org/2000/svg">
    <path style="fill:#ffffff;stroke-width:0.369231;" d="M 15.6048,1.19713 C 15.4994,1.0729 15.3555,1.00201 15.2047,1.00004 15.054,0.998076 14.9088,1.0652 14.801,1.18665 L 5.92597,11.4168 1.96144,6.84879 C 1.85423,6.72944 1.71063,6.6634 1.56158,6.6649 1.41253,6.66639 1.26995,6.73529 1.16455,6.85677 1.05915,6.97825 0.999364,7.14258 0.998068,7.31437 0.996773,7.48615 1.05407,7.65166 1.15762,7.77523 l 4.36587,5.03187 c 0.05263,0.0611 0.11524,0.1096 0.18422,0.1427 C 5.77669,12.983 5.85068,13 5.9254,13 6.00012,13 6.07411,12.983 6.14309,12.9498 6.21207,12.9167 6.27468,12.8682 6.32731,12.8071 L 15.6048,2.1144 c 0.1041,-0.12248 0.1625,-0.28714 0.1625,-0.45864 0,-0.17149 -0.0584,-0.33616 -0.1625,-0.45863 z"/>
    <path style="fill:#ffffff;" d="m 15.207031,0.81640625 c -0.207051,-0.002698 -0.404905,0.090301 -0.544922,0.24804685 L 5.9257812,11.134766 2.0996094,6.7265625 v -0.00195 C 1.9602575,6.5694779 1.7653136,6.478408 1.5605469,6.4804687 1.3557887,6.4825156 1.1621555,6.5786982 1.0253906,6.7363281 0.8886288,6.8939546 0.81411241,7.098769 0.8125,7.3125 0.81088881,7.5262224 0.8814843,7.7344562 1.015625,7.8945312 h 0.00195 l 4.3671875,5.0332028 c 0.068154,0.07881 0.1495394,0.144996 0.2421875,0.189454 v -0.002 c 0.093274,0.04489 0.1961063,0.07031 0.2988281,0.07031 0.1027219,0 0.2036011,-0.02542 0.296875,-0.07031 v 0.002 c 0.093113,-0.04468 0.1757881,-0.110101 0.2441407,-0.189454 L 15.744141,2.234375 h 0.002 c 0.134912,-0.1587325 0.205078,-0.3647144 0.205078,-0.578125 0,-0.213403 -0.07016,-0.4193944 -0.205078,-0.578125 C 15.60948,0.91710478 15.41414,0.81911185 15.207031,0.81640625 Z m -0.0039,0.36914065 c 0.09449,0.00123 0.187533,0.04342 0.261719,0.1308593 0.07328,0.086209 0.117187,0.2102671 0.117187,0.3398438 0,0.1295891 -0.0439,0.2516634 -0.117187,0.3378906 L 6.1875,12.685547 v 0.002 c -0.036907,0.04285 -0.080153,0.07418 -0.125,0.0957 -0.044686,0.02151 -0.090001,0.03125 -0.1367188,0.03125 -0.046718,0 -0.093986,-0.0097 -0.1386718,-0.03125 -0.044847,-0.02152 -0.08614,-0.05286 -0.1230469,-0.0957 v -0.002 L 1.2988281,7.65625 1.296875,7.6542969 C 1.224811,7.5673283 1.1826217,7.4453474 1.1835937,7.3164062 1.1845733,7.1865576 1.2306495,7.0638489 1.3046875,6.9785156 1.3787224,6.8931858 1.4691585,6.8505425 1.5625,6.8496094 1.655833,6.8486701 1.7491509,6.889088 1.8242187,6.9726562 L 5.9257812,11.699219 14.941406,1.3085937 c 0.07534,-0.084098 0.167944,-0.1242689 0.261719,-0.1230468 z"/>
</svg>
