<svg width="11" height="12" viewBox="0 0 11 12" fill="none" xmlns="http://www.w3.org/2000/svg">
<path d="M10.4489 0.605116C10.1454 0.301611 9.65364 0.300647 9.34895 0.60296L6.42976 3.49934C5.91513 4.00995 5.08499 4.00995 4.57036 3.49934L1.65117 0.60296C1.34648 0.300647 0.8547 0.301611 0.551195 0.605116C0.246846 0.909465 0.246846 1.40291 0.551195 1.70726L4.56669 5.72276C5.08218 6.23824 5.91795 6.23824 6.43343 5.72276L10.4489 1.70726C10.7533 1.40291 10.7533 0.909465 10.4489 0.605116Z" fill="#D9D9D9"/>
<path d="M0.551072 11.1254C0.854577 11.4289 1.34636 11.4298 1.65105 11.1275L4.57024 8.23113C5.08487 7.72052 5.91501 7.72052 6.42964 8.23113L9.34883 11.1275C9.65352 11.4298 10.1453 11.4289 10.4488 11.1254C10.7532 10.821 10.7532 10.3276 10.4488 10.0232L6.43331 6.00771C5.91782 5.49222 5.08205 5.49223 4.56657 6.00771L0.551072 10.0232C0.246723 10.3276 0.246723 10.821 0.551072 11.1254Z" fill="#D9D9D9"/>
</svg>
