<?xml version="1.0" encoding="UTF-8" standalone="no"?>
<svg
   viewBox="0 0 31 31"
   fill="none"
   version="1.1"
   id="svg20"
   xmlns="http://www.w3.org/2000/svg"
   xmlns:svg="http://www.w3.org/2000/svg">
  <defs
     id="defs24" />
  <path
     style="color:#000000;fill:#00d2ff;-inkscape-stroke:none"
     d="M 15.039063,0 C 6.7489195,0 0,6.7489195 0,15.039063 c 0,8.290142 6.7489195,15.041015 15.039063,15.041015 8.290142,0 15.041015,-6.750873 15.041015,-15.041015 C 30.080078,6.7489195 23.329205,0 15.039063,0 Z m 0,2.734375 c 6.812289,0 12.30664,5.4923982 12.30664,12.304688 0,6.812289 -5.494351,12.30664 -12.30664,12.30664 -6.8122898,0 -12.304688,-5.494351 -12.304688,-12.30664 0,-6.8122898 5.4923982,-12.304688 12.304688,-12.304688 z"
     id="circle14" />
  <path
     id="rect16"
     transform="matrix(-0.733008 -0.68022 -0.68022 0.733008 21.5234 12.7578)"
     style="fill:#00d2ff"
     d="m 1.36727,0 c 0.7574676,0 1.36727,0.60980242 1.36727,1.36727 v 6.8363399 c 0,0.7574676 -0.6098024,1.36727 -1.36727,1.36727 C 0.60980242,9.5708799 0,8.9610775 0,8.2036099 V 1.36727 C 0,0.60980242 0.60980242,0 1.36727,0 Z" />
  <path
     id="rect18"
     transform="matrix(-0.733008 -0.68022 -0.68022 0.733008 16.873 17.7695)"
     style="fill:#00d2ff"
     d="m 1.36727,0 h 5.46908 c 0.7574675,0 1.36727,0.60980242 1.36727,1.36727 0,0.7574676 -0.6098025,1.36727 -1.36727,1.36727 H 1.36727 C 0.60980242,2.73454 0,2.1247376 0,1.36727 0,0.60980242 0.60980242,0 1.36727,0 Z" />
</svg>
