<svg viewBox="0 0 48 48" fill="none" xmlns="http://www.w3.org/2000/svg">
<path d="M31.292 1.04139C34.2353 1.04139 37.1569 2.28923 39.2033 4.71313C42.8907 9.08016 42.3413 15.6092 37.9746 19.2968C36.0314 20.937 33.6597 21.7391 31.3013 21.7391C28.3587 21.7391 25.4373 20.4913 23.3904 18.0674C19.7007 13.7003 20.2533 7.17027 24.6195 3.48366C26.5626 1.8431 28.9347 1.04139 31.2919 1.04139H31.292ZM31.2931 0.000199544C28.6099 0.000199544 26.0019 0.955184 23.9492 2.68734C21.6244 4.65114 20.2037 7.40187 19.9476 10.4329C19.6914 13.4644 20.6323 16.4147 22.5957 18.7384C24.763 21.3067 27.9372 22.7794 31.3009 22.7794C33.9838 22.7794 36.5925 21.8252 38.646 20.0915C43.4431 16.0395 44.0495 8.83997 39.9983 4.04029C37.8298 1.47325 34.6576 0 31.2931 0V0.000199544Z" fill="white"/>
<path d="M45.246 36.6119C45.246 41.7998 41.0404 46.0054 35.8525 46.0054C30.6646 46.0054 26.459 41.7998 26.459 36.6119C26.459 31.424 30.6646 27.2188 35.8525 27.2188C41.0404 27.2188 45.246 31.424 45.246 36.6119Z" fill="white"/>
<path d="M35.8361 26.2613C38.7787 26.2613 41.7009 27.5083 43.7469 29.9322C47.4347 34.3005 46.8853 40.8293 42.5186 44.5179C40.5758 46.1589 38.2038 46.9598 35.8453 46.9598C32.9027 46.9598 29.9817 45.712 27.9353 43.2877C24.2464 38.921 24.7973 32.3926 29.1643 28.703C31.1071 27.0632 33.478 26.2615 35.836 26.2615L35.8361 26.2613ZM35.8367 25.2207C33.1547 25.2207 30.5459 26.1757 28.494 27.9074C26.1691 29.872 24.7474 32.6223 24.4923 35.6538C24.2369 38.6853 25.1771 41.6348 27.1404 43.9582C29.3078 46.5265 32.4816 47.9992 35.8456 47.9992C38.5289 47.9992 41.1369 47.045 43.1903 45.3113C47.9867 41.2593 48.5938 34.0588 44.5414 29.2611C42.3737 26.6944 39.1999 25.2208 35.8366 25.2208L35.8367 25.2207Z" fill="white"/>
<path d="M4.77088 21.1721C4.64882 21.2981 4.5373 21.4326 4.42188 21.5656L16.3811 35.727C16.5309 35.6365 16.6826 35.5488 16.8261 35.4486C16.9703 35.3507 17.1045 35.2435 17.2437 35.1366L5.14867 20.8145C5.02194 20.9326 4.89209 21.0473 4.77042 21.1724L4.77088 21.1721Z" fill="white"/>
<path d="M3.56397 22.7104C3.46688 22.866 3.37289 23.0239 3.28516 23.1846L14.5866 36.5714C14.7609 36.5098 14.9321 36.4439 15.1009 36.3737C15.2682 36.3054 15.4308 36.2282 15.5938 36.1506L3.86813 22.2617C3.76362 22.4099 3.66068 22.5573 3.56435 22.7105L3.56397 22.7104Z" fill="white"/>
<path d="M2.66725 24.5985C2.60018 24.7915 2.53545 24.9838 2.48047 25.1834L12.4901 37.0369C12.6948 37.0158 12.8949 36.9838 13.0961 36.9503C13.2934 36.9156 13.4884 36.8821 13.6814 36.8368L2.87714 24.041C2.79954 24.2227 2.73481 24.4111 2.66734 24.599L2.66725 24.5985Z" fill="white"/>
<path d="M2.15431 26.9056C2.15314 26.9228 2.1547 26.9407 2.15314 26.9583C2.13248 27.2199 2.12624 27.4769 2.12702 27.7347L9.90573 36.9453C10.158 36.9894 10.4138 37.0264 10.6743 37.0506C10.6915 37.0518 10.7082 37.0557 10.725 37.0572C10.9457 37.0752 11.1621 37.0744 11.3797 37.0791L2.24288 26.2578C2.20856 26.4723 2.17386 26.6852 2.15436 26.9055L2.15431 26.9056Z" fill="white"/>
<path d="M2.52223 30.3345C2.67431 30.8562 2.87163 31.3569 3.10794 31.8366L6.03486 35.3044C6.46966 35.6179 6.93097 35.8963 7.41686 36.1334C7.75456 36.2983 8.10395 36.4407 8.46385 36.5655L2.27148 29.2344C2.33427 29.6083 2.41654 29.9764 2.52222 30.3345L2.52223 30.3345Z" fill="white"/>
<path d="M12.3605 18.341C12.3437 18.3398 12.3281 18.3359 12.3102 18.3343C12.0907 18.3164 11.8735 18.3164 11.6562 18.3125L20.7935 29.1327C20.8274 28.9179 20.8621 28.7022 20.8824 28.4843C20.8828 28.4671 20.8824 28.4507 20.8828 28.4328C20.9035 28.1711 20.9109 27.9145 20.9089 27.6564L13.1298 18.4451C12.8771 18.401 12.6221 18.3647 12.3605 18.3406L12.3605 18.341Z" fill="white"/>
<path d="M15.6248 19.2563C15.2882 19.0921 14.9377 18.949 14.5801 18.8242L20.7724 26.1576C20.7108 25.7829 20.6278 25.4148 20.5225 25.0548C20.37 24.535 20.1731 24.0347 19.9368 23.5551L17.0071 20.0853C16.5723 19.771 16.1121 19.493 15.6247 19.2563L15.6248 19.2563Z" fill="white"/>
<path d="M9.95953 18.442C9.7626 18.4755 9.56607 18.5091 9.37305 18.5551L20.1803 31.3509C20.2567 31.168 20.3234 30.9797 20.3893 30.7909C20.456 30.5979 20.5223 30.4064 20.5777 30.208L10.568 18.3535C10.3629 18.3746 10.1617 18.4069 9.9597 18.4413L9.95953 18.442Z" fill="white"/>
<path d="M7.93431 19.0178C7.76897 19.0872 7.60519 19.1632 7.44336 19.2412L19.171 33.1281C19.2763 32.9811 19.3777 32.8333 19.474 32.6805C19.5719 32.5245 19.6651 32.3669 19.7528 32.2051L8.45143 18.8203C8.27674 18.8811 8.10476 18.947 7.93514 19.0176L7.93431 19.0178Z" fill="white"/>
<path d="M6.22701 19.9409C6.08429 20.0391 5.9482 20.1483 5.81055 20.2544L17.9066 34.5775C18.0345 34.4578 18.1635 34.3432 18.2844 34.2176C18.4065 34.0913 18.5188 33.9571 18.6338 33.8246L6.67457 19.6621C6.52366 19.7534 6.37314 19.8423 6.22729 19.9405L6.22701 19.9409Z" fill="white"/>
<path d="M11.5165 17.3463C14.4591 17.3463 17.3826 18.5941 19.429 21.018C23.116 25.385 22.5662 31.9131 18.1999 35.6017C16.2568 37.2427 13.8851 38.0448 11.5267 38.0448C8.58412 38.0448 5.66189 36.7966 3.61544 34.3719C-0.0738664 30.0048 0.477877 23.4758 4.8449 19.7871C6.78724 18.1474 9.15852 17.3461 11.5165 17.3461V17.3463ZM11.5169 16.3049C8.83408 16.3049 6.2257 17.2599 4.17306 18.9928C1.84859 20.9566 0.427554 23.7066 0.172197 26.7384C-0.0839992 29.7698 0.856949 32.7202 2.82031 35.0435C4.98765 37.612 8.16184 39.0845 11.5259 39.0845C14.2088 39.0845 16.8171 38.1295 18.8698 36.3966C23.6681 32.3446 24.2745 25.1441 20.2225 20.3454C18.0548 17.7779 14.8814 16.3047 11.5169 16.3047V16.3049Z" fill="white"/>
<path d="M24.3301 5.03535C24.389 4.96867 24.4475 4.90238 24.511 4.83842C24.557 4.78968 24.6062 4.74211 24.6553 4.69531L36.7863 19.0614C36.7324 19.1027 36.6782 19.1425 36.6225 19.1811C36.5488 19.2314 36.4731 19.2782 36.3983 19.3254L24.3301 5.03535Z" fill="white"/>
<path d="M23.1152 6.67818C23.1733 6.57874 23.2342 6.48086 23.2942 6.38338C23.3204 6.34127 23.3469 6.30071 23.3738 6.25977L35.0196 20.0509C34.9759 20.0711 34.9311 20.0898 34.8854 20.1086C34.7794 20.1526 34.6725 20.1951 34.5641 20.2353L23.1152 6.67818Z" fill="white"/>
<path d="M22.2559 8.71199C22.2999 8.56615 22.3491 8.42304 22.4001 8.27876C22.4103 8.24951 22.4196 8.22222 22.4294 8.19336L32.9671 20.6707C32.9371 20.6758 32.9075 20.6809 32.8778 20.6848C32.7281 20.7105 32.5776 20.7347 32.4263 20.7546L22.2559 8.71199Z" fill="white"/>
<path d="M30.455 20.7867C30.232 20.7664 30.0117 20.7364 29.7925 20.7001L21.8691 11.3172C21.8695 11.0965 21.8777 10.8734 21.8949 10.6484L21.8964 10.625L30.4793 20.7894L30.455 20.7867Z" fill="white"/>
<path d="M27.0612 19.8163C26.6296 19.5983 26.2076 19.3433 25.8072 19.0559L22.8186 15.5171C22.6022 15.0749 22.4216 14.6175 22.2773 14.1543L27.0612 19.8163Z" fill="white"/>
<path d="M32.1152 1.99023C32.3722 2.01597 32.5925 2.04561 32.8039 2.0807L40.7276 11.464C40.7265 11.6859 40.7187 11.9078 40.7015 12.1332L40.7003 12.1566L32.1152 1.99023Z" fill="white"/>
<path d="M35.5352 2.96484C35.9672 3.18166 36.3895 3.43785 36.7885 3.72408L39.7798 7.26564C39.9935 7.70784 40.1744 8.16525 40.3183 8.62807L35.5352 2.96484Z" fill="white"/>
<path d="M29.6348 2.11157C29.6648 2.1065 29.694 2.10143 29.7248 2.09714C29.8758 2.07102 30.0243 2.04645 30.176 2.02734L40.3464 14.0695C40.3027 14.2153 40.2532 14.3584 40.2033 14.5027C40.192 14.5319 40.1826 14.5596 40.1725 14.5881L29.6348 2.11157Z" fill="white"/>
<path d="M27.5605 2.73014C27.6054 2.71065 27.6498 2.69115 27.6959 2.67243C27.8011 2.62759 27.9099 2.58508 28.0172 2.54492L39.4663 16.1034C39.4082 16.2028 39.3478 16.3011 39.2862 16.3986C39.2608 16.4395 39.2343 16.4813 39.2066 16.5226L27.5605 2.73014Z" fill="white"/>
<path d="M25.8066 3.72102C25.8612 3.67969 25.915 3.63991 25.9708 3.60131C26.0445 3.55101 26.1194 3.50421 26.1954 3.45703L38.2635 17.7463C38.2054 17.8137 38.1434 17.88 38.0833 17.944C38.0354 17.9931 37.987 18.0403 37.9379 18.0859L25.8066 3.72102Z" fill="white"/>
</svg>
