<?xml version="1.0" encoding="UTF-8" standalone="no"?>
<svg
   viewBox="0 0 31 35"
   xmlns="http://www.w3.org/2000/svg"
   xmlns:svg="http://www.w3.org/2000/svg">
  <path d="M 15.039063,4.1015625 C 6.7489195,4.1015625 -1.2126564e-7,10.852435 0,19.142578 c 0,8.290143 6.7489195,15.039063 15.039063,15.039063 8.290142,0 15.041015,-6.74892 15.041015,-15.039063 0,-8.290143 -6.750872,-15.0410155 -15.041015,-15.0410155 z m 0,2.7363281 c 6.812289,0 12.30664,5.4923984 12.30664,12.3046874 0,6.812289 -5.494351,12.304688 -12.30664,12.304688 -6.8122898,0 -12.304688,-5.492399 -12.304688,-12.304688 -10e-8,-6.812289 5.4923981,-12.3046874 12.304688,-12.3046874 z"/>
  <path d="m 15.03947,1.36682 c 0.757468,0 1.36727,0.6098024 1.36727,1.36727 v 4.1018099 c 0,0.7574676 -0.609802,1.36727 -1.36727,1.36727 -0.757467,0 -1.36727,-0.6098024 -1.36727,-1.36727 V 2.73409 c 0,-0.7574676 0.609803,-1.36727 1.36727,-1.36727 z"/>
  <path d="m 15.03947,10.9376 c 0.757468,0 1.36727,0.609803 1.36727,1.36727 v 6.83634 c 0,0.757468 -0.609802,1.36727 -1.36727,1.36727 -0.757467,0 -1.36727,-0.609802 -1.36727,-1.36727 v -6.83634 c 0,-0.757467 0.609803,-1.36727 1.36727,-1.36727 z"/>
  <path d="m 15.03947,17.7745 h 5.46908 c 0.757468,0 1.36727,0.609802 1.36727,1.36727 0,0.757467 -0.609802,1.36727 -1.36727,1.36727 h -5.46908 c -0.757467,0 -1.36727,-0.609803 -1.36727,-1.36727 0,-0.757468 0.609803,-1.36727 1.36727,-1.36727 z"/>
  <path d="m 12.30577,0 h 5.46908 c 0.757468,0 1.36727,0.60980242 1.36727,1.36727 0,0.7574676 -0.609802,1.36727 -1.36727,1.36727 H 12.30577 C 11.548303,2.73454 10.9385,2.1247376 10.9385,1.36727 10.9385,0.60980242 11.548303,0 12.30577,0 Z"/>
  <path transform="rotate(34.5269 23.4504 1.23376)" d="m 24.817669,1.23376 h 2.73454 c 0.757468,0 1.36727,0.6098024 1.36727,1.36727 0,0.7574676 -0.609802,1.36727 -1.36727,1.36727 h -2.73454 c -0.757467,0 -1.36727,-0.6098024 -1.36727,-1.36727 0,-0.7574676 0.609803,-1.36727 1.36727,-1.36727 z"/>
  <path transform="matrix(-0.82386 0.566793 0.566793 0.82386 7.24097 1.23376)" d="m 1.36727,0 h 2.73454 c 0.7574676,0 1.36727,0.60980242 1.36727,1.36727 0,0.7574676 -0.6098024,1.36727 -1.36727,1.36727 H 1.36727 C 0.60980242,2.73454 0,2.1247376 0,1.36727 0,0.60980242 0.60980242,0 1.36727,0 Z"/>
  <path transform="rotate(-90 6.10352e-05 20.5092)" d="m 1.367331,20.509199 c 0.7574676,0 1.36727,0.609803 1.36727,1.36727 v 1.36727 c 0,0.757468 -0.6098024,1.36727 -1.36727,1.36727 -0.75746755,0 -1.3672699648,-0.609802 -1.3672699648,-1.36727 v -1.36727 c 0,-0.757467 0.6098024148,-1.36727 1.3672699648,-1.36727 z"/>
  <path d="m 15.03947,30.08 c 0.757468,0 1.36727,0.609802 1.36727,1.36727 v 1.36727 c 0,0.757467 -0.609802,1.36727 -1.36727,1.36727 -0.757467,0 -1.36727,-0.609803 -1.36727,-1.36727 v -1.36727 c 0,-0.757468 0.609803,-1.36727 1.36727,-1.36727 z"/>
  <path transform="rotate(-90 25.9785 20.5092)" d="m 27.34577,20.509199 c 0.757468,0 1.36727,0.609803 1.36727,1.36727 v 1.36727 c 0,0.757468 -0.609802,1.36727 -1.36727,1.36727 -0.757467,0 -1.36727,-0.609802 -1.36727,-1.36727 v -1.36727 c 0,-0.757467 0.609803,-1.36727 1.36727,-1.36727 z"/>
</svg>
