<svg
   viewBox="0 0 22 22"
   version="1.1"
   xmlns="http://www.w3.org/2000/svg"
   xmlns:svg="http://www.w3.org/2000/svg">
    <path style="fill: none" d="M 21.5,11 A 10.5,10.5 0 0 1 11,21.5 10.5,10.5 0 0 1 0.5,11 10.5,10.5 0 0 1 11,0.5 10.5,10.5 0 0 1 21.5,11 Z"/>
    <path d="M 11,0 C 4.9307961,0 0,4.9307961 0,11 0,17.069204 4.9307961,22 11,22 17.069204,22 22,17.069204 22,11 22,4.9307961 17.069204,0 11,0 Z m 0,1 C 16.528764,1 21,5.4712357 21,11 21,16.528764 16.528764,21 11,21 5.4712357,21 1,16.528764 1,11 1,5.4712357 5.4712357,1 11,1 Z"/>
    <path style="fill: none" d="M 9.5,5.5 V 12 c 0,0.5523 0.44772,1 1,1 H 15"/>
    <path d="M 9.5,5 A 0.5,0.5 0 0 0 9,5.5 V 12 c 0,0.822515 0.6775076,1.5 1.5,1.5 H 15 A 0.5,0.5 0 0 0 15.5,13 0.5,0.5 0 0 0 15,12.5 H 10.5 C 10.217933,12.5 10,12.282084 10,12 V 5.5 A 0.5,0.5 0 0 0 9.5,5 Z"/>
</svg>
