<svg viewBox="0 0 32 32" xmlns="http://www.w3.org/2000/svg">
<path d="M0.705 30.316c0.938 0.938 2.458 0.941 3.399 0.007l9.021-8.95c1.59-1.578 4.156-1.578 5.746 0l9.021 8.95c0.942 0.934 2.461 0.931 3.399-0.007 0.94-0.941 0.94-2.465 0-3.406l-12.409-12.409c-1.593-1.593-4.176-1.593-5.769 0l-12.409 12.409c-0.941 0.941-0.941 2.465 0 3.406z"></path>
<path d="M31.295 1.684c-0.938-0.938-2.458-0.941-3.399-0.007l-9.021 8.95c-1.59 1.578-4.156 1.578-5.746 0l-9.021-8.95c-0.942-0.934-2.461-0.931-3.399 0.007-0.941 0.94-0.941 2.465 0 3.406l12.409 12.409c1.593 1.593 4.176 1.593 5.769 0l12.409-12.409c0.94-0.941 0.94-2.465 0-3.406z"></path>
</svg>
