<svg width="22" height="14" viewBox="0 0 22 14" fill="none" xmlns="http://www.w3.org/2000/svg">
<path d="M1.60129 1H20.3987C20.7309 1 21 1.3322 21 1.60129V12.4372C21 12.7694 20.7307 13.0385 20.3987 13.0385H1.60129C1.26909 13.0385 1 12.7063 1 12.4372V1.60129C1 1.26909 1.26929 1 1.60129 1V1Z" stroke="#D9D9D9" stroke-width="0.5" stroke-miterlimit="10"/>
<path d="M4.28613 1V1.60151" stroke="#D9D9D9" stroke-width="0.300662" stroke-miterlimit="10"/>
<path d="M4.28613 2.17261V12.1519" stroke="#D9D9D9" stroke-width="0.300662" stroke-miterlimit="10" stroke-dasharray="1.14 0.57"/>
<path d="M4.28613 12.4373V13.0388" stroke="#D9D9D9" stroke-width="0.300662" stroke-miterlimit="10"/>
<path d="M11.1382 5.67827C11.1382 6.50521 10.6199 7.17551 9.9807 7.17551C9.34146 7.17551 8.82324 6.50521 8.82324 5.67827C8.82324 4.85133 9.34146 4.18103 9.9807 4.18103C10.6199 4.18103 11.1382 4.85133 11.1382 5.67827Z" stroke="#D9D9D9" stroke-width="0.601325" stroke-miterlimit="10" stroke-linecap="round"/>
<path d="M15.5822 8.36027C15.5822 9.18722 15.064 9.85751 14.4248 9.85751C13.7853 9.85751 13.2671 9.18722 13.2671 8.36027C13.2671 7.53333 13.7853 6.86304 14.4248 6.86304C15.064 6.86304 15.5822 7.53333 15.5822 8.36027Z" stroke="#D9D9D9" stroke-width="0.601325" stroke-miterlimit="10" stroke-linecap="round"/>
<path d="M10.104 9.61394L14.2201 4.44556" stroke="#D9D9D9" stroke-width="0.601325" stroke-miterlimit="10" stroke-linecap="round"/>
</svg>
