<svg width="22" height="15" viewBox="0 0 22 15" fill="none" xmlns="http://www.w3.org/2000/svg">
<path d="M9.31032 8.91702L9.31032 8.91699C9.29765 8.78141 9.39221 8.66054 9.52438 8.63834L9.52468 8.63668L9.54458 8.63578L9.31032 8.91702ZM9.31032 8.91702C9.32373 9.0586 9.44891 9.16259 9.59025 9.15001M9.31032 8.91702L9.58912 9.12501M18.5944 9.07607L18.5944 9.0761C18.5455 9.1243 18.4792 9.15103 18.4103 9.15001M18.5944 9.07607L18.4105 9.12501M18.5944 9.07607C18.6434 9.02767 18.671 8.96169 18.671 8.89296C18.671 8.82411 18.6434 8.75812 18.5944 8.70986V9.07607ZM18.4103 9.15001C18.4103 9.15001 18.4102 9.15001 18.4102 9.15001L18.4105 9.12501M18.4103 9.15001H18.4105V9.12501M18.4103 9.15001H9.59025M18.4105 9.12501H9.58912M9.59025 9.15001C9.59065 9.14997 9.59105 9.14994 9.59144 9.1499L9.58912 9.12501M9.59025 9.15001H9.58912V9.12501M18.4104 8.63575H18.4105V8.66075L18.4102 8.63575C18.4103 8.63575 18.4103 8.63575 18.4104 8.63575ZM18.4104 8.63575H9.58967H18.4104ZM9.31032 11.2384L9.31032 11.2384C9.29764 11.1027 9.39236 10.9818 9.52472 10.9597L9.52504 10.9581L9.54458 10.9572L9.31032 11.2384ZM9.31032 11.2384C9.32373 11.38 9.44891 11.484 9.59025 11.4714M9.31032 11.2384L9.58912 11.4464M16.273 11.3975L16.273 11.3975C16.224 11.4457 16.1578 11.4725 16.0889 11.4714M16.273 11.3975L16.0891 11.4464M16.273 11.3975C16.3219 11.3491 16.3496 11.2831 16.3496 11.2144M16.273 11.3975L16.3496 11.2144M16.0889 11.4714C16.0889 11.4714 16.0888 11.4714 16.0887 11.4714L16.0891 11.4464M16.0889 11.4714H16.0891V11.4464M16.0889 11.4714H9.59025M16.0891 11.4464H9.58912M9.59025 11.4714C9.59065 11.4714 9.59105 11.4714 9.59144 11.4713L9.58912 11.4464M9.59025 11.4714H9.58912V11.4464M16.273 11.0313C16.224 10.9828 16.1577 10.9563 16.0889 10.9572C16.0889 10.9572 16.0888 10.9572 16.0888 10.9572L16.0891 10.9822L16.273 11.0313ZM16.273 11.0313C16.3219 11.0795 16.3496 11.1455 16.3496 11.2144M16.273 11.0313L16.3496 11.2144M2.16071 1.48924C2.16074 1.48924 2.16077 1.48924 2.1608 1.48924H19.8036C20.1795 1.48924 20.475 1.78475 20.475 2.16071V3.52865H1.48933V2.16071C1.48933 1.78479 1.78478 1.48929 2.16071 1.48924ZM2.16071 0.975C1.50793 0.975 0.975 1.50793 0.975 2.16071V12.8393C0.975 13.4921 1.50793 14.025 2.16071 14.025H19.8036C20.4564 14.025 20.9893 13.4921 20.9893 12.8393V2.16071C20.9893 1.50793 20.4564 0.975 19.8036 0.975H2.16071ZM9.58912 10.9822L9.59025 10.9572C9.59006 10.9572 9.58987 10.9572 9.58967 10.9572H9.58912V10.9822ZM1.48924 4.0429H20.475V6.31433H1.48924V4.0429ZM1.48924 6.82857H20.475V12.8393C20.475 13.2152 20.1795 13.5108 19.8035 13.5108H2.16063C1.78467 13.5108 1.48916 13.2153 1.48916 12.8393L1.48924 6.82857Z" fill="#D9D9D9" stroke="#D9D9D9" stroke-width="0.05"/>
</svg>
