<svg viewBox="0 0 22 24" xmlns="http://www.w3.org/2000/svg">
<path d="M1.16886 1.16997C0.524491 1.81433 0.522444 2.85842 1.16428 3.50531L7.31351 9.70296C8.39759 10.7956 8.39759 12.558 7.31351 13.6506L1.16428 19.8483C0.522446 20.4952 0.524491 21.5393 1.16886 22.1836C1.81501 22.8298 2.86264 22.8298 3.5088 22.1836L12.034 13.6584C13.1284 12.564 13.1284 10.7896 12.034 9.69518L3.5088 1.16997C2.86264 0.523813 1.81501 0.523813 1.16886 1.16997Z" />
<path d="M1.16886 1.16997C0.524491 1.81433 0.522444 2.85842 1.16428 3.50531L7.31351 9.70296C8.39759 10.7956 8.39759 12.558 7.31351 13.6506L1.16428 19.8483C0.522446 20.4952 0.524491 21.5393 1.16886 22.1836C1.81501 22.8298 2.86264 22.8298 3.5088 22.1836L12.034 13.6584C13.1284 12.564 13.1284 10.7896 12.034 9.69518L3.5088 1.16997C2.86264 0.523813 1.81501 0.523813 1.16886 1.16997Z" />
<path d="M20.8311 1.35845C21.4755 2.00281 21.4776 3.0469 20.8357 3.69379L14.6865 9.89144C13.6024 10.9841 13.6024 12.7465 14.6865 13.8391L20.8357 20.0368C21.4776 20.6836 21.4755 21.7277 20.8311 22.3721C20.185 23.0183 19.1374 23.0183 18.4912 22.3721L9.96599 13.8469C8.87158 12.7525 8.87158 10.9781 9.96599 9.88366L18.4912 1.35845C19.1374 0.71229 20.185 0.71229 20.8311 1.35845Z" />
</svg>
