<svg viewBox="0 0 55 55" version="1.1" xmlns="http://www.w3.org/2000/svg" xmlns:svg="http://www.w3.org/2000/svg">
    <path d="M31.3303 23.4377C31.0884 23.1957 30.6964 23.195 30.4535 23.4359L28.1267 25.7446C27.7165 26.1516 27.0549 26.1516 26.6447 25.7446L24.3179 23.4359C24.075 23.195 23.683 23.1957 23.4411 23.4377C23.1985 23.6802 23.1985 24.0736 23.4411 24.3161L26.6417 27.5168C27.0526 27.9277 27.7188 27.9277 28.1297 27.5168L31.3303 24.3161C31.5729 24.0736 31.5729 23.6802 31.3303 23.4377Z"/>
    <path d="M23.4392 31.8231C23.6812 32.065 24.0731 32.0658 24.316 31.8248L26.6428 29.5162C27.053 29.1092 27.7147 29.1092 28.1249 29.5162L30.4517 31.8248C30.6945 32.0658 31.0865 32.065 31.3284 31.8231C31.571 31.5805 31.571 31.1872 31.3284 30.9446L28.1278 27.744C27.7169 27.3331 27.0508 27.3331 26.6399 27.744L23.4392 30.9446C23.1967 31.1872 23.1967 31.5805 23.4392 31.8231Z"/>
    <path style="fill:url(#paint0_linear_1965_13213);" d="M 27.5,0 C 12.318107,0 0,12.318107 0,27.5 0,42.681893 12.318107,55 27.5,55 42.681893,55 55,42.681893 55,27.5 55,12.318107 42.681893,0 27.5,0 Z m 0,1 C 42.141454,1 54,12.858546 54,27.5 54,42.141454 42.141454,54 27.5,54 12.858546,54 1,42.141454 1,27.5 1,12.858546 12.858546,1 27.5,1 Z"/>
    <linearGradient
            style="color: inherit"
            id="paint0_linear_1965_13213"
            x1="43"
            y1="24"
            x2="12"
            y2="7"
            gradientUnits="userSpaceOnUse">
        <stop class="icon-stop-gradient" stop-color="inherit"/>
        <stop offset="1" class="icon-stop-gradient" stop-color="inherit" stop-opacity="0"/>
    </linearGradient>
</svg>
