<?xml version="1.0" encoding="UTF-8" standalone="no"?>
<svg viewBox="0 0 44 59" version="1.1" xmlns="http://www.w3.org/2000/svg" xmlns:svg="http://www.w3.org/2000/svg">
  <path d="M 4.2304687,45.15625 C 2.4492726,45.15625 1,46.607475 1,48.388672 v 6.460937 c 0,1.781197 1.4492726,3.230469 3.2304687,3.230469 H 39.769531 C 41.550728,58.080078 43,56.630806 43,54.849609 V 48.388672 C 43,46.607475 41.550728,45.15625 39.769531,45.15625 Z m 0,1 H 39.769531 C 41.014026,46.15625 42,47.144177 42,48.388672 v 6.460937 c 0,1.244495 -0.985974,2.230469 -2.230469,2.230469 H 4.2304687 C 2.9859747,57.080078 2,56.094104 2,54.849609 V 48.388672 C 2,47.144177 2.9859747,46.15625 4.2304687,46.15625 Z"/>
  <path d="m 22,18.310547 c -8.023416,0 -14.5390625,6.515648 -14.5390625,14.539062 V 45.773437 H 36.537109 V 32.849609 C 36.537109,24.826193 30.023416,18.310547 22,18.310547 Z m 0,1 c 7.482969,0 13.537109,6.056094 13.537109,13.539062 V 44.773437 H 8.4609375 V 32.849609 C 8.4609375,25.366639 14.517031,19.310547 22,19.310547 Z"/>
  <path d="m 22,12.964844 c -5.701912,0 -11.171254,2.264942 -15.203125,6.296875 C 2.7649898,23.293645 0.5,28.762932 0.5,34.464844 a 0.5,0.5 0 0 0 0.5,0.5 0.5,0.5 0 0 0 0.5,-0.5 C 1.5,29.027767 3.6592793,23.813416 7.5039062,19.96875 11.348507,16.12409 16.562923,13.964844 22,13.964844 c 5.437077,0 10.651534,2.159248 14.496094,6.003906 C 40.34076,23.813416 42.5,29.027767 42.5,34.464844 a 0.5,0.5 0 0 0 0.5,0.5 0.5,0.5 0 0 0 0.5,-0.5 C 43.5,28.762932 41.235051,23.293645 37.203125,19.261719 33.171293,15.229784 27.701912,12.964844 22,12.964844 Z"/>
  <path d="M 22.566406,8.1269531 C 19.574537,8.0481712 16.598451,8.5951675 13.830078,9.7324219 11.061617,10.869763 8.5607745,12.571157 6.4882812,14.730469 a 0.5,0.5 0 0 0 0.015625,0.707031 0.5,0.5 0 0 0 0.7050782,-0.01367 c 1.9761027,-2.058884 4.3602666,-3.683121 6.9999996,-4.767578 2.639622,-1.0843634 5.477353,-1.6044148 8.330078,-1.5292969 2.852727,0.075118 5.659385,0.7449787 8.238282,1.9667969 2.579009,1.221806 4.87327,2.966938 6.738281,5.126953 a 0.5,0.5 0 0 0 0.705078,0.05273 0.5,0.5 0 0 0 0.05273,-0.705078 C 36.317452,13.302979 33.909864,11.470845 31.205078,10.189453 28.500381,8.9080338 25.558273,8.205735 22.566406,8.1269531 Z"/>
  <path d="m 21.849609,3.8144531 c -2.823348,0.019381 -5.615721,0.5950128 -8.216796,1.6933594 a 0.5,0.5 0 0 0 -0.265625,0.65625 0.5,0.5 0 0 0 0.65625,0.265625 c 2.480119,-1.0472713 5.141938,-1.5967551 7.833984,-1.6152344 2.692046,-0.01847 5.361195,0.4946791 7.855469,1.5078125 A 0.5,0.5 0 0 0 30.363281,6.046875 0.5,0.5 0 0 0 30.087891,5.3945312 C 27.47197,4.3319868 24.672958,3.7950827 21.849609,3.8144531 Z"/>
  <path d="M 22.5,39 A 0.5,0.5 0 0 0 22,39.5 v 2 A 0.5,0.5 0 0 0 22.5,42 0.5,0.5 0 0 0 23,41.5 v -2 A 0.5,0.5 0 0 0 22.5,39 Z"/>
  <path d="M 22.5,39 A 0.5,0.5 0 0 0 22,39.5 v 2 A 0.5,0.5 0 0 0 22.5,42 0.5,0.5 0 0 0 23,41.5 v -2 A 0.5,0.5 0 0 0 22.5,39 Z"/>
  <path d="M 22.5,23 A 0.5,0.5 0 0 0 22,23.5 v 12 A 0.5,0.5 0 0 0 22.5,36 0.5,0.5 0 0 0 23,35.5 v -12 A 0.5,0.5 0 0 0 22.5,23 Z"/>
  <path d="M 22.5,23 A 0.5,0.5 0 0 0 22,23.5 v 12 A 0.5,0.5 0 0 0 22.5,36 0.5,0.5 0 0 0 23,35.5 v -12 A 0.5,0.5 0 0 0 22.5,23 Z"/>
</svg>
