<?xml version="1.0" encoding="UTF-8" standalone="no"?>
<svg viewBox="0 0 25 26" version="1.1" id="svg330" xmlns="http://www.w3.org/2000/svg" xmlns:svg="http://www.w3.org/2000/svg">
    <path d="M18.5538 7.09031C19.8766 8.41315 20.7404 10.1253 21.0184 11.9753C21.2964 13.8253 20.9739 15.7157 20.0982 17.3689C19.2225 19.022 17.8399 20.3509 16.1532 21.1603C14.4666 21.9697 12.5649 22.2169 10.7274 21.8658C8.88988 21.5146 7.21338 20.5835 5.94407 19.2092C4.67476 17.8349 3.87954 16.0899 3.67519 14.2303C3.47083 12.3707 3.86811 10.4946 4.80869 8.87749C5.74926 7.26036 7.18356 5.98742 8.90097 5.24559L12.3692 13.2749L18.5538 7.09031Z"/>
    <path d="m 12.369141,3.5566406 c -5.3563547,3e-7 -9.7187506,4.3623957 -9.7187504,9.7187504 0,5.356354 4.3623958,9.718749 9.7187504,9.71875 5.356354,0 9.71875,-4.362396 9.71875,-9.71875 0,-5.3563549 -4.362396,-9.7187504 -9.71875,-9.7187504 z m 0,1.8730469 c 4.343457,0 7.84375,3.5022459 7.84375,7.8457035 0,4.343457 -3.500293,7.84375 -7.84375,7.84375 -4.3434574,-10e-7 -7.8437504,-3.500293 -7.8437504,-7.84375 -2e-7,-4.3434575 3.5002929,-7.8457033 7.8437504,-7.8457035 z" transform="rotate(-90 12.369 13.275)" />
</svg>
