<svg viewBox="0 0 50 73"
   xmlns="http://www.w3.org/2000/svg"
   xmlns:svg="http://www.w3.org/2000/svg">
    <path class="body-arrow" d="m 45.9613,13.1703 c 0.9146,0.9611 0.2333,2.5498 -1.0934,2.5498 h -2.6714 c -1.3859,0 -2.5094,1.1234 -2.5094,2.5093 v 34.3745 c 0,0.8336 -0.6757,1.5094 -1.5093,1.5094 h -6.7083 c -0.8335,0 -1.5093,-0.6758 -1.5093,-1.5094 V 18.2294 c 0,-1.3859 -1.1235,-2.5093 -2.5093,-2.5093 H 24.768 c -1.3254,0 -2.0072,-1.5861 -1.0953,-2.5479 L 33.7048,2.59195 c 0.5945,-0.627 1.5931,-0.62789 2.1887,-0.00194 z"/>
    <path class="stroke-arrow" d="M 34.798828,1.625 C 34.267244,1.6254716 33.73514,1.8332001 33.341797,2.2480469 L 23.310547,12.828125 c -0.593176,0.625634 -0.682054,1.493297 -0.388672,2.175781 0.293382,0.682485 0.983555,1.216797 1.845703,1.216797 h 2.683594 c 1.115582,0 2.009765,0.892135 2.009765,2.007813 v 34.375 c 0,1.103832 0.904048,2.009765 2.007813,2.009765 h 6.708984 c 1.103833,0 2.009766,-0.905973 2.009766,-2.009765 v -34.375 c 0,-1.115678 0.894064,-2.007813 2.009766,-2.007813 h 2.669921 c 0.86293,0 1.554672,-0.535526 1.847657,-1.21875 0.292984,-0.683224 0.204258,-1.550652 -0.390625,-2.175781 L 36.255859,2.2460938 C 35.861785,1.8319386 35.330412,1.6245284 34.798828,1.625 Z m 0,0.9921875 c 0.26524,-2.359e-4 0.530897,0.1065651 0.732422,0.3183594 L 45.599609,13.515625 c 0.319716,0.33597 0.346003,0.74235 0.195313,1.09375 -0.15069,0.3514 -0.463965,0.611328 -0.927735,0.611328 h -2.669921 c -1.656096,0 -3.009766,1.351693 -3.009766,3.007813 v 34.375 c 0,0.563406 -0.4464,1.009765 -1.009766,1.009765 H 31.46875 c -0.563233,0 -1.007812,-0.446399 -1.007813,-1.009765 v -34.375 c 0,-1.65612 -1.35375,-3.007813 -3.009765,-3.007813 h -2.683594 c -0.46325,0 -0.776842,-0.260313 -0.927734,-0.611328 -0.150892,-0.351015 -0.123411,-0.757585 0.195312,-1.09375 L 34.068359,2.9355469 c 0.201156,-0.2121526 0.465229,-0.3181235 0.730469,-0.3183594 z"/>
    <path class="body-arrow" d="m 25.8676,59.8649 c 0.9145,-0.9611 0.2332,-2.5498 -1.0934,-2.5498 h -2.6715 c -1.3858,0 -2.5093,-1.1235 -2.5093,-2.5093 V 20.4312 c 0,-0.8336 -0.6758,-1.5093 -1.5094,-1.5093 h -6.7082 c -0.8336,0 -1.50935,0.6757 -1.50935,1.5093 v 34.3746 c 0,1.3858 -1.12347,2.5093 -2.50934,2.5093 H 4.67423 c -1.32541,0 -2.00721,1.586 -1.09525,2.5478 L 13.6111,70.4432 c 0.5945,0.627 1.593,0.6279 2.1887,0.0019 z"/>
    <path class="stroke-arrow" d="m 11.375,18.421875 c -1.103792,0 -2.0078125,0.905953 -2.0078125,2.009766 v 34.375 c 0,1.115565 -0.8941241,2.007812 -2.0097656,2.007812 H 4.6738281 c -0.8621393,0 -1.5523206,0.534326 -1.8457031,1.216797 -0.2933825,0.682471 -0.20453,1.55016 0.3886719,2.175781 L 13.248047,70.787109 c 0.786666,0.829672 2.125854,0.830254 2.914062,0.002 l 10.06836,-10.580078 c 0.594829,-0.62514 0.683604,-1.49257 0.390625,-2.175781 -0.29298,-0.683211 -0.984762,-1.21875 -1.847657,-1.21875 h -2.669921 c -1.115558,0 -2.009766,-0.892255 -2.009766,-2.007812 v -34.375 c 0,-1.103833 -0.905973,-2.009766 -2.009766,-2.009766 z m 0,1 h 6.708984 c 0.563406,0 1.009766,0.4464 1.009766,1.009766 v 34.375 c 0,1.656039 1.353726,3.007812 3.009766,3.007812 h 2.669921 c 0.463705,0 0.77704,0.259916 0.927735,0.611328 0.150695,0.351413 0.124357,0.757791 -0.195313,1.09375 L 15.4375,70.099609 c -0.40319,0.423699 -1.060558,0.424328 -1.462891,0 L 3.9414063,59.519531 C 3.622649,59.183353 3.5952142,58.776759 3.7460938,58.425781 3.8969733,58.074803 4.2105587,57.814453 4.6738281,57.814453 h 2.6835938 c 1.6560957,0 3.0097661,-1.35178 3.0097661,-3.007812 v -34.375 c 0,-0.563386 0.444406,-1.009766 1.007812,-1.009766 z"/>
</svg>
