<svg viewBox="0 0 40 44" xmlns="http://www.w3.org/2000/svg">
<path d="M37.3034 29.4379C36.7208 29.4379 36.2455 29.6143 35.8775 29.9669C35.5095 30.3195 35.3255 30.8025 35.3255 31.4158V37.3034C35.3255 37.886 35.1492 38.3536 34.7966 38.7063C34.4439 39.0589 33.9763 39.2353 33.3937 39.2353H5.88759C5.30496 39.2353 4.83733 39.0589 4.48469 38.7063C4.13204 38.3536 3.95572 37.886 3.95572 37.3034V31.4158C3.95572 30.8025 3.77174 30.3195 3.40376 29.9669C3.03579 29.6143 2.56049 29.4379 1.97786 29.4379C1.39523 29.4379 0.919937 29.6143 0.551961 29.9669C0.183985 30.3195 0 30.8025 0 31.4158V37.3034C0 38.9593 0.567288 40.3545 1.70188 41.4891C2.83647 42.6237 4.2317 43.191 5.88759 43.191H33.3937C35.0496 43.191 36.4448 42.6237 37.5794 41.4891C38.714 40.3545 39.2812 38.9593 39.2812 37.3034V31.4158C39.2812 30.8025 39.0973 30.3195 38.7293 29.9669C38.3613 29.6143 37.886 29.4379 37.3034 29.4379ZM18.2607 30.8178C18.3527 30.9098 18.4524 30.9942 18.5597 31.0708C18.667 31.1475 18.7667 31.1858 18.8587 31.1858C18.9507 31.3085 19.081 31.3775 19.2497 31.3928C19.4183 31.4081 19.5486 31.4158 19.6406 31.4158C19.7326 31.4158 19.8629 31.4081 20.0316 31.3928C20.2003 31.3775 20.3306 31.3085 20.4226 31.1858C20.5146 31.0938 20.6142 31.0325 20.7215 31.0018C20.8289 30.9712 20.9285 30.9098 21.0205 30.8178L28.886 22.9524C29.254 22.5538 29.4379 22.0938 29.4379 21.5725C29.4379 21.0512 29.254 20.5912 28.886 20.1926C28.4873 19.8246 28.0274 19.6406 27.5061 19.6406C26.9848 19.6406 26.5248 19.8246 26.1262 20.1926L21.6185 24.7463V1.97786C21.6185 1.36457 21.4345 0.881607 21.0665 0.528963C20.6985 0.176319 20.2233 0 19.6406 0C19.058 0 18.5827 0.176319 18.2147 0.528963C17.8467 0.881607 17.6628 1.36457 17.6628 1.97786V24.7463L13.1551 20.1926C12.7564 19.8246 12.2965 19.6406 11.7752 19.6406C11.2539 19.6406 10.7939 19.8246 10.3953 20.1926C10.0273 20.5912 9.84331 21.0512 9.84331 21.5725C9.84331 22.0938 10.0273 22.5538 10.3953 22.9524L18.2607 30.8178Z"/>
</svg>
