<?xml version="1.0" encoding="UTF-8" standalone="no"?>
<svg
        viewBox="0 0 81 73"
        xmlns="http://www.w3.org/2000/svg"
        xmlns:svg="http://www.w3.org/2000/svg">
    <path d="M64.1883 15.0398L63.7653 15.4845C63.2827 15.9918 63.2437 16.7758 63.6736 17.3286C64.0101 17.7611 64.566 17.9606 65.1006 17.8405L65.6526 17.7166C65.9111 17.6586 66.1577 17.5564 66.3816 17.4146L71.3928 14.2409C72.2789 13.6797 73.123 13.0548 73.9183 12.371L76.2214 10.3912C76.6171 10.051 76.6399 9.44613 76.2709 9.07715C76.0115 8.81768 75.6201 8.74248 75.2829 8.88733L72.8101 9.94972C71.4926 10.5158 70.2206 11.1824 69.0054 11.9436L64.6005 14.703C64.4496 14.7976 64.3111 14.9107 64.1883 15.0398Z"/>
    <path d="M60.6613 15.2624L61.0843 15.7071C61.5669 16.2145 61.6059 16.9985 61.176 17.5512C60.8396 17.9838 60.2837 18.1832 59.749 18.0632L59.197 17.9393C58.9385 17.8812 58.6919 17.7791 58.468 17.6373L53.4568 14.4635C52.5707 13.9023 51.7266 13.2774 50.9313 12.5937L48.6282 10.6138C48.2325 10.2737 48.2097 9.66879 48.5787 9.29981C48.8381 9.04033 49.2295 8.96514 49.5667 9.10999L52.0395 10.1724C53.357 10.7384 54.629 11.405 55.8442 12.1663L60.2491 14.9257C60.4 15.0202 60.5385 15.1333 60.6613 15.2624Z"/>
    <path d="M61.0668 21.3904L61.2119 20.794C61.3775 20.1137 62.0158 19.6567 62.7132 19.7192C63.259 19.7681 63.7275 20.1277 63.9158 20.6423L64.1102 21.1735C64.2013 21.4224 64.2488 21.685 64.2507 21.95L64.2929 27.8816C64.3003 28.9304 64.2315 29.9783 64.0868 31.0172L63.6678 34.0252C63.5958 34.5421 63.0995 34.8885 62.5895 34.7778C62.2309 34.7 61.9559 34.4115 61.8953 34.0496L61.4509 31.3952C61.2141 29.9809 61.0865 28.5505 61.0692 27.1167L61.0066 21.9192C61.0044 21.7411 61.0247 21.5635 61.0668 21.3904Z"/>
    <path d="M 62.220703,0.96484375 V 18.259766 h 0.421875 V 0.96484375 Z"/>
    <path d="m 62.517578,18.048828 v 0.421875 h 17.740234 v -0.421875 z"/>
    <path d="m 63.631131,18.259899 a 1.1876301,1.1876301 0 0 1 -1.18763,1.18763 1.1876301,1.1876301 0 0 1 -1.187631,-1.18763 1.1876301,1.1876301 0 0 1 1.187631,-1.18763 1.1876301,1.1876301 0 0 1 1.18763,1.18763 z" />
    <path d="M 62.740234,0.51953125 C 52.947613,0.51953182 45,8.4671442 45,18.259766 45.000001,28.052387 52.947613,35.999999 62.740234,36 c 9.792622,0 17.740234,-7.947613 17.740235,-17.740234 0,-9.7926222 -7.947613,-17.74023475 -17.740235,-17.74023475 z m 0,0.84570315 c 9.336074,0 16.894531,7.5584576 16.894532,16.8945316 -10e-7,9.336073 -7.558458,16.894531 -16.894532,16.894531 -9.336073,-10e-7 -16.89453,-7.558458 -16.894531,-16.894531 0,-9.3360736 7.558458,-16.8945311 16.894531,-16.8945316 z"/>
    <path d="M 63.408422,0.89072198 A 0.89072198,0.89072198 0 0 1 62.5177,1.781444 0.89072198,0.89072198 0 0 1 61.626978,0.89072198 0.89072198,0.89072198 0 0 1 62.5177,0 0.89072198,0.89072198 0 0 1 63.408422,0.89072198 Z" />
    <path d="M64.1883 57.9602L63.7653 57.5155C63.2827 57.0082 63.2437 56.2242 63.6736 55.6714C64.0101 55.2389 64.566 55.0394 65.1006 55.1595L65.6526 55.2834C65.9111 55.3414 66.1577 55.4436 66.3816 55.5854L71.3928 58.7591C72.2789 59.3203 73.123 59.9452 73.9183 60.629L76.2214 62.6088C76.6171 62.949 76.6399 63.5539 76.2709 63.9228C76.0115 64.1823 75.6201 64.2575 75.2829 64.1127L72.8101 63.0503C71.4926 62.4842 70.2206 61.8176 69.0054 61.0564L64.6005 58.297C64.4496 58.2024 64.3111 58.0893 64.1883 57.9602Z"/>
    <path d="M60.6613 57.7376L61.0843 57.2929C61.5669 56.7855 61.6059 56.0015 61.176 55.4488C60.8396 55.0162 60.2837 54.8168 59.749 54.9368L59.197 55.0607C58.9385 55.1188 58.6919 55.2209 58.468 55.3627L53.4568 58.5365C52.5707 59.0977 51.7266 59.7226 50.9313 60.4063L48.6282 62.3862C48.2325 62.7263 48.2097 63.3312 48.5787 63.7002C48.8381 63.9597 49.2295 64.0349 49.5667 63.89L52.0395 62.8276C53.357 62.2616 54.629 61.595 55.8442 60.8337L60.2491 58.0743C60.4 57.9798 60.5385 57.8667 60.6613 57.7376Z"/>
    <path d="M61.0668 51.6096L61.2119 52.206C61.3775 52.8863 62.0158 53.3433 62.7132 53.2808C63.259 53.2319 63.7275 52.8723 63.9158 52.3577L64.1102 51.8265C64.2013 51.5776 64.2488 51.315 64.2507 51.05L64.2929 45.1184C64.3003 44.0696 64.2315 43.0217 64.0868 41.9828L63.6678 38.9748C63.5958 38.4579 63.0995 38.1115 62.5895 38.2222C62.2309 38.3 61.9559 38.5885 61.8953 38.9504L61.4509 41.6048C61.2141 43.0191 61.0865 44.4495 61.0692 45.8833L61.0066 51.0808C61.0044 51.2589 61.0247 51.4365 61.0668 51.6096Z"/>
    <path d="M 0,-0.421875 V 0 h 17.294922 v -0.421875 z" transform="matrix(0 -1 -1 0 62.2207 72.0352)" />
    <path d="m 62.517578,54.529297 v 0.421875 h 17.740234 v -0.421875 z"/>
    <path transform="matrix(1 0 0 -1 62.4435 54.7401)" d="M 1.1876301,0 A 1.1876301,1.1876301 0 0 1 0,1.1876301 1.1876301,1.1876301 0 0 1 -1.1876301,0 1.1876301,1.1876301 0 0 1 0,-1.1876301 1.1876301,1.1876301 0 0 1 1.1876301,0 Z" />
    <path d="m 0,-17.740234 c -9.7926219,0 -17.740234,7.9476121 -17.740234,17.740234 0,9.7926219 7.9476121,17.740234 17.740234,17.740234 C 9.7926219,17.740234 17.740234,9.7926219 17.740234,0 17.740234,-9.7926219 9.7926219,-17.740234 0,-17.740234 Z m 0,0.845703 c 9.3360737,0 16.894531,7.5584573 16.894531,16.894531 0,9.3360737 -7.5584573,16.894531 -16.894531,16.894531 -9.3360737,0 -16.894531,-7.5584573 -16.894531,-16.894531 0,-9.3360737 7.5584573,-16.894531 16.894531,-16.894531 z" transform="matrix(1 0 0 -1 62.7402 54.7403)" />
    <path transform="matrix(1 0 0 -1 62.5177 72.1093)" d="M 0.89072198,0 A 0.89072198,0.89072198 0 0 1 0,0.89072198 0.89072198,0.89072198 0 0 1 -0.89072198,0 0.89072198,0.89072198 0 0 1 0,-0.89072198 0.89072198,0.89072198 0 0 1 0.89072198,0 Z" />
    <path d="M16.2921 15.0398L16.7151 15.4845C17.1978 15.9918 17.2367 16.7758 16.8068 17.3286C16.4704 17.7611 15.9145 17.9606 15.3798 17.8405L14.8279 17.7166C14.5693 17.6586 14.3227 17.5564 14.0989 17.4146L9.08764 14.2409C8.20155 13.6797 7.35749 13.0548 6.56213 12.371L4.25905 10.3912C3.86335 10.051 3.84055 9.44613 4.20953 9.07715C4.46901 8.81768 4.86039 8.74248 5.19755 8.88733L7.67035 9.94972C8.98785 10.5158 10.2598 11.1824 11.475 11.9436L15.8799 14.703C16.0309 14.7976 16.1694 14.9107 16.2921 15.0398Z"/>
    <path d="M19.8192 15.2624L19.3962 15.7071C18.9136 16.2145 18.8746 16.9985 19.3045 17.5512C19.6409 17.9838 20.1968 18.1832 20.7315 18.0632L21.2835 17.9393C21.542 17.8812 21.7886 17.7791 22.0125 17.6373L27.0237 14.4635C27.9098 13.9023 28.7538 13.2774 29.5492 12.5937L31.8523 10.6138C32.248 10.2737 32.2708 9.66879 31.9018 9.29981C31.6423 9.04033 31.2509 8.96514 30.9138 9.10999L28.441 10.1724C27.1235 10.7384 25.8515 11.405 24.6363 12.1663L20.2314 14.9257C20.0804 15.0202 19.942 15.1333 19.8192 15.2624Z"/>
    <path d="M19.4137 21.3904L19.2686 20.794C19.103 20.1137 18.4647 19.6567 17.7673 19.7192C17.2215 19.7681 16.753 20.1277 16.5647 20.6423L16.3702 21.1735C16.2792 21.4224 16.2316 21.685 16.2298 21.95L16.1876 27.8816C16.1801 28.9304 16.249 29.9783 16.3937 31.0172L16.8127 34.0252C16.8846 34.5421 17.381 34.8885 17.891 34.7778C18.2496 34.7 18.5246 34.4115 18.5852 34.0496L19.0296 31.3952C19.2664 29.9809 19.394 28.5505 19.4113 27.1167L19.4739 21.9192C19.476 21.7411 19.4558 21.5635 19.4137 21.3904Z"/>
    <path d="M 0,-0.421875 V 0 h 17.294922 v -0.421875 z" transform="matrix(0 1 1 0 18.2598 0.964844)" />
    <path d="m 0.22265625,18.048828 v 0.421875 H 17.962891 v -0.421875 z"/>
    <path transform="matrix(-1 0 0 1 18.037 18.2599)" d="M 1.1876301,0 A 1.1876301,1.1876301 0 0 1 0,1.1876301 1.1876301,1.1876301 0 0 1 -1.1876301,0 1.1876301,1.1876301 0 0 1 0,-1.1876301 1.1876301,1.1876301 0 0 1 1.1876301,0 Z" />
    <path d="m 0,-17.740234 c -9.7926219,0 -17.740234,7.9476121 -17.740234,17.740234 0,9.7926219 7.9476121,17.740234 17.740234,17.740234 C 9.7926219,17.740234 17.740234,9.7926219 17.740234,0 17.740234,-9.7926219 9.7926219,-17.740234 0,-17.740234 Z m 0,0.845703 c 9.3360737,0 16.894531,7.5584573 16.894531,16.894531 0,9.3360737 -7.5584573,16.894531 -16.894531,16.894531 -9.3360737,0 -16.894531,-7.5584573 -16.894531,-16.894531 0,-9.3360737 7.5584573,-16.894531 16.894531,-16.894531 z" transform="matrix(-1 0 0 1 17.7403 18.2597)" />
    <path transform="matrix(-1 0 0 1 17.9628 0.890722)" d="M 0.89072198,0 A 0.89072198,0.89072198 0 0 1 0,0.89072198 0.89072198,0.89072198 0 0 1 -0.89072198,0 0.89072198,0.89072198 0 0 1 0,-0.89072198 0.89072198,0.89072198 0 0 1 0.89072198,0 Z" />
    <path d="M17.2921 57.9602L17.7151 57.5155C18.1978 57.0082 18.2367 56.2242 17.8068 55.6714C17.4704 55.2389 16.9145 55.0394 16.3798 55.1595L15.8279 55.2834C15.5693 55.3414 15.3227 55.4436 15.0989 55.5854L10.0876 58.7591C9.20155 59.3203 8.35749 59.9452 7.56213 60.629L5.25905 62.6088C4.86335 62.949 4.84055 63.5539 5.20953 63.9228C5.46901 64.1823 5.86039 64.2575 6.19755 64.1127L8.67035 63.0503C9.98785 62.4842 11.2598 61.8176 12.475 61.0564L16.8799 58.297C17.0309 58.2024 17.1694 58.0893 17.2921 57.9602Z"/>
    <path
            d="M20.8192 57.7376L20.3962 57.2929C19.9136 56.7855 19.8746 56.0015 20.3045 55.4488C20.6409 55.0162 21.1968 54.8168 21.7315 54.9368L22.2835 55.0607C22.542 55.1188 22.7886 55.2209 23.0125 55.3627L28.0237 58.5365C28.9098 59.0977 29.7538 59.7226 30.5492 60.4063L32.8523 62.3862C33.248 62.7263 33.2708 63.3312 32.9018 63.7002C32.6423 63.9597 32.2509 64.0349 31.9138 63.89L29.441 62.8276C28.1235 62.2616 26.8515 61.595 25.6363 60.8337L21.2314 58.0743C21.0804 57.9798 20.942 57.8667 20.8192 57.7376Z"
            />
    <path
            d="M20.4137 51.6096L20.2686 52.206C20.103 52.8863 19.4647 53.3433 18.7673 53.2808C18.2215 53.2319 17.753 52.8723 17.5647 52.3577L17.3702 51.8265C17.2792 51.5776 17.2316 51.315 17.2298 51.05L17.1876 45.1184C17.1801 44.0696 17.249 43.0217 17.3937 41.9828L17.8127 38.9748C17.8846 38.4579 18.381 38.1115 18.891 38.2222C19.2496 38.3 19.5246 38.5885 19.5852 38.9504L20.0296 41.6048C20.2664 43.0191 20.394 44.4495 20.4113 45.8833L20.4739 51.0808C20.476 51.2589 20.4558 51.4365 20.4137 51.6096Z"
            />
    <path
            d="m 18.837891,54.740234 v 17.294922 h 0.421875 V 54.740234 Z"
             />
    <path
            d="m 1.2226562,54.529297 v 0.421875 H 18.962891 v -0.421875 z"
            />
    <path transform="rotate(-180 19.037 54.7401)" d="m 20.224631,54.740101 a 1.1876301,1.1876301 0 0 1 -1.18763,1.18763 1.1876301,1.1876301 0 0 1 -1.18763,-1.18763 1.1876301,1.1876301 0 0 1 1.18763,-1.18763 1.1876301,1.1876301 0 0 1 1.18763,1.18763 z" />
    <path d="M 18.740234,37 C 8.9476131,37 1.0000006,44.947613 1,54.740234 c 0,9.792622 7.9476127,17.740234 17.740234,17.740235 9.792622,0 17.740235,-7.947613 17.740235,-17.740235 C 36.480468,44.947613 28.532856,37 18.740234,37 Z m 0,0.845703 c 9.336074,0 16.894531,7.558458 16.894532,16.894531 0,9.336074 -7.558458,16.894532 -16.894532,16.894532 -9.3360731,-10e-7 -16.8945309,-7.558458 -16.8945309,-16.894532 6e-7,-9.336073 7.5584582,-16.89453 16.8945309,-16.894531 z" transform="rotate(-180 18.7403 54.7403)" />
    <path
            transform="rotate(-180 18.9628 72.1093)"
            d="m 19.853521,72.109299 a 0.89072198,0.89072198 0 0 1 -0.890722,0.890722 0.89072198,0.89072198 0 0 1 -0.890722,-0.890722 0.89072198,0.89072198 0 0 1 0.890722,-0.890722 0.89072198,0.89072198 0 0 1 0.890722,0.890722 z" />
    <path d="m 36.351562,22.023437 a 0.5,0.5 0 0 0 -0.294921,0.244141 l -16.5,31.5 a 0.5,0.5 0 0 0 0.210937,0.675781 0.5,0.5 0 0 0 0.675781,-0.210937 l 16.5,-31.5 a 0.5,0.5 0 0 0 -0.210937,-0.675781 0.5,0.5 0 0 0 -0.38086,-0.0332 z"/>
    <path d="m 44.265625,22.058594 a 0.5,0.5 0 0 0 -0.207031,0.675781 l 17,32 a 0.5,0.5 0 0 0 0.675781,0.207031 0.5,0.5 0 0 0 0.207031,-0.675781 l -17,-32 a 0.5,0.5 0 0 0 -0.675781,-0.207031 z"/>
    <path d="m 34,4 h 13 c 0.554,0 1,0.446 1,1 v 3 c 0,0.554 -0.446,1 -1,1 H 34 C 33.446,9 33,8.554 33,8 V 5 c 0,-0.554 0.446,-1 1,-1 z" />
    <path d="m 40,50 h 1 v 2 h -1 z" />
    <path d="m 39,52 h 3 c 0.554,0 1,0.446 1,1 0,0.554 -0.446,1 -1,1 h -3 c -0.554,0 -1,-0.446 -1,-1 0,-0.554 0.446,-1 1,-1 z" />
    <path d="M 29.5,31 A 0.5,0.5 0 0 0 29,31.5 0.5,0.5 0 0 0 29.5,32 h 22 A 0.5,0.5 0 0 0 52,31.5 0.5,0.5 0 0 0 51.5,31 Z"/>
    <path d="M 31.5,42 A 0.5,0.5 0 0 0 31,42.5 0.5,0.5 0 0 0 31.5,43 h 18 A 0.5,0.5 0 0 0 50,42.5 0.5,0.5 0 0 0 49.5,42 Z"/>
    <path d="m 18.625,18.015625 -0.25,0.96875 17.5,4.5 0.25,-0.96875 z m 42.730469,0.0059 -16.5,5 0.289062,0.957032 16.5,-5 z M 68,34.5 V 36 c 0,0.822503 0.677497,1.5 1.5,1.5 H 74 v -1 H 69.5 C 69.217904,36.5 69,36.282096 69,36 v -1.5 z"/>
    <path d="m 72,36 h 2 c 0.554,0 1,0.446 1,1 0,0.554 -0.446,1 -1,1 h -2 c -0.554,0 -1,-0.446 -1,-1 0,-0.554 0.446,-1 1,-1 z" />
    <path
            fill-rule="evenodd"
            clip-rule="evenodd"
            d="M37 4C36.4477 4 36 4.44772 36 5V50C36 50.5523 36.4477 51 37 51H44C44.5523 51 45 50.5523 45 50V5C45 4.44772 44.5523 4 44 4H37ZM40.5 9C38.567 9 37 10.567 37 12.5V29H44V12.5C44 10.567 42.433 9 40.5 9Z"
            />
</svg>
