<svg viewBox="0 0 26 31" xmlns="http://www.w3.org/2000/svg">
<path d="M22.269 9.19655L14.2333 1.29317C14.079 1.13885 13.9302 1.02862 13.7869 0.962487C13.6436 0.896349 13.4617 0.863281 13.2413 0.863281C13.0208 0.863281 12.8389 0.896349 12.6956 0.962487C12.5524 1.02862 12.4035 1.13885 12.2492 1.29317L4.34585 9.19655C3.08924 10.387 2.14128 11.7649 1.50196 13.3301C0.862628 14.8954 0.542969 16.5267 0.542969 18.2243C0.542969 19.8997 0.857116 21.5201 1.48542 23.0853C2.11373 24.6506 3.0231 26.0394 4.21357 27.252C5.40405 28.4424 6.78189 29.3518 8.34714 29.9801C9.91239 30.6084 11.5438 30.9226 13.2413 30.9226C14.9388 30.9226 16.5702 30.6084 18.1354 29.9801C19.7007 29.3518 21.0785 28.4424 22.269 27.252C23.5035 26.0174 24.4295 24.6175 25.0467 23.0523C25.664 21.487 25.9727 19.8887 25.9727 18.2573C25.9727 16.6259 25.664 15.0276 25.0467 13.4624C24.4295 11.8751 23.5035 10.4532 22.269 9.19655ZM20.2849 25.2678C19.3149 26.1938 18.2346 26.8937 17.0442 27.3677C15.8537 27.8417 14.5861 28.0787 13.2413 28.0787C11.8965 28.0787 10.6399 27.8417 9.47147 27.3677C8.30304 26.8937 7.25588 26.1938 6.32996 25.2678C5.3379 24.2758 4.59386 23.1845 4.09783 21.9941C3.6018 20.8036 3.35379 19.547 3.35379 18.2243C3.35379 16.8795 3.59629 15.6174 4.0813 14.4379C4.56631 13.2585 5.27176 12.2168 6.19768 11.3129L13.109 4.23627L20.1526 11.3129C21.1447 12.2609 21.8832 13.3301 22.3682 14.5206C22.8752 15.7331 23.1343 16.9676 23.1453 18.2243C23.1563 19.4809 22.9193 20.7264 22.4343 21.961C21.9714 23.1735 21.2549 24.2758 20.2849 25.2678Z"/>
</svg>
