<svg viewBox="0 0 32 32" xmlns="http://www.w3.org/2000/svg">
<path d="M15.684 0c8.522 0 15.431 6.909 15.431 15.431s-6.909 15.431-15.431 15.431c-8.522 0-15.431-6.909-15.431-15.431s6.909-15.431 15.431-15.431z"></path>
<path fill="#2f2d2e" d="M17.465 11.929h1.305v-1.899h-1.778c-0.57 0-1.043 0.088-1.418 0.264s-0.626 0.411-0.754 0.707c-0.127 0.295-0.206 0.513-0.236 0.654s-0.045 0.295-0.045 0.464v1.498h-1.17v1.814h1.17v5.401h2.385v-5.401h1.62c0.090-0.591 0.157-1.195 0.202-1.814h-1.8v-1.266c0-0.084 0.052-0.176 0.157-0.274s0.225-0.148 0.36-0.148z"></path>
</svg>
