<?xml version="1.0" encoding="UTF-8" standalone="no"?>
<svg viewBox="0 0 14 17" version="1.1" xmlns="http://www.w3.org/2000/svg" xmlns:svg="http://www.w3.org/2000/svg">
  <path d="M 2.8007813,0 C 1.2603445,0 0,1.260313 0,2.8007813 V 14 c 0,1.540508 1.2603156,2.800781 2.8007813,2.800781 H 11.199219 C 12.739716,16.800781 14,15.540497 14,14 V 4.4804687 C 14,4.0321301 13.820421,3.6024748 13.501953,3.2871094 L 12.091797,1.890625 10.673828,0.48632813 C 10.360145,0.1758113 9.9352157,0 9.4941406,0 h -0.00781 -0.00781 -0.00586 -0.00781 -0.00781 -0.00781 -0.00781 -0.00781 -0.00781 -0.00586 -0.00781 -0.00781 -0.00781 -0.00781 -0.00781 -0.00781 -0.00781 -0.00977 -0.00781 -0.00781 -0.00781 -0.00781 -0.00781 -0.00781 -0.00781 -0.00977 -0.00781 -0.00781 -0.00781 -0.00977 -0.00781 -0.00781 -0.00977 -0.00781 -0.00781 -0.00977 -0.00781 -0.00781 -0.00977 -0.00781 -0.00977 -0.00781 -0.00977 -0.00781 -0.00977 -0.00781 -0.00977 -0.00781 -0.00977 -0.00977 -0.00781 -0.00977 -0.00781 -0.00977 -0.00977 -0.00781 -0.00977 -0.00977 -0.00977 -0.00781 -0.00977 -0.00977 -0.00977 -0.00977 -0.00781 -0.00977 -0.00977 -0.00977 -0.00977 -0.00977 -0.00977 -0.00977 -0.00977 -0.00977 -0.00977 -0.00977 -0.00977 -0.00977 -0.00977 -0.00977 -0.00977 -0.00977 -0.00977 -0.00977 -0.00977 -0.00977 -0.00977 -0.011719 -0.00977 -0.00977 -0.00977 -0.011719 -0.00977 -0.00977 -0.00977 -0.011719 -0.00977 -0.00977 -0.011719 -0.00977 -0.00977 -0.011719 -0.00977 -0.00977 -0.011719 -0.00977 -0.011719 -0.00977 -0.011719 -0.00977 -0.011719 -0.00977 -0.011719 -0.00977 -0.011719 -0.00977 -0.011719 -0.011719 -0.00977 -0.011719 -0.00977 -0.011719 -0.011719 -0.00977 H 8.328125 8.3164063 8.3046875 8.2949219 8.2832031 8.2714844 8.2597656 8.25 8.2382813 8.2265625 8.2148438 8.203125 8.1933594 8.1816406 8.1699219 8.1582031 8.1464844 8.1347656 8.1230469 8.1113281 8.0996094 8.0878906 8.0761719 8.0644531 8.0527344 8.0410156 8.0292969 8.0175781 8.0058594 7.9941406 7.9824219 7.9707031 7.9589844 7.9472656 7.9355469 7.9238281 7.9121094 7.8984375 7.8867187 7.875 7.8632812 7.8515625 7.8398437 7.8261719 7.8144531 7.8027344 7.7910156 7.7773437 7.765625 7.7539062 7.7402344 7.7285156 7.7167969 7.703125 7.6914062 7.6796875 7.6660156 7.6542969 7.6425781 7.6289062 7.6171875 7.6035156 7.5917969 7.578125 7.5664062 7.5546875 7.5410156 7.5292969 7.515625 7.5039062 7.4902344 7.4785156 7.4648437 7.4511719 7.4394531 7.4257812 7.4140625 7.4003906 7.3867187 7.375 7.3613281 7.3496094 7.3359375 7.3222656 7.3105469 7.296875 7.2832031 7.2714844 7.2578125 7.2441406 7.2304687 7.21875 7.2050781 7.1914062 7.1777344 7.1660156 7.1523437 7.1386719 7.125 7.1113281 7.0996094 7.0859375 7.0722656 7.0585937 7.0449219 7.03125 7.0195312 7.0058594 6.9921875 6.9785156 6.9648437 6.9511719 6.9375 6.9238281 6.9101562 6.8964844 6.8828125 6.8691406 6.8554687 6.8417969 6.828125 6.8144531 6.8007812 6.7871094 6.7734375 6.7597656 6.7460937 6.7324219 6.71875 6.7050781 6.6914062 6.6777344 6.6640625 6.6484375 6.6347656 6.6210937 6.6074219 6.59375 6.5800781 6.5664062 6.5507812 6.5371094 6.5234375 6.5097656 6.4960937 6.4804687 6.4667969 6.453125 6.4394531 6.4257812 6.4101562 6.3964844 6.3828125 6.3691406 6.3535156 6.3398437 6.3261719 6.3105469 6.296875 6.2832031 6.2675781 6.2539062 6.2402344 6.2246094 6.2109375 6.1972656 6.1816406 6.1679687 6.1542969 6.1386719 6.125 6.109375 6.0957031 6.0820312 6.0664062 6.0527344 6.0371094 6.0234375 6.0078125 5.9941406 5.9804687 5.9648437 5.9511719 5.9355469 5.921875 5.90625 5.8925781 5.8769531 5.8632812 5.8476562 5.8339844 5.8183594 5.8046875 5.7890625 5.7734375 5.7597656 5.7441406 5.7304687 5.7148437 5.7011719 5.6855469 5.6699219 5.65625 5.640625 5.6269531 5.6113281 5.5957031 5.5820312 5.5664062 5.5527344 5.5371094 5.5214844 5.5078125 5.4921875 5.4765625 5.4628906 5.4472656 5.4316406 5.4179687 5.4023437 5.3867187 5.3730469 5.3574219 5.3417969 5.3261719 5.3125 5.296875 5.28125 5.2675781 5.2519531 5.2363281 5.2207031 5.2070312 5.1914062 5.1757812 5.1601562 5.1464844 5.1308594 5.1152344 5.0996094 5.0859375 5.0703125 5.0546875 5.0390625 5.0234375 5.0097656 4.9941406 4.9785156 4.9628906 4.9472656 4.9316406 4.9179687 4.9023437 4.8867187 4.8710937 4.8554687 4.8398437 4.8261719 4.8105469 4.7949219 4.7792969 4.7636719 4.7480469 4.7324219 4.71875 4.703125 4.6875 4.671875 4.65625 4.640625 4.625 4.609375 4.5957031 4.5800781 4.5644531 4.5488281 4.5332031 4.5175781 4.5019531 4.4863281 4.4707031 4.4550781 4.4394531 4.4238281 4.4101562 4.3945312 4.3789062 4.3632812 4.3476562 4.3320312 4.3164062 4.3007812 4.2851562 4.2695312 4.2539062 4.2382812 4.2226562 4.2070312 4.1914062 4.1757812 4.1601562 4.1445312 4.1289062 4.1132812 4.0976562 4.0820312 4.0664062 4.0507812 4.0351562 4.0195312 4.0039062 3.9902344 3.9746094 3.9589844 3.9433594 3.9277344 3.9121094 3.8964844 3.8808594 3.8652344 3.8496094 3.8339844 3.8183594 3.8027344 3.7871094 3.7714844 3.7558594 3.7402344 3.7246094 3.7070313 3.6914063 3.6757813 3.6601563 3.6445313 3.6289063 3.6132813 3.5976563 3.5820313 3.5664063 3.5507813 3.5351563 3.5195313 3.5039063 3.4882813 3.4726563 3.4570313 3.4414063 3.4257813 3.4101563 3.3945313 3.3789063 3.3632813 3.3476563 3.3320313 3.3164063 3.3007813 3.2851563 3.2695313 3.2539063 3.2382813 3.2226563 3.2070313 3.1914063 3.1757813 3.1601563 3.1445313 3.1289063 3.1132813 3.0976563 3.0820313 3.0664063 3.0507813 3.0351563 3.0195313 3.0039063 2.9882813 2.9726563 2.9570313 2.9414063 2.9257813 2.9101563 2.8945313 2.8789063 2.8632813 2.8476563 2.8320313 2.8164063 Z m 0,1 h 0.015625 0.015625 0.015625 0.015625 0.015625 0.015625 0.015625 0.015625 0.015625 0.015625 0.015625 0.015625 0.015625 0.015625 0.015625 0.015625 0.015625 0.015625 0.015625 0.015625 0.015625 0.015625 0.015625 0.015625 0.015625 0.015625 0.015625 0.015625 0.015625 0.015625 0.015625 0.015625 0.015625 0.015625 0.015625 0.015625 0.015625 0.015625 0.015625 0.015625 0.015625 0.015625 0.015625 0.015625 0.015625 0.015625 0.015625 0.015625 0.015625 0.015625 0.015625 0.015625 0.015625 0.015625 0.015625 0.015625 0.015625 0.015625 0.017578 0.015625 0.015625 0.015625 0.015625 0.015625 0.015625 0.015625 0.015625 0.015625 0.015625 0.015625 0.015625 0.015625 0.015625 0.015625 0.015625 0.015625 0.013672 0.015625 0.015625 0.015625 0.015625 0.015625 0.015625 0.015625 0.015625 0.015625 0.015625 0.015625 0.015625 0.015625 0.015625 0.015625 0.015625 0.015625 0.015625 0.015625 0.015625 0.015625 0.015625 0.015625 0.015625 0.015625 0.015625 0.013672 0.015625 0.015625 0.015625 0.015625 0.015625 0.015625 0.015625 0.015625 0.015625 0.015625 0.015625 H 4.609375 4.625 4.640625 4.65625 4.671875 4.6875 4.703125 4.71875 h 0.013672 0.015625 0.015625 0.015625 0.015625 0.015625 0.015625 0.013672 0.015625 0.015625 0.015625 0.015625 0.015625 0.013672 0.015625 0.015625 0.015625 0.015625 0.015625 0.013672 0.015625 0.015625 0.015625 0.015625 0.013672 0.015625 0.015625 0.015625 0.013672 0.015625 0.015625 0.015625 0.013672 0.015625 0.015625 0.015625 0.013672 0.015625 0.015625 0.013672 0.015625 0.015625 0.015625 0.013672 0.015625 0.015625 0.013672 0.015625 0.015625 0.013672 0.015625 0.015625 0.013672 0.015625 0.015625 0.013672 0.015625 0.013672 0.015625 0.015625 0.013672 0.015625 0.013672 0.015625 0.015625 0.013672 0.015625 0.013672 0.015625 0.013672 0.015625 0.015625 0.013672 0.015625 0.013672 0.015625 0.013672 0.015625 0.013672 0.015625 0.013672 0.015625 0.013672 0.015625 0.013672 0.013672 0.015625 0.013672 0.015625 0.013672 0.015625 0.013672 0.013672 0.015625 0.013672 0.015625 0.013672 0.013672 0.015625 0.013672 0.013672 0.015625 0.013672 0.013672 0.015625 0.013672 0.013672 0.015625 0.013672 0.013672 0.015625 0.013672 0.013672 0.013672 0.015625 0.013672 0.013672 0.013672 0.013672 0.015625 0.013672 0.013672 0.013672 0.013672 0.015625 0.013672 0.013672 0.013672 0.013672 0.013672 0.013672 0.015625 0.013672 0.013672 0.013672 0.013672 0.013672 0.013672 0.013672 0.013672 0.013672 0.013672 0.013672 0.013672 0.013672 0.013672 0.013672 0.013672 0.013672 0.013672 0.013672 0.013672 0.013672 0.013672 0.013672 0.013672 0.013672 0.013672 0.011719 0.013672 0.013672 0.013672 0.013672 0.013672 0.011719 0.013672 0.013672 0.013672 0.013672 0.011719 0.013672 0.013672 0.013672 0.011719 0.013672 0.013672 0.013672 0.011719 0.013672 0.013672 0.011719 0.013672 0.013672 0.011719 0.013672 0.011719 0.013672 0.013672 0.011719 0.013672 0.011719 0.013672 0.013672 0.011719 0.013672 0.011719 0.013672 0.011719 0.013672 0.011719 0.011719 0.013672 0.011719 0.013672 0.011719 0.013672 0.011719 0.011719 0.013672 0.011719 0.011719 0.013672 0.011719 0.011719 0.013672 0.011719 0.011719 0.013672 0.011719 0.011719 0.011719 0.013672 0.011719 0.011719 0.011719 0.011719 0.011719 0.013672 0.011719 0.011719 0.011719 0.011719 0.011719 0.011719 0.011719 0.011719 0.011719 0.011719 0.011719 0.011719 0.011719 0.011719 0.011719 0.011719 0.011719 0.011719 0.011719 0.011719 0.011719 0.011719 0.011719 0.011719 0.00977 0.011719 0.011719 0.011719 0.011719 0.00977 0.011719 0.011719 0.011719 0.00977 0.011719 0.011719 0.011719 0.00977 0.011719 0.011719 0.00977 0.011719 0.00977 0.011719 0.011719 0.00977 0.011719 0.00977 0.011719 0.00977 0.011719 0.00977 0.011719 0.00977 0.011719 0.00977 0.011719 0.00977 0.00977 0.011719 0.00977 0.00977 0.011719 0.00977 0.00977 0.011719 0.00977 0.00977 0.00977 0.011719 0.00977 0.00977 0.00977 0.011719 0.00977 0.00977 0.00977 0.00977 0.00977 0.00977 0.00977 0.00977 0.00977 0.00977 0.00977 0.00977 0.00977 0.00977 0.00977 0.00977 0.00977 0.00977 0.00977 0.00977 0.00977 0.00977 0.00781 0.00977 0.00977 0.00977 0.00977 0.00781 0.00977 0.00977 0.00977 0.00781 0.00977 0.00977 0.00781 0.00977 0.00781 0.00977 0.00977 0.00781 0.00977 0.00781 0.00977 0.00781 0.00977 0.00781 0.00977 0.00781 0.00977 0.00781 0.00781 0.00977 0.00781 0.00781 0.00977 0.00781 0.00781 0.00977 0.00781 0.00781 0.00781 0.00977 0.00781 0.00781 0.00781 0.00781 0.00781 0.00781 0.00781 0.00977 0.00781 0.00781 0.00781 0.00781 0.00781 0.00781 0.00781 0.00586 0.00781 0.00781 0.00781 0.00781 0.00781 0.00781 0.00586 0.00781 0.00781 C 9.6728049,1 9.8390338,1.0688589 9.96875,1.1972656 l 1.417969,1.4042969 1.412109,1.3964844 C 12.92796,4.125921 13,4.298788 13,4.4804687 V 14 c 0,1.0001 -0.800681,1.800781 -1.800781,1.800781 H 2.8007813 C 1.8007294,15.800781 1,15.00009 1,14 V 2.8007813 C 1,1.800672 1.8007805,1 2.8007813,1 Z" />
  <path fill-rule="evenodd" clip-rule="evenodd" d="M6.8738 8.54055V10.9206H7.4338V8.54055H9.80438V7.98055H7.4338V5.60059H6.8738V7.98055H4.48438V8.54055H6.8738Z"/>
</svg>
