<svg
   viewBox="0 0 34 24"
   xmlns="http://www.w3.org/2000/svg"
   >
  <path
     d="m 17.039062,0.6328125 c -2.154631,0 -4.286758,0.4235035 -6.277343,1.2480469 C 8.7711346,2.7053931 6.9610401,3.9139599 5.4375,5.4375 3.9139576,6.9610424 2.7053924,8.7711472 1.8808594,10.761719 1.0563358,12.752366 0.6328125,14.884431 0.6328125,17.039062 A 1.36727,1.36727 0 0 0 2,18.408203 1.36727,1.36727 0 0 0 3.3671875,17.039062 c 0,-1.794938 0.3543526,-3.572014 1.0410156,-5.230468 v -0.002 C 5.0953133,10.148426 6.1018667,8.6403208 7.3710937,7.3710937 8.6407309,6.1014566 10.149742,5.0953279 11.808594,4.4082031 c 1.65881,-0.6871151 3.434904,-1.0410156 5.230468,-1.0410156 1.795456,0 3.573612,0.3539005 5.232422,1.0410156 1.658836,0.6871255 3.1659,1.6932526 4.435547,2.9628906 1.269638,1.2696289 2.277638,2.7786043 2.964844,4.4375003 0.687089,1.658812 1.041016,3.434895 1.041016,5.230468 a 1.36727,1.36727 0 0 0 1.367187,1.369141 1.36727,1.36727 0 0 0 1.367188,-1.369141 c 0,-2.154622 -0.423537,-4.286759 -1.248047,-6.277343 C 31.374627,8.7711782 30.166137,6.9610484 28.642578,5.4375 27.119028,3.9139608 25.30892,2.7053924 23.318359,1.8808594 21.327774,1.056316 19.193603,0.6328125 17.039062,0.6328125 Z"
     />
  <path
     d="M 21,20.5 A 3.5,3.5 0 0 1 17.5,24 3.5,3.5 0 0 1 14,20.5 3.5,3.5 0 0 1 17.5,17 3.5,3.5 0 0 1 21,20.5 Z" />
</svg>
