<?xml version="1.0" encoding="UTF-8" standalone="no"?>
<svg viewBox="0 0 66 72" version="1.1" xmlns="http://www.w3.org/2000/svg" xmlns:svg="http://www.w3.org/2000/svg">
  <path d="m 0.5,9.2265625 v 0.5 45.3007815 H 26.517578 V 48.5625 L 21.402344,40.603516 34.259766,25.408203 26.517578,17.666016 V 9.2265625 Z m 1,1.0000005 h 24.017578 v 7.853515 l 7.384766,7.384766 -12.740235,15.058593 5.355469,8.332032 v 5.171875 H 1.5 Z"/>
  <path d="m 40.064453,9.2265625 v 0.5 7.1699215 l 7.398438,8.53711 -13.365235,15.107422 5.966797,7.755859 v 6.136719 L 65.5,55.039062 V 9.2265625 Z m 1,1.0000005 H 64.5 V 54.015625 L 41.064453,53.457031 v -5.5 L 35.392578,40.585937 48.791016,25.439453 41.064453,16.523437 Z"/>
  <path d="m 28.345703,56.876953 -1.894531,0.947266 0.314453,0.470703 2.476562,3.714844 h 5.421875 v -1.972657 z m 0,1.119141 5.318359,2.658203 v 0.355469 h -3.886718 l -1.865235,-2.796875 z"/>
  <path d="m 32.958984,63.917969 0.134766,0.609375 1.232422,5.546875 5.927734,1.316406 0.927735,-1.853516 -6.244141,-5.61914 z m 1.246094,1 h 0.347656 l 5.392578,4.853515 -0.236328,0.47461 -4.544922,-1.009766 z"/>
  <path d="m 38.185547,55.445312 -1.654297,2.484375 0.05859,0.220704 1.845703,6.767578 h 1.875 l 1.998047,-4.66211 z m 0.101562,1.654297 2.857422,3.335938 -1.492187,3.482422 h -0.453125 l -1.583985,-5.8125 z"/>
  <path d="m 32.417969,0.29296875 -4.044922,4.04492185 0.06836,0.2734375 1.259766,5.0332032 h 2.52539 l 1.908204,-7.6347657 z m 0,1.41406245 0.609375,0.6093751 -1.582032,6.328125 h -0.964843 l -1,-4.0000001 z"/>
  <path d="m 38.931641,0.109375 -4.685547,5.3574219 v 0.1875 3.0664062 l 3.662109,-1.4648437 3.283203,-2.6269532 z m -0.226563,1.78125 1.230469,2.4628906 -2.535156,2.0273438 -2.154297,0.8632812 V 5.8417969 Z"/>
</svg>
