<svg
   viewBox="0 0 36 36"
   xmlns="http://www.w3.org/2000/svg"
   xmlns:svg="http://www.w3.org/2000/svg">
  <path
     d="M 18,0 C 8.0648068,0 0,8.0648068 0,18 0,27.935193 8.0648068,36 18,36 27.935193,36 36,27.935193 36,18 36,8.0648068 27.935193,0 18,0 Z m 0,1 C 27.394754,1 35,8.6052463 35,18 35,27.394754 27.394754,35 18,35 8.6052463,35 1,27.394754 1,18 1,8.6052463 8.6052463,1 18,1 Z"
     />
  <path
     d="M 18,0 C 15.376204,0 12.978715,1.9848488 11.230469,5.2714844 9.4937823,8.536492 8.4257813,13.022764 8.4257813,18 c 0,4.977236 1.0680021,9.4635 2.8046877,12.728516 C 12.978715,34.015161 15.376203,36 18,36 20.623887,36 23.021285,34.015161 24.769531,30.728516 26.506272,27.463492 27.574219,22.977231 27.574219,18 c 0,-4.977231 -1.067945,-9.4634998 -2.804688,-12.7285156 C 23.021285,1.9848488 20.623885,0 18,0 Z m 0,1 c 2.11351,0 4.237569,1.6418495 5.886719,4.7421875 1.637454,3.0783578 2.6875,7.4244535 2.6875,12.2578125 0,4.833359 -1.050045,9.179443 -2.6875,12.257812 C 22.237568,33.358161 20.113509,35 18,35 15.886602,35 13.762432,33.358161 12.113281,30.257812 10.47587,27.179435 9.4257812,22.833355 9.4257813,18 c 0,-4.833355 1.0500897,-9.1794464 2.6874997,-12.2578125 C 13.762431,2.6418495 15.886601,1 18,1 Z"
     />
  <path
     d="m 17.617187,0 v 35.234375 h 1 V 0 Z"
     />
</svg>
