<svg viewBox="0 0 34 32" xmlns="http://www.w3.org/2000/svg">
<path d="M22.7741 21.2843C24.9015 18.3372 26.8111 14.4841 26.8111 10.1462C26.8109 4.55164 22.2575 0 16.6605 0C11.0635 0 6.50986 4.55183 6.50986 10.1468C6.50986 14.4848 8.41921 18.3384 10.5469 21.2849C5.23572 21.9456 0 23.5993 0 26.4596C0 30.0583 8.58398 32 16.6603 32C24.7366 32 33.3206 30.0582 33.3206 26.4596C33.3206 23.5993 28.0851 21.9456 22.7744 21.2847L22.7741 21.2843ZM7.92732 10.1462C7.92732 5.33301 11.845 1.4179 16.6601 1.4179C21.4751 1.4179 25.3928 5.33326 25.3928 10.1462C25.3928 17.8997 18.4729 24.2473 16.6601 25.776C14.8464 24.2492 7.92732 17.9111 7.92732 10.1462ZM16.6601 30.5817C7.21647 30.5817 1.41764 28.1807 1.41764 26.4591C1.41764 25.0627 5.199 23.2595 11.5518 22.5964C13.8217 25.3927 16.0406 27.1096 16.23 27.2543C16.3571 27.351 16.5084 27.3994 16.66 27.3994C16.8116 27.3994 16.9629 27.351 17.09 27.2543C17.2791 27.1099 19.4981 25.3929 21.7682 22.5964C28.1208 23.2595 31.9023 25.0631 31.9023 26.4593C31.9023 28.1807 26.1036 30.5817 16.6599 30.5817H16.6601Z"/>
<path d="M21.3383 10.1452C21.3383 7.56554 19.2396 5.4668 16.6599 5.4668C14.0802 5.4668 11.9814 7.56554 11.9814 10.1452C11.9814 12.7249 14.0802 14.8237 16.6599 14.8237C19.2396 14.8237 21.3383 12.7249 21.3383 10.1452ZM13.3993 10.1452C13.3993 8.34716 14.8621 6.88457 16.66 6.88457C18.4579 6.88457 19.9207 8.34709 19.9207 10.1452C19.9207 11.943 18.4579 13.4056 16.66 13.4056C14.8621 13.4056 13.3993 11.9431 13.3993 10.1452Z" />
</svg>
