<?xml version="1.0" encoding="UTF-8" standalone="no"?>
<svg
        viewBox="0 0 36 36"
        version="1.1"
        xmlns="http://www.w3.org/2000/svg"
        xmlns:svg="http://www.w3.org/2000/svg">
  <path
          d="M26.5232 9.19996C27.6842 10.361 28.6052 11.7393 29.2335 13.2563C29.8619 14.7732 30.1853 16.3991 30.1853 18.041C30.1853 19.683 29.8619 21.3088 29.2335 22.8258C28.6052 24.3427 27.6842 25.721 26.5232 26.8821L17.6821 18.041L26.5232 9.19996Z"
          />
  <path
          d="m 17.681641,4.1464844 c -7.657086,2e-7 -13.8925788,6.2374456 -13.8925785,13.8945316 0,7.657086 6.2354925,13.892578 13.8925785,13.892578 7.657086,0 13.894531,-6.235492 13.894531,-13.892578 0,-7.657087 -6.237445,-13.8945322 -13.894531,-13.8945316 z m 0,2.6796875 c 6.209113,-5e-7 11.214844,5.0057301 11.214843,11.2148441 0,6.209113 -5.00573,11.212891 -11.214843,11.21289 -6.209114,0 -11.212891,-5.003777 -11.212891,-11.21289 -2e-7,-6.209114 5.003777,-11.214844 11.212891,-11.2148441 z"
          transform="rotate(-90 17.6822 18.0405)" />
</svg>
