<svg viewBox="0 0 32 32" xmlns="http://www.w3.org/2000/svg">
<path d="M15.937 0c8.522 0 15.431 6.909 15.431 15.431s-6.909 15.431-15.431 15.431c-8.522 0-15.431-6.909-15.431-15.431s6.909-15.431 15.431-15.431z"></path>
<path fill="#2f2d2e" d="M19.42 9.258h-6.031c-0.5 0-0.972 0.093-1.416 0.279-0.434 0.186-0.816 0.442-1.147 0.768s-0.59 0.708-0.779 1.145c-0.189 0.428-0.283 0.889-0.283 1.383v5.965c0 0.484 0.094 0.945 0.283 1.383s0.448 0.817 0.779 1.138c0.33 0.321 0.713 0.575 1.147 0.761 0.444 0.195 0.915 0.293 1.416 0.293h6.031c0.5 0 0.972-0.098 1.416-0.293 0.434-0.186 0.816-0.44 1.147-0.761s0.59-0.701 0.779-1.138c0.189-0.438 0.283-0.899 0.283-1.383v-5.965c0-0.494-0.094-0.954-0.283-1.383-0.189-0.438-0.448-0.819-0.779-1.145s-0.712-0.582-1.147-0.768c-0.444-0.186-0.915-0.279-1.416-0.279zM21.84 18.799c0 0.652-0.236 1.211-0.708 1.676s-1.043 0.698-1.713 0.698h-6.031c-0.67 0-1.241-0.233-1.713-0.698s-0.708-1.024-0.708-1.676v-5.964c0-0.652 0.236-1.213 0.708-1.683s1.043-0.705 1.713-0.705h6.031c0.67 0 1.241 0.235 1.713 0.705s0.708 1.031 0.708 1.683v5.964zM16.885 12.836c-0.151-0.028-0.302-0.042-0.453-0.042s-0.302 0.014-0.453 0.042c-0.406 0.056-0.779 0.191-1.118 0.405s-0.623 0.475-0.849 0.782c-0.226 0.307-0.392 0.652-0.495 1.034s-0.127 0.773-0.071 1.173c0.057 0.391 0.189 0.757 0.396 1.096s0.477 0.631 0.807 0.873c0.274 0.177 0.562 0.321 0.864 0.433s0.618 0.168 0.948 0.168c0.066 0 0.139-0.002 0.219-0.007s0.149-0.026 0.205-0.063c0.396-0.056 0.767-0.186 1.111-0.391s0.639-0.47 0.885-0.796c0.245-0.326 0.413-0.678 0.503-1.055s0.101-0.761 0.035-1.152c-0.085-0.652-0.361-1.208-0.828-1.669s-1.036-0.738-1.706-0.831zM17.918 16.828c-0.151 0.177-0.33 0.333-0.538 0.468s-0.434 0.216-0.68 0.244c-0.481 0.056-0.927-0.058-1.338-0.342s-0.649-0.668-0.715-1.152c-0.085-0.475 0.026-0.915 0.333-1.32s0.701-0.64 1.182-0.705c0.028 0 0.068 0 0.12 0s0.092 0 0.12 0c0.028 0 0.068 0 0.12 0s0.092 0 0.12 0c0.396 0.065 0.731 0.233 1.005 0.503s0.444 0.601 0.51 0.992c0.057 0.242 0.059 0.477 0.007 0.706s-0.135 0.431-0.248 0.608zM19.306 12.122c-0.066 0.056-0.113 0.116-0.142 0.182s-0.042 0.144-0.042 0.237c0 0.084 0.014 0.158 0.042 0.223s0.076 0.13 0.142 0.196c0.057 0.056 0.125 0.098 0.205 0.126s0.153 0.042 0.219 0.042c0.085 0 0.16-0.014 0.227-0.042s0.132-0.070 0.198-0.126c0.057-0.065 0.099-0.137 0.127-0.216s0.043-0.147 0.043-0.203c0-0.093-0.014-0.172-0.043-0.237s-0.071-0.126-0.127-0.182c-0.123-0.121-0.264-0.182-0.425-0.182s-0.302 0.061-0.425 0.182z"></path>
</svg>
