<svg viewBox="0 0 42 52" fill="none" xmlns="http://www.w3.org/2000/svg">
<path d="M35.5406 20.9376C35.5406 20.8805 35.5418 20.8231 35.5429 20.766C35.5444 20.7013 35.5456 20.6371 35.5456 20.5721C35.5456 12.5476 29.018 6.01953 20.995 6.01953C12.9742 6.01953 6.44922 12.5478 6.44922 20.5721C6.44922 20.7002 6.44922 20.8287 6.453 20.9501C6.55657 26.2294 8.81481 29.2312 10.9983 32.134C13.0652 34.8821 15.0177 37.4776 15.0181 41.9282V41.9297V48.0188C15.0181 48.3696 15.3023 48.6539 15.6531 48.6539H16.1684C16.543 50.5485 18.5646 52.0004 20.9952 52.0004C23.4278 52.0004 25.4509 50.5485 25.8255 48.6539H26.3407C26.6915 48.6539 26.9758 48.3696 26.9758 48.0188V41.9297C26.9758 37.4786 28.9283 34.8828 30.9956 32.1345C33.1793 29.2314 35.4376 26.2295 35.5409 20.9496C35.5412 20.9459 35.5412 20.9417 35.5412 20.9375L35.5406 20.9376ZM25.7057 44.337H16.2883V42.5652H25.7057V44.337ZM25.7057 47.3841H16.2887V45.6071H25.7061L25.7057 47.3841ZM20.9953 50.7311C19.2912 50.7311 17.8585 49.8443 17.476 48.6546H24.5184C24.135 49.8443 22.7009 50.7311 20.9953 50.7311ZM34.2733 20.7396C34.2718 20.8035 34.2707 20.8674 34.2707 20.9313C34.1739 25.7963 32.1368 28.5044 29.9806 31.371C27.9718 34.0417 25.8973 36.7989 25.7181 41.2949H16.2757C16.0961 36.7988 14.0224 34.0416 12.0132 31.371C9.85586 28.503 7.81833 25.7941 7.72233 20.9187C7.71893 20.8034 7.71893 20.6881 7.71893 20.5724C7.71893 13.2483 13.6746 7.28953 20.995 7.28953C28.3179 7.28953 34.276 13.2482 34.276 20.5714C34.2764 20.6274 34.2749 20.6833 34.2737 20.7393L34.2733 20.7396Z" fill="white"/>
<path d="M21.0042 4.86055C21.355 4.86055 21.6393 4.57628 21.6393 4.22549V0.635064C21.6393 0.284267 21.355 0 21.0042 0C20.6534 0 20.3691 0.284267 20.3691 0.635064V4.22549C20.3691 4.57628 20.6538 4.86055 21.0042 4.86055Z" fill="white"/>
<path d="M12.2775 6.73276C12.3951 6.93651 12.6086 7.05029 12.8279 7.05029C12.9356 7.05029 13.0449 7.02269 13.145 6.96486C13.4486 6.78946 13.5529 6.40086 13.3771 6.09732L11.5815 2.9893C11.4061 2.68538 11.0175 2.58181 10.714 2.7572C10.4105 2.9326 10.3061 3.3212 10.4819 3.62474L12.2775 6.73276Z" fill="white"/>
<path d="M3.42086 11.1498L6.52742 12.945C6.6276 13.0029 6.73685 13.0305 6.84457 13.0305C7.06382 13.0305 7.2774 12.9167 7.39496 12.7129C7.57036 12.4094 7.46641 12.0208 7.16287 11.8454L4.0563 10.0502C3.75276 9.87477 3.36416 9.97835 3.18876 10.2823C3.01336 10.5858 3.11732 10.9744 3.42086 11.1498V11.1498Z" fill="white"/>
<path d="M5.29221 20.5726C5.29221 20.2218 5.00794 19.9375 4.65715 19.9375H1.06866C0.717861 19.9375 0.433594 20.2218 0.433594 20.5726C0.433594 20.9234 0.717861 21.2076 1.06866 21.2076H4.65715C5.00794 21.2076 5.29221 20.923 5.29221 20.5726Z" fill="white"/>
<path d="M6.52731 28.1987L3.42075 29.9947C3.1172 30.1701 3.01325 30.5587 3.18903 30.8622C3.30658 31.0656 3.52017 31.1794 3.73942 31.1794C3.84715 31.1794 3.95677 31.1518 4.05657 31.094L7.16313 29.298C7.46667 29.1226 7.57062 28.734 7.39485 28.4304C7.21945 28.1273 6.83085 28.0229 6.52731 28.1987V28.1987Z" fill="white"/>
<path d="M28.8614 6.96545C28.9612 7.02291 29.07 7.05012 29.1774 7.05012C29.397 7.05012 29.611 6.93596 29.7285 6.73183L31.5176 3.62381C31.6927 3.31989 31.588 2.93167 31.284 2.75665C30.9801 2.58163 30.5919 2.68634 30.4169 2.99027L28.6277 6.0979C28.4527 6.4022 28.5574 6.79042 28.8614 6.96544V6.96545Z" fill="white"/>
<path d="M35.1554 13.0369C35.2632 13.0369 35.3728 13.0093 35.4726 12.9515L38.5791 11.1555C38.8827 10.9801 38.9866 10.5915 38.8109 10.2879C38.6355 9.98439 38.2472 9.88044 37.9433 10.0562L34.8368 11.8522C34.5332 12.0276 34.4293 12.4162 34.605 12.7197C34.7226 12.9231 34.9362 13.0369 35.1554 13.0369Z" fill="white"/>
<path d="M40.9286 19.9414H37.3401C36.9893 19.9414 36.7051 20.2257 36.7051 20.5765C36.7051 20.9273 36.9893 21.2115 37.3401 21.2115H40.9286C41.2794 21.2115 41.5637 20.9273 41.5637 20.5765C41.5637 20.2257 41.2791 19.9414 40.9286 19.9414Z" fill="white"/>
<path d="M38.5692 29.9948L35.4626 28.1988C35.1587 28.023 34.7705 28.127 34.5951 28.4305C34.4197 28.7341 34.5233 29.1227 34.8268 29.2981L37.9334 31.094C38.0336 31.1519 38.1428 31.1795 38.2505 31.1795C38.4698 31.1795 38.6834 31.0657 38.8009 30.8623C38.9767 30.5584 38.8731 30.1702 38.5692 29.9948Z" fill="white"/>
</svg>
