<?xml version="1.0" encoding="utf-8"?>
<svg viewBox="0 0 1136 1024" xmlns="http://www.w3.org/2000/svg" xmlns:xlink="http://www.w3.org/1999/xlink" version="1.1">
<title></title>
<path d="M903.929 210.966l-5.934 6.238c-6.77 7.118-7.317 18.115-1.286 25.869 4.72 6.067 12.518 8.864 20.017 7.181l7.743-1.738c3.626-0.814 7.085-2.247 10.226-4.236l70.294-44.519c12.43-7.872 24.27-16.639 35.426-26.23l32.306-27.771c5.551-4.772 5.87-13.257 0.694-18.433-3.639-3.64-9.129-4.694-13.859-2.663l-34.687 14.903c-18.481 7.941-36.324 17.29-53.37 27.969l-61.789 38.707c-2.117 1.327-4.060 2.913-5.782 4.723z"></path>
<path d="M854.454 214.092l5.934 6.238c6.77 7.118 7.317 18.115 1.286 25.868-4.719 6.068-12.517 8.865-20.017 7.182l-7.743-1.738c-3.626-0.815-7.085-2.247-10.226-4.236l-70.294-44.52c-12.43-7.872-24.27-16.638-35.426-26.228l-32.306-27.773c-5.551-4.771-5.87-13.256-0.694-18.432 3.639-3.64 9.129-4.695 13.859-2.663l34.687 14.903c18.481 7.94 36.324 17.29 53.37 27.968l61.789 38.707c2.117 1.327 4.060 2.913 5.782 4.724z"></path>
<path d="M860.156 300.047l2.035-8.365c2.323-9.544 11.275-15.955 21.059-15.078 7.656 0.686 14.228 5.73 16.869 12.949l2.727 7.451c1.278 3.491 1.944 7.175 1.971 10.892l0.592 83.205c0.104 14.712-0.863 29.413-2.891 43.984l-5.877 42.196c-1.010 7.249-7.973 12.108-15.126 10.556-5.030-1.091-8.888-5.138-9.738-10.215l-6.234-37.234c-3.322-19.838-5.112-39.902-5.354-60.016l-0.878-72.906c-0.031-2.498 0.252-4.991 0.844-7.419z"></path>
<path d="M896.113 256.137c0 9.201-7.459 16.659-16.659 16.659s-16.659-7.459-16.659-16.659c0-9.201 7.459-16.659 16.659-16.659s16.659 7.459 16.659 16.659z"></path>
<path fill="none" stroke="currentColor" stroke-linejoin="miter" stroke-linecap="butt" stroke-miterlimit="4" stroke-width="11.85" d="M1126.537 256.136c0 134.163-108.761 242.924-242.924 242.924s-242.924-108.761-242.924-242.924c0-134.163 108.761-242.924 242.924-242.924s242.924 108.761 242.924 242.924z"></path>
<path d="M892.989 12.495c0 6.901-5.594 12.495-12.495 12.495s-12.495-5.594-12.495-12.495c0-6.901 5.594-12.495 12.495-12.495s12.495 5.594 12.495 12.495z"></path>
<path d="M903.929 813.034l-5.934-6.238c-6.77-7.118-7.317-18.115-1.286-25.869 4.72-6.067 12.518-8.864 20.017-7.181l7.743 1.738c3.626 0.814 7.085 2.247 10.226 4.236l70.294 44.519c12.43 7.872 24.27 16.639 35.426 26.23l32.306 27.771c5.551 4.772 5.87 13.257 0.694 18.433-3.639 3.639-9.129 4.694-13.859 2.662l-34.687-14.903c-18.481-7.941-36.324-17.29-53.37-27.969l-61.789-38.707c-2.117-1.327-4.060-2.913-5.782-4.723z"></path>
<path d="M854.454 809.908l5.934-6.238c6.77-7.118 7.317-18.115 1.286-25.868-4.719-6.068-12.517-8.865-20.017-7.182l-7.743 1.738c-3.626 0.815-7.085 2.247-10.226 4.236l-70.294 44.52c-12.43 7.872-24.27 16.638-35.426 26.228l-32.306 27.773c-5.551 4.771-5.87 13.256-0.694 18.432 3.639 3.64 9.129 4.695 13.859 2.662l34.687-14.903c18.481-7.94 36.324-17.29 53.37-27.968l61.789-38.707c2.117-1.327 4.060-2.913 5.782-4.724z"></path>
<path d="M860.156 723.953l2.035 8.365c2.323 9.544 11.275 15.955 21.059 15.078 7.656-0.686 14.228-5.73 16.869-12.949l2.727-7.451c1.278-3.491 1.944-7.175 1.971-10.892l0.592-83.205c0.104-14.712-0.863-29.413-2.891-43.984l-5.877-42.196c-1.010-7.249-7.973-12.108-15.126-10.556-5.030 1.091-8.888 5.138-9.738 10.215l-6.234 37.234c-3.322 19.838-5.112 39.902-5.354 60.016l-0.878 72.906c-0.031 2.498 0.252 4.991 0.844 7.419z"></path>
<path d="M896.113 767.863c0-9.201-7.459-16.659-16.659-16.659s-16.659 7.459-16.659 16.659c0 9.201 7.459 16.659 16.659 16.659s16.659-7.459 16.659-16.659z"></path>
<path fill="none" stroke="currentColor" stroke-linejoin="miter" stroke-linecap="butt" stroke-miterlimit="4" stroke-width="11.85" d="M1126.537 767.864c0-134.163-108.761-242.924-242.924-242.924s-242.924 108.761-242.924 242.924c0 134.163 108.761 242.924 242.924 242.924s242.924-108.761 242.924-242.924z"></path>
<path d="M892.989 1011.506c0-6.901-5.594-12.495-12.495-12.495s-12.495 5.594-12.495 12.495c0 6.901 5.594 12.495 12.495 12.495s12.495-5.594 12.495-12.495z"></path>
<path d="M232.070 210.966l5.934 6.238c6.771 7.118 7.317 18.115 1.286 25.869-4.719 6.067-12.517 8.864-20.017 7.181l-7.742-1.738c-3.627-0.814-7.087-2.247-10.226-4.236l-70.295-44.519c-12.43-7.872-24.27-16.639-35.426-26.23l-32.306-27.771c-5.551-4.772-5.87-13.257-0.695-18.433 3.64-3.64 9.13-4.694 13.859-2.663l34.687 14.903c18.481 7.941 36.323 17.29 53.369 27.969l61.789 38.707c2.118 1.327 4.061 2.913 5.782 4.723z"></path>
<path d="M281.546 214.092l-5.934 6.238c-6.77 7.118-7.317 18.115-1.286 25.868 4.719 6.068 12.517 8.865 20.017 7.182l7.743-1.738c3.626-0.815 7.085-2.247 10.226-4.236l70.294-44.52c12.43-7.872 24.269-16.638 35.426-26.228l32.306-27.773c5.551-4.771 5.87-13.256 0.694-18.432-3.64-3.64-9.13-4.695-13.859-2.663l-34.687 14.903c-18.481 7.94-36.324 17.29-53.37 27.968l-61.789 38.707c-2.118 1.327-4.060 2.913-5.782 4.724z"></path>
<path d="M275.844 300.047l-2.035-8.365c-2.323-9.544-11.277-15.955-21.059-15.078-7.656 0.686-14.228 5.73-16.869 12.949l-2.727 7.451c-1.278 3.491-1.944 7.175-1.971 10.892l-0.592 83.205c-0.105 14.712 0.861 29.413 2.891 43.984l5.877 42.196c1.010 7.249 7.972 12.108 15.126 10.556 5.030-1.091 8.888-5.138 9.738-10.215l6.234-37.234c3.322-19.838 5.112-39.902 5.354-60.016l0.878-72.906c0.029-2.498-0.254-4.991-0.844-7.419z"></path>
<path d="M239.887 256.137c0 9.201 7.459 16.659 16.659 16.659s16.659-7.459 16.659-16.659c0-9.201-7.459-16.659-16.659-16.659s-16.659 7.459-16.659 16.659z"></path>
<path fill="none" stroke="currentColor" stroke-linejoin="miter" stroke-linecap="butt" stroke-miterlimit="4" stroke-width="11.85" d="M9.463 256.136c0 134.163 108.761 242.924 242.924 242.924s242.924-108.761 242.924-242.924c0-134.163-108.761-242.924-242.924-242.924s-242.924 108.761-242.924 242.924z"></path>
<path d="M243.011 12.495c0 6.901 5.594 12.495 12.495 12.495s12.495-5.594 12.495-12.495c0-6.901-5.594-12.495-12.495-12.495s-12.495 5.594-12.495 12.495z"></path>
<path d="M246.097 813.034l5.934-6.238c6.771-7.118 7.317-18.115 1.286-25.869-4.719-6.067-12.517-8.864-20.017-7.181l-7.742 1.738c-3.627 0.814-7.087 2.247-10.226 4.236l-70.295 44.519c-12.429 7.872-24.269 16.639-35.426 26.23l-32.306 27.771c-5.551 4.772-5.87 13.257-0.695 18.433 3.64 3.639 9.13 4.694 13.859 2.662l34.687-14.903c18.481-7.941 36.323-17.29 53.369-27.969l61.789-38.707c2.118-1.327 4.061-2.913 5.782-4.723z"></path>
<path d="M295.573 809.908l-5.934-6.238c-6.77-7.118-7.317-18.115-1.286-25.868 4.719-6.068 12.517-8.865 20.017-7.182l7.743 1.738c3.626 0.815 7.085 2.247 10.226 4.236l70.294 44.52c12.43 7.872 24.269 16.638 35.426 26.228l32.306 27.773c5.551 4.771 5.87 13.256 0.694 18.432-3.64 3.64-9.13 4.695-13.859 2.662l-34.687-14.903c-18.481-7.94-36.324-17.29-53.37-27.968l-61.789-38.707c-2.118-1.327-4.060-2.913-5.782-4.724z"></path>
<path d="M289.871 723.953l-2.035 8.365c-2.323 9.544-11.277 15.955-21.059 15.078-7.656-0.686-14.228-5.73-16.869-12.949l-2.727-7.451c-1.278-3.491-1.944-7.175-1.971-10.892l-0.592-83.205c-0.105-14.712 0.861-29.413 2.891-43.984l5.877-42.196c1.010-7.249 7.972-12.108 15.126-10.556 5.030 1.091 8.888 5.138 9.738 10.215l6.234 37.234c3.322 19.838 5.112 39.902 5.354 60.016l0.878 72.906c0.029 2.498-0.254 4.991-0.844 7.419z"></path>
<path d="M253.914 767.863c0-9.201 7.459-16.659 16.659-16.659s16.659 7.459 16.659 16.659c0 9.201-7.459 16.659-16.659 16.659s-16.659-7.459-16.659-16.659z"></path>
<path fill="none" stroke="currentColor" stroke-linejoin="miter" stroke-linecap="butt" stroke-miterlimit="4" stroke-width="11.85" d="M23.489 767.864c0-134.163 108.761-242.924 242.924-242.924s242.924 108.761 242.924 242.924c0 134.163-108.761 242.924-242.924 242.924s-242.924-108.761-242.924-242.924z"></path>
<path d="M257.038 1011.506c0-6.901 5.594-12.495 12.495-12.495s12.495 5.594 12.495 12.495c0 6.901-5.594 12.495-12.495 12.495s-12.495-5.594-12.495-12.495z"></path>
<path fill="none" stroke="currentColor" stroke-linejoin="miter" stroke-linecap="round" stroke-miterlimit="4" stroke-width="14.0274" d="M515.534 315.616l-231.452 441.863"></path>
<path fill="none" stroke="currentColor" stroke-linejoin="miter" stroke-linecap="round" stroke-miterlimit="4" stroke-width="14.0274" d="M627.753 315.616l238.466 448.877"></path>
<path d="M480.466 56.11h182.356c7.747 0 14.027 6.28 14.027 14.027v42.082c0 7.747-6.28 14.027-14.027 14.027h-182.356c-7.747 0-14.027-6.28-14.027-14.027v-42.082c0-7.747 6.28-14.027 14.027-14.027z"></path>
<path d="M564.63 701.37h14.027v28.055h-14.027v-28.055z"></path>
<path d="M550.602 729.425h42.082c7.747 0 14.027 6.28 14.027 14.027s-6.28 14.027-14.027 14.027h-42.082c-7.747 0-14.027-6.28-14.027-14.027s6.28-14.027 14.027-14.027z"></path>
<path fill="none" stroke="currentColor" stroke-linejoin="miter" stroke-linecap="round" stroke-miterlimit="4" stroke-width="14.0274" d="M417.342 441.863h308.603"></path>
<path fill="none" stroke="currentColor" stroke-linejoin="miter" stroke-linecap="round" stroke-miterlimit="4" stroke-width="14.0274" d="M445.397 596.164h252.493"></path>
<path fill="none" stroke="currentColor" stroke-linejoin="miter" stroke-linecap="butt" stroke-miterlimit="4" stroke-width="14.0274" d="M866.219 259.507l-231.452 70.137M263.041 259.507l245.479 63.123M964.411 483.945v21.041c0 7.747 6.28 14.027 14.027 14.027h63.123"></path>
<path d="M1013.507 504.986h28.055c7.747 0 14.027 6.28 14.027 14.027s-6.28 14.027-14.027 14.027h-28.055c-7.747 0-14.027-6.28-14.027-14.027s6.28-14.027 14.027-14.027z"></path>
<path d="M522.548 56.11h98.192c7.747 0 14.027 6.28 14.027 14.027v631.231c0 7.747-6.28 14.027-14.027 14.027h-98.192c-7.747 0-14.027-6.28-14.027-14.027v-631.231c0-7.747 6.28-14.027 14.027-14.027zM571.644 126.247c-27.115 0-49.096 21.981-49.096 49.096v231.452h98.192v-231.452c0-27.115-21.981-49.096-49.096-49.096z"></path>
</svg>
