<svg viewBox="0 0 32 32" xmlns="http://www.w3.org/2000/svg">
<path d="M16.19 0c8.522 0 15.431 6.909 15.431 15.431s-6.909 15.431-15.431 15.431c-8.522 0-15.431-6.909-15.431-15.431s6.909-15.431 15.431-15.431z"></path>
<path fill="#2f2d2e" style="fill: var(--color2, #2f2d2e)" d="M13.962 10.465c0 0.32-0.104 0.598-0.31 0.832s-0.502 0.351-0.884 0.351c-0.367 0-0.66-0.113-0.879-0.34s-0.328-0.5-0.328-0.82c0-0.32 0.107-0.605 0.322-0.855s0.51-0.375 0.885-0.375c0.367 0 0.656 0.119 0.867 0.357s0.32 0.521 0.328 0.849zM11.56 20.060v-7.803h2.402v7.803h-2.402zM15.157 14.929c0-0.461-0.006-0.889-0.018-1.283s-0.025-0.756-0.041-1.084h2.156l0.105 1.031h0.047c0.156-0.242 0.422-0.504 0.797-0.785s0.875-0.422 1.5-0.422c0.375 0 0.726 0.064 1.054 0.193s0.609 0.326 0.844 0.592 0.42 0.599 0.557 1.002c0.137 0.402 0.205 0.877 0.205 1.423v4.463h-2.402v-4.112c0-0.477-0.096-0.877-0.287-1.201s-0.494-0.486-0.908-0.486c-0.32 0-0.568 0.104-0.744 0.311s-0.303 0.416-0.381 0.627c-0.031 0.078-0.053 0.168-0.064 0.269s-0.018 0.203-0.018 0.305v4.288h-2.402v-5.131z"></path>
</svg>
