<svg viewBox="0 0 12 19" xmlns="http://www.w3.org/2000/svg" xmlns:svg="http://www.w3.org/2000/svg">
  <path style="fill-opacity:0.19; fill: #fff;" d="m 12,16.705099 a 6,1.7647099 0 0 1 -6,1.76471 6,1.7647099 0 0 1 -6,-1.76471 6,1.7647099 0 0 1 6,-1.76471 6,1.7647099 0 0 1 6,1.76471 z" />
  <path style="fill: #fff" d="M 6.0097656,4.3535156 A 0.35294101,0.35294101 0 0 0 5.65625,4.7050781 V 16 A 0.35294101,0.35294101 0 0 0 6.0097656,16.353516 0.35294101,0.35294101 0 0 0 6.3613281,16 V 4.7050781 A 0.35294101,0.35294101 0 0 0 6.0097656,4.3535156 Z"/>
  <path d="M 9.1810701,3.9997101 A 3.17647,3.17647 0 0 1 6.0046,7.1761801 3.17647,3.17647 0 0 1 2.82813,3.9997101 3.17647,3.17647 0 0 1 6.0046,0.82324004 3.17647,3.17647 0 0 1 9.1810701,3.9997101 Z" />
</svg>
