<svg viewBox="0 0 138 48" xmlns="http://www.w3.org/2000/svg">
<path d="M134.895 41.1536L136.197 36.7061H137.833L135.641 43.282V47.7454H134.101V43.282L131.909 36.7061H133.545L134.895 41.1536Z"/>
<path d="M121.417 46.8242C121.004 47.4675 120.559 47.8964 119.979 47.8964C118.486 47.8964 117.438 46.9195 117.438 44.1954V40.2244C117.438 37.5082 118.486 36.5234 119.979 36.5234C121.473 36.5234 122.362 37.7624 122.457 40.2721H120.917C120.917 38.8504 120.535 38.3898 119.979 38.3898C119.423 38.3898 118.979 38.7234 118.979 39.9782V44.4734C118.979 45.6964 119.368 46.0618 119.979 46.0618C120.591 46.0618 120.917 45.482 120.917 44.5369V43.8221H119.836V42.0749H122.457V47.7296H121.663L121.433 46.8162"/>
<path d="M102.555 40.2498C102.555 37.5257 103.603 36.5488 105.096 36.5488C106.589 36.5488 107.638 37.5257 107.638 40.2498V44.2208C107.638 46.9449 106.589 47.9218 105.096 47.9218C103.603 47.9218 102.555 46.9449 102.555 44.2208V40.2498ZM104.087 44.467C104.087 45.6901 104.477 46.0554 105.088 46.0554C105.7 46.0554 106.089 45.7218 106.089 44.467V39.9798C106.089 38.7567 105.7 38.3914 105.088 38.3914C104.477 38.3914 104.087 38.7249 104.087 39.9798V44.467Z"/>
<path d="M89.0454 47.7454V36.7061H90.5782V45.879H93.0561V47.7454H89.0454Z"/>
<path d="M74.019 40.2498C74.019 37.5257 75.0674 36.5488 76.5605 36.5488C78.0536 36.5488 79.1019 37.5257 79.1019 40.2498V44.2208C79.1019 46.9449 78.0536 47.9218 76.5605 47.9218C75.0674 47.9218 74.019 46.9449 74.019 44.2208V40.2498ZM75.5598 44.467C75.5598 45.6901 75.9489 46.0554 76.5605 46.0554C77.172 46.0554 77.5612 45.7218 77.5612 44.467V39.9798C77.5612 38.7567 77.172 38.3914 76.5605 38.3914C75.9489 38.3914 75.5598 38.7249 75.5598 39.9798V44.467Z"/>
<path d="M58.7388 47.7454V36.7061H60.4225L62.5668 43.2502H62.5827V36.7061H63.9884V47.7454H62.5192L60.1683 40.6215H60.1445V47.7454H58.7388Z"/>
<path d="M43.2363 47.7454V36.7061H44.7771V41.1059H46.9532V36.7061H48.486V47.7454H46.9532V42.9723H44.7771V47.7454H43.2363Z"/>
<path d="M29.6633 44.4742C29.6633 45.6973 30.0525 46.0626 30.664 46.0626C31.2755 46.0626 31.6647 45.729 31.6647 44.4742V43.7436H33.2054V44.2042C33.2054 46.9283 32.1571 47.9051 30.664 47.9051C29.1709 47.9051 28.1226 46.9283 28.1226 44.2042V40.2332C28.1226 37.5091 29.1709 36.5322 30.664 36.5322C32.1571 36.5322 33.2054 37.5091 33.2054 40.2332H31.6726V39.9314C31.6726 38.7083 31.2835 38.343 30.6719 38.343C30.0604 38.343 29.6712 38.6766 29.6712 39.9314V44.4266"/>
<path d="M14.3672 47.7454V36.7061H18.5764V38.5724H15.9V41.1059H17.9411V42.9723H15.9V45.879H18.6876V47.7454H14.3672Z"/>
<path d="M5.13052 36.7061V38.5724H3.33563V47.7454H1.79489V38.5724H0V36.7061H5.13052Z"/>
<path d="M116.93 1.91406H126.635C131.996 1.91406 137.055 3.65336 137.055 9.91959C137.055 13.9462 134.728 16.9006 130.582 17.4962L138 29.846H132.004L125.531 18.0125H121.901V29.846H116.93V1.91406ZM125.769 13.7476C128.573 13.7476 131.845 13.5094 131.845 9.87988C131.845 6.56807 128.771 6.17097 126.206 6.17097H121.909V13.7476H125.769Z"/>
<path d="M98.1076 1.19945C106.844 1.04061 112.983 6.87797 112.983 15.8365C112.983 24.5727 106.828 30.3942 98.1076 30.553C89.5064 30.561 83.3911 24.7157 83.3911 16.0271C83.3911 7.04475 89.5064 1.19945 98.1076 1.19945ZM98.1473 26.0579C103.945 26.0579 107.773 21.6421 107.773 15.6856C107.773 10.1262 103.945 5.70256 98.1473 5.70256C92.3497 5.70256 88.5613 10.1183 88.5613 15.6856C88.5613 21.6421 92.3894 26.0579 98.1473 26.0579Z"/>
<path d="M77.8314 8.46509C75.7426 6.28898 73.8604 5.70128 71.9146 5.70128C66.1566 5.70128 62.3286 10.117 62.3286 15.6844C62.3286 21.6408 66.1566 26.0566 71.9146 26.0566C74.1622 26.0566 76.3303 25.0321 78.1887 22.6654L82.2868 25.5562C79.7613 29.0269 75.9729 30.5279 71.8669 30.5279C63.2737 30.5597 57.1187 24.7144 57.1187 16.0259C57.1187 7.04347 63.2737 1.19817 71.8749 1.19817C73.7358 1.13604 75.5861 1.50267 77.2827 2.26973C78.9793 3.03678 80.4768 4.18371 81.6594 5.62186L77.8314 8.46509Z"/>
<path d="M53.291 1.91406H48.3193V29.846H53.291V1.91406Z"/>
<path d="M39.0589 29.1136L0.0478516 31.5597L3.01815 24.6025L39.0589 29.1136Z"/>
<path d="M10.0146 22.4913L11.8969 18.1709L39.0585 23.365L10.0146 22.4913Z"/>
<path d="M16.8926 15.7082L18.2586 12.7617L39.2016 17.2172L16.8926 15.7082Z"/>
<path d="M23.27 10.6812L39.0587 11.1736L24.1436 8.55273L23.27 10.6812Z"/>
<path d="M39.0589 5.80478L29.0996 6.2813L29.8462 4.66113L39.0589 5.80478Z"/>
<path d="M33.3804 2.23901L39.0589 1.8022L34.1269 0.936523L33.3804 2.23901Z"/>
</svg>
