<svg
   viewBox="0 0 19 22"
   version="1.1"
   xmlns="http://www.w3.org/2000/svg"
   xmlns:svg="http://www.w3.org/2000/svg">
    <path
       style="fill:none;"
       d="M 3.0735,15.1997 3.07211,15.1984 C 1.35235,13.5137 0.5,11.4939 0.5,9.11111 0.5,6.72829 1.35235,4.70851 3.07211,3.02385 4.79286,1.33821 6.85216,0.5 9.27778,0.5 11.7033,0.5 13.7523,1.33807 15.4538,3.02205 17.1556,4.70629 18,6.72661 18,9.11111 c 0,2.38419 -0.8441,4.40419 -2.5454,6.08829 -3e-4,3e-4 -5e-4,5e-4 -8e-4,8e-4 l -5.1493,5.062 C 9.72001,20.8368 8.78246,20.8358 8.19915,20.26 Z"
       />
    <path
       d="M 9.2773438,0 C 6.7365379,0 4.5266666,0.89881415 2.7226563,2.6660156 0.9191807,4.4326826 0,6.6092752 0,9.1113281 0,11.613353 0.91918361,13.787981 2.7226563,15.554688 l 0.00977,0.0098 5.1152343,5.050781 c 0.7737319,0.763771 2.0313275,0.766101 2.8066408,0.0039 l 5.152344,-5.064453 0.002,-0.002 C 17.591848,13.786539 18.5,11.612577 18.5,9.1113281 18.5,6.6087905 17.589802,4.4327106 15.804688,2.6660156 14.019495,0.89920504 11.818035,0 9.2773438,0 Z m 0,1 C 11.587688,1 13.483758,1.7758071 15.101563,3.3769531 16.720044,4.9787348 17.5,6.8448705 17.5,9.1113281 17.5,11.377502 16.721513,13.24211 15.103516,14.84375 l -0.002,0.002 -5.148438,5.060547 c -0.3936656,0.387005 -1.0094567,0.385876 -1.4023437,-0.002 L 3.4199219,14.839844 C 1.7852994,13.237614 1,11.373914 1,9.1113281 1,6.8477459 1.785834,4.9835091 3.421875,3.3808594 5.0593613,1.7767842 6.9669145,1 9.2773438,1 Z"
       />
</svg>
