<svg version="1.1" xmlns="http://www.w3.org/2000/svg" xmlns:xlink="http://www.w3.org/1999/xlink" viewBox="0 0 23 35" style="enable-background:new 0 0 23 35;" xml:space="preserve">
<path d="M12.1,22.3h-1.1c-3.1,0-5.6-2.5-5.6-5.6V6c0-3.1,2.5-5.6,5.6-5.6h1.1c3.1,0,5.6,2.5,5.6,5.6v10.7 C17.7,19.8,15.1,22.3,12.1,22.3z M10.9,2.3C8.9,2.3,7.2,4,7.2,6v10.7c0,2,1.7,3.7,3.7,3.7h1.1c2,0,3.7-1.7,3.7-3.7V6 c0-2-1.7-3.7-3.7-3.7H10.9z"/>
<path d="M12.4,26.8v5.9h3c0.5,0,0.9,0.4,0.9,0.9c0,0.5-0.4,0.9-0.9,0.9H7.2c-0.5,0-0.9-0.4-0.9-0.9 c0-0.5,0.4-0.9,0.9-0.9h3.4v-5.9c-5.5-0.5-9.8-5.1-9.8-10.7c0-0.5,0.4-0.9,0.9-0.9c0.5,0,0.9,0.4,0.9,0.9c0,4.9,4,8.9,8.9,8.9 s8.9-4,8.9-8.9c0-0.5,0.4-0.9,0.9-0.9c0.5,0,0.9,0.4,0.9,0.9C22.2,21.8,17.9,26.4,12.4,26.8z"/>
</svg>
