<svg viewBox="0 0 32 32" fill="none" xmlns="http://www.w3.org/2000/svg">
<path d="M5.053 2.526c0 1.395-1.131 2.526-2.526 2.526s-2.526-1.131-2.526-2.526c0-1.395 1.131-2.526 2.526-2.526s2.526 1.131 2.526 2.526z"></path>
<path d="M5.053 16c0 1.395-1.131 2.526-2.526 2.526s-2.526-1.131-2.526-2.526c0-1.395 1.131-2.526 2.526-2.526s2.526 1.131 2.526 2.526z"></path>
<path d="M5.053 29.474c0 1.395-1.131 2.526-2.526 2.526s-2.526-1.131-2.526-2.526c0-1.395 1.131-2.526 2.526-2.526s2.526 1.131 2.526 2.526z"></path>
<path d="M18.526 2.526c0 1.395-1.131 2.526-2.526 2.526s-2.526-1.131-2.526-2.526c0-1.395 1.131-2.526 2.526-2.526s2.526 1.131 2.526 2.526z"></path>
<path d="M18.526 16c0 1.395-1.131 2.526-2.526 2.526s-2.526-1.131-2.526-2.526c0-1.395 1.131-2.526 2.526-2.526s2.526 1.131 2.526 2.526z"></path>
<path d="M18.526 29.474c0 1.395-1.131 2.526-2.526 2.526s-2.526-1.131-2.526-2.526c0-1.395 1.131-2.526 2.526-2.526s2.526 1.131 2.526 2.526z"></path>
<path d="M32 2.526c0 1.395-1.131 2.526-2.526 2.526s-2.526-1.131-2.526-2.526c0-1.395 1.131-2.526 2.526-2.526s2.526 1.131 2.526 2.526z"></path>
<path d="M32 16c0 1.395-1.131 2.526-2.526 2.526s-2.526-1.131-2.526-2.526c0-1.395 1.131-2.526 2.526-2.526s2.526 1.131 2.526 2.526z"></path>
<path d="M32 29.474c0 1.395-1.131 2.526-2.526 2.526s-2.526-1.131-2.526-2.526c0-1.395 1.131-2.526 2.526-2.526s2.526 1.131 2.526 2.526z"></path>
</svg>
