<?xml version="1.0" encoding="UTF-8" standalone="no"?>
<svg viewBox="0 0 99 29" version="1.1" xmlns="http://www.w3.org/2000/svg" xmlns:svg="http://www.w3.org/2000/svg">
  <path d="m 42.011719,22.40625 c -1.461795,0 -2.658203,1.196408 -2.658203,2.658203 0,1.461795 1.196408,2.65625 2.658203,2.65625 1.461795,0 2.65625,-1.194455 2.65625,-2.65625 0,-1.461795 -1.194455,-2.658203 -2.65625,-2.658203 z m 0,1 c 0.921355,0 1.65625,0.736848 1.65625,1.658203 0,0.921356 -0.734895,1.65625 -1.65625,1.65625 -0.921356,0 -1.658203,-0.734894 -1.658203,-1.65625 0,-0.921355 0.736847,-1.658203 1.658203,-1.658203 z"/>
  <path d="m 56.882812,22.40625 c -1.461794,0 -2.658203,1.196408 -2.658203,2.658203 0,1.461795 1.196409,2.65625 2.658203,2.65625 1.461795,0 2.65625,-1.194455 2.65625,-2.65625 0,-1.461795 -1.194455,-2.658203 -2.65625,-2.658203 z m 0,1 c 0.921356,0 1.65625,0.736848 1.65625,1.658203 0,0.921356 -0.734894,1.65625 -1.65625,1.65625 -0.921355,0 -1.658203,-0.734894 -1.658203,-1.65625 0,-0.921355 0.736848,-1.658203 1.658203,-1.658203 z"/>
  <mask
     id="path-3-inside-1_1965_17771"
     fill="white">
    <path
       fill-rule="evenodd"
       clip-rule="evenodd"
       d="M46.8735 22.4062C46.6651 22.4062 46.4961 22.5752 46.4961 22.7837V24.5001H43.9601C43.6995 24.5001 43.4883 24.7114 43.4883 24.9719V25.7463C43.4883 26.0069 43.6995 26.2181 43.9601 26.2181H46.4961V27.9344C46.4961 28.1429 46.6651 28.3119 46.8735 28.3119H52.0243C52.2327 28.3119 52.4017 28.1429 52.4017 27.9344V26.2181H54.9351C55.1957 26.2181 55.4069 26.0069 55.4069 25.7463V24.9719C55.4069 24.7114 55.1957 24.5001 54.9351 24.5001H52.4017V22.7837C52.4017 22.5752 52.2327 22.4062 52.0243 22.4062H46.8735Z"
       id="path588" />
  </mask>
  <path
     d="M46.4961 24.5001V25.5001H47.4961V24.5001H46.4961ZM46.4961 26.2181H47.4961V25.2181H46.4961V26.2181ZM52.4017 26.2181V25.2181H51.4017V26.2181H52.4017ZM52.4017 24.5001H51.4017V25.5001H52.4017V24.5001ZM47.4961 22.7837C47.4961 23.1275 47.2174 23.4062 46.8735 23.4062V21.4062C46.1128 21.4062 45.4961 22.023 45.4961 22.7837H47.4961ZM47.4961 24.5001V22.7837H45.4961V24.5001H47.4961ZM43.9601 25.5001H46.4961V23.5001H43.9601V25.5001ZM44.4883 24.9719C44.4883 25.2637 44.2518 25.5001 43.9601 25.5001V23.5001C43.1472 23.5001 42.4883 24.1591 42.4883 24.9719H44.4883ZM44.4883 25.7463V24.9719H42.4883V25.7463H44.4883ZM43.9601 25.2181C44.2518 25.2181 44.4883 25.4546 44.4883 25.7463H42.4883C42.4883 26.5592 43.1472 27.2181 43.9601 27.2181V25.2181ZM46.4961 25.2181H43.9601V27.2181H46.4961V25.2181ZM47.4961 27.9344V26.2181H45.4961V27.9344H47.4961ZM46.8735 27.3119C47.2174 27.3119 47.4961 27.5906 47.4961 27.9344H45.4961C45.4961 28.6952 46.1128 29.3119 46.8735 29.3119V27.3119ZM52.0243 27.3119H46.8735V29.3119H52.0243V27.3119ZM51.4017 27.9344C51.4017 27.5906 51.6805 27.3119 52.0243 27.3119V29.3119C52.785 29.3119 53.4017 28.6952 53.4017 27.9344H51.4017ZM51.4017 26.2181V27.9344H53.4017V26.2181H51.4017ZM54.9351 25.2181H52.4017V27.2181H54.9351V25.2181ZM54.4069 25.7463C54.4069 25.4546 54.6434 25.2181 54.9351 25.2181V27.2181C55.748 27.2181 56.4069 26.5592 56.4069 25.7463H54.4069ZM54.4069 24.9719V25.7463H56.4069V24.9719H54.4069ZM54.9351 25.5001C54.6434 25.5001 54.4069 25.2637 54.4069 24.9719H56.4069C56.4069 24.1591 55.748 23.5001 54.9351 23.5001V25.5001ZM52.4017 25.5001H54.9351V23.5001H52.4017V25.5001ZM51.4017 22.7837V24.5001H53.4017V22.7837H51.4017ZM52.0243 23.4062C51.6805 23.4062 51.4017 23.1275 51.4017 22.7837H53.4017C53.4017 22.0229 52.785 21.4062 52.0243 21.4062V23.4062ZM46.8735 23.4062H52.0243V21.4062H46.8735V23.4062Z"
     fill="#100E0F"
     mask="url(#path-3-inside-1_1965_17771)"/>
  <mask
     id="path-5-inside-2_1965_17771"
     fill="white">
    <path
       fill-rule="evenodd"
       clip-rule="evenodd"
       d="M47.084 7.45971C47.084 6.73012 47.6754 6.13867 48.405 6.13867H50.5411C51.2707 6.13867 51.8622 6.73012 51.8622 7.45971V8.68314C51.8622 8.90853 51.8057 9.12074 51.7062 9.3064H56.1955C56.5603 9.3064 56.8561 9.60213 56.8561 9.96692V10.8986C56.9866 10.8754 57.121 10.8633 57.2583 10.8633C58.5184 10.8633 59.54 11.8848 59.54 13.145C59.54 14.4052 58.5184 15.4267 57.2583 15.4267C57.121 15.4267 56.9866 15.4146 56.8561 15.3914V18.0412C56.8561 18.406 56.5603 18.7017 56.1955 18.7017H54.8334C54.4686 18.7017 54.1728 18.9975 54.1728 19.3623V20.7257C54.1728 21.0905 53.8771 21.3862 53.5123 21.3862H45.3306C44.9658 21.3862 44.6701 21.0905 44.6701 20.7257V19.3623C44.6701 18.9975 44.3744 18.7017 44.0096 18.7017H42.6451C42.2803 18.7017 41.9846 18.406 41.9846 18.0412V15.2903C41.7415 15.3786 41.4791 15.4267 41.2056 15.4267C39.9454 15.4267 38.9238 14.4052 38.9238 13.145C38.9238 11.8848 39.9454 10.8633 41.2056 10.8633C41.4791 10.8633 41.7415 10.9114 41.9846 10.9997V9.96692C41.9846 9.60213 42.2803 9.3064 42.6451 9.3064H47.24C47.1404 9.12074 47.084 8.90853 47.084 8.68314V7.45971Z"
       />
  </mask>
  <path
     fill-rule="evenodd"
     clip-rule="evenodd"
     d="M47.084 7.45971C47.084 6.73012 47.6754 6.13867 48.405 6.13867H50.5411C51.2707 6.13867 51.8622 6.73012 51.8622 7.45971V8.68314C51.8622 8.90853 51.8057 9.12074 51.7062 9.3064H56.1955C56.5603 9.3064 56.8561 9.60213 56.8561 9.96692V10.8986C56.9866 10.8754 57.121 10.8633 57.2583 10.8633C58.5184 10.8633 59.54 11.8848 59.54 13.145C59.54 14.4052 58.5184 15.4267 57.2583 15.4267C57.121 15.4267 56.9866 15.4146 56.8561 15.3914V18.0412C56.8561 18.406 56.5603 18.7017 56.1955 18.7017H54.8334C54.4686 18.7017 54.1728 18.9975 54.1728 19.3623V20.7257C54.1728 21.0905 53.8771 21.3862 53.5123 21.3862H45.3306C44.9658 21.3862 44.6701 21.0905 44.6701 20.7257V19.3623C44.6701 18.9975 44.3744 18.7017 44.0096 18.7017H42.6451C42.2803 18.7017 41.9846 18.406 41.9846 18.0412V15.2903C41.7415 15.3786 41.4791 15.4267 41.2056 15.4267C39.9454 15.4267 38.9238 14.4052 38.9238 13.145C38.9238 11.8848 39.9454 10.8633 41.2056 10.8633C41.4791 10.8633 41.7415 10.9114 41.9846 10.9997V9.96692C41.9846 9.60213 42.2803 9.3064 42.6451 9.3064H47.24C47.1404 9.12074 47.084 8.90853 47.084 8.68314V7.45971Z"
     fill="#100E0F" />
  <path
     d="M51.7062 9.3064L50.8249 8.83393L50.0355 10.3064H51.7062V9.3064ZM56.8561 10.8986H55.8561V12.0922L57.0312 11.8832L56.8561 10.8986ZM56.8561 15.3914L57.0312 14.4068L55.8561 14.1978V15.3914H56.8561ZM41.9846 15.2903H42.9846V13.8632L41.6432 14.3504L41.9846 15.2903ZM41.9846 10.9997L41.6432 11.9397L42.9846 12.4269V10.9997H41.9846ZM47.24 9.3064V10.3064H48.9107L48.1213 8.83393L47.24 9.3064ZM48.405 5.13867C47.1231 5.13867 46.084 6.17784 46.084 7.45971H48.084C48.084 7.28241 48.2277 7.13867 48.405 7.13867V5.13867ZM50.5411 5.13867H48.405V7.13867H50.5411V5.13867ZM52.8622 7.45971C52.8622 6.17784 51.823 5.13867 50.5411 5.13867V7.13867C50.7184 7.13867 50.8622 7.28241 50.8622 7.45971H52.8622ZM52.8622 8.68314V7.45971H50.8622V8.68314H52.8622ZM52.5876 9.77887C52.7631 9.45148 52.8622 9.0774 52.8622 8.68314H50.8622C50.8622 8.73966 50.8484 8.79 50.8249 8.83393L52.5876 9.77887ZM56.1955 8.3064H51.7062V10.3064H56.1955V8.3064ZM57.8561 9.96692C57.8561 9.04984 57.1126 8.3064 56.1955 8.3064V10.3064C56.008 10.3064 55.8561 10.1544 55.8561 9.96692H57.8561ZM57.8561 10.8986V9.96692H55.8561V10.8986H57.8561ZM57.2583 9.86328C57.0621 9.86328 56.8691 9.88061 56.6809 9.91407L57.0312 11.8832C57.1042 11.8702 57.18 11.8633 57.2583 11.8633V9.86328ZM60.54 13.145C60.54 11.3326 59.0707 9.86328 57.2583 9.86328V11.8633C57.9662 11.8633 58.54 12.4371 58.54 13.145H60.54ZM57.2583 16.4267C59.0707 16.4267 60.54 14.9575 60.54 13.145H58.54C58.54 13.8529 57.9662 14.4267 57.2583 14.4267V16.4267ZM56.6809 16.3759C56.8691 16.4094 57.0621 16.4267 57.2583 16.4267V14.4267C57.18 14.4267 57.1042 14.4198 57.0312 14.4068L56.6809 16.3759ZM57.8561 18.0412V15.3914H55.8561V18.0412H57.8561ZM56.1955 19.7017C57.1126 19.7017 57.8561 18.9583 57.8561 18.0412H55.8561C55.8561 17.8537 56.008 17.7017 56.1955 17.7017V19.7017ZM54.8334 19.7017H56.1955V17.7017H54.8334V19.7017ZM55.1728 19.3623C55.1728 19.5497 55.0208 19.7017 54.8334 19.7017V17.7017C53.9163 17.7017 53.1728 18.4452 53.1728 19.3623H55.1728ZM55.1728 20.7257V19.3623H53.1728V20.7257H55.1728ZM53.5123 22.3862C54.4294 22.3862 55.1728 21.6428 55.1728 20.7257H53.1728C53.1728 20.5382 53.3248 20.3862 53.5123 20.3862V22.3862ZM45.3306 22.3862H53.5123V20.3862H45.3306V22.3862ZM43.6701 20.7257C43.6701 21.6428 44.4136 22.3862 45.3306 22.3862V20.3862C45.5181 20.3862 45.6701 20.5382 45.6701 20.7257H43.6701ZM43.6701 19.3623V20.7257H45.6701V19.3623H43.6701ZM44.0096 19.7017C43.8221 19.7017 43.6701 19.5497 43.6701 19.3623H45.6701C45.6701 18.4452 44.9267 17.7017 44.0096 17.7017V19.7017ZM42.6451 19.7017H44.0096V17.7017H42.6451V19.7017ZM40.9846 18.0412C40.9846 18.9583 41.728 19.7017 42.6451 19.7017V17.7017C42.8326 17.7017 42.9846 17.8537 42.9846 18.0412H40.9846ZM40.9846 15.2903V18.0412H42.9846V15.2903H40.9846ZM41.2056 16.4267C41.5972 16.4267 41.975 16.3577 42.326 16.2302L41.6432 14.3504C41.5079 14.3995 41.361 14.4267 41.2056 14.4267V16.4267ZM37.9238 13.145C37.9238 14.9575 39.3931 16.4267 41.2056 16.4267V14.4267C40.4977 14.4267 39.9238 13.8529 39.9238 13.145H37.9238ZM41.2056 9.86329C39.3931 9.86329 37.9238 11.3326 37.9238 13.145H39.9238C39.9238 12.4371 40.4977 11.8633 41.2056 11.8633V9.86329ZM42.326 10.0598C41.975 9.93235 41.5972 9.86329 41.2056 9.86329V11.8633C41.361 11.8633 41.5079 11.8905 41.6432 11.9397L42.326 10.0598ZM40.9846 9.96692V10.9997H42.9846V9.96692H40.9846ZM42.6451 8.3064C41.728 8.3064 40.9846 9.04984 40.9846 9.96692H42.9846C42.9846 10.1544 42.8326 10.3064 42.6451 10.3064V8.3064ZM47.24 8.3064H42.6451V10.3064H47.24V8.3064ZM46.084 8.68314C46.084 9.0774 46.1831 9.45148 46.3586 9.77887L48.1213 8.83393C48.0978 8.79 48.084 8.73966 48.084 8.68314H46.084ZM46.084 7.45971V8.68314H48.084V7.45971H46.084Z"
     fill="#100E0F"
     mask="url(#path-5-inside-2_1965_17771)" />
  <path d="m 2,9 c -1.09935028,0 -2,0.9006497 -2,2 0,1.09935 0.90064972,2 2,2 h 34 c 1.09935,0 2,-0.90065 2,-2 0,-1.0993503 -0.90065,-2 -2,-2 z m 0,1 h 34 c 0.562648,0 1,0.437352 1,1 0,0.562648 -0.437352,1 -1,1 H 2 C 1.4373519,12 1,11.562648 1,11 1,10.437352 1.4373519,10 2,10 Z"/>
  <path d="M 6,4 C 4.9006497,4 4,4.9006497 4,6 4,7.0993503 4.9006497,8 6,8 H 40 C 41.09935,8 42,7.0993503 42,6 42,4.9006497 41.09935,4 40,4 Z m 0,1 h 34 c 0.562648,0 1,0.4373519 1,1 0,0.5626481 -0.437352,1 -1,1 H 6 C 5.4373519,7 5,6.5626481 5,6 5,5.4373519 5.4373519,5 6,5 Z"/>
  <path d="m 60,4 c -1.09935,0 -2,0.9006497 -2,2 0,1.0993503 0.90065,2 2,2 H 94 C 95.09935,8 96,7.0993503 96,6 96,4.9006497 95.09935,4 94,4 Z m 0,1 h 34 c 0.562648,0 1,0.4373519 1,1 0,0.5626481 -0.437352,1 -1,1 H 60 C 59.437352,7 59,6.5626481 59,6 59,5.4373519 59.437352,5 60,5 Z"/>
  <path d="m 63,9 c -1.09935,0 -2,0.9006497 -2,2 0,1.09935 0.90065,2 2,2 h 34 c 1.09935,0 2,-0.90065 2,-2 0,-1.0993503 -0.90065,-2 -2,-2 z m 0,1 h 34 c 0.562648,0 1,0.437352 1,1 0,0.562648 -0.437352,1 -1,1 H 63 c -0.562648,0 -1,-0.437352 -1,-1 0,-0.562648 0.437352,-1 1,-1 z"/>
  <path d="M 0.5,0.82421875 A 0.5,0.5 0 0 0 0,1.3242187 V 16.054687 a 0.5,0.5 0 0 0 0.5,0.5 0.5,0.5 0 0 0 0.5,-0.5 V 1.3242187 A 0.5,0.5 0 0 0 0.5,0.82421875 Z" />
  <path d="M 98.5,0.82421875 A 0.5,0.5 0 0 0 98,1.3242187 V 16.054687 a 0.5,0.5 0 0 0 0.5,0.5 0.5,0.5 0 0 0 0.5,-0.5 V 1.3242187 A 0.5,0.5 0 0 0 98.5,0.82421875 Z" />
  <path d="M 80.5,13 A 0.5,0.5 0 0 0 80,13.5 v 12 A 0.5,0.5 0 0 0 80.5,26 0.5,0.5 0 0 0 81,25.5 v -12 A 0.5,0.5 0 0 0 80.5,13 Z" />
  <path d="M 18.5,13 A 0.5,0.5 0 0 0 18,13.5 v 12 A 0.5,0.5 0 0 0 18.5,26 0.5,0.5 0 0 0 19,25.5 v -12 A 0.5,0.5 0 0 0 18.5,13 Z" />
</svg>
