<?xml version="1.0" encoding="UTF-8" standalone="no"?>
<svg
   viewBox="0 0 39 35"
   fill="none"
   version="1.1"
      xmlns="http://www.w3.org/2000/svg"
   xmlns:svg="http://www.w3.org/2000/svg">
  <path
     d="m 1.5,3.5234375 a 1.5,1.5 0 0 0 -1.5,1.5 V 29.082031 a 1.5,1.5 0 0 0 1.5,1.5 1.5,1.5 0 0 0 1.5,-1.5 V 5.0234375 a 1.5,1.5 0 0 0 -1.5,-1.5 z"
     />
  <path
     d="M 37.5,11 A 1.5,1.5 0 0 0 36,12.5 v 9 A 1.5,1.5 0 0 0 37.5,23 1.5,1.5 0 0 0 39,21.5 v -9 A 1.5,1.5 0 0 0 37.5,11 Z"
     id="line24" />
  <path
     d="m 7.5,10.117188 a 1.5,1.5 0 0 0 -1.5,1.5 v 10.86914 a 1.5,1.5 0 0 0 1.5,1.5 1.5,1.5 0 0 0 1.5,-1.5 v -10.86914 a 1.5,1.5 0 0 0 -1.5,-1.5 z"
     id="line26" />
  <path
     d="M 31.5,5 A 1.5,1.5 0 0 0 30,6.5 v 21 A 1.5,1.5 0 0 0 31.5,29 1.5,1.5 0 0 0 33,27.5 V 6.5 A 1.5,1.5 0 0 0 31.5,5 Z"
     id="line28" />
  <path
     d="M 19.5,0 A 1.5,1.5 0 0 0 18,1.5 v 31.105469 a 1.5,1.5 0 0 0 1.5,1.5 1.5,1.5 0 0 0 1.5,-1.5 V 1.5 A 1.5,1.5 0 0 0 19.5,0 Z"
     id="line30" />
  <path
     d="m 13.5,4.3203125 a 1.5,1.5 0 0 0 -1.5,1.5 V 28.285156 a 1.5,1.5 0 0 0 1.5,1.5 1.5,1.5 0 0 0 1.5,-1.5 V 5.8203125 a 1.5,1.5 0 0 0 -1.5,-1.5 z"
     />
  <path
     d="M 25.5,9 A 1.5,1.5 0 0 0 24,10.5 v 13 A 1.5,1.5 0 0 0 25.5,25 1.5,1.5 0 0 0 27,23.5 v -13 A 1.5,1.5 0 0 0 25.5,9 Z"
      />
</svg>
