<svg width="27" height="30" viewBox="0 0 27 30" fill="none" xmlns="http://www.w3.org/2000/svg">
<path d="M23.3592 9.53361H23.404L23.404 9.53315C25.1707 9.55719 26.6012 11.0025 26.6008 12.775V16.1071C26.6008 17.8945 25.1465 19.3488 23.3591 19.3488H23.1337H23.0837V19.3988V21.7147L19.168 28.2048H17.2747H17.24L17.2278 28.2373C16.9798 28.9021 16.3404 29.3776 15.5907 29.3776H11.922C10.9575 29.3776 10.1729 28.5926 10.1727 27.6285C10.1727 26.6644 10.9572 25.8798 11.9218 25.8798H15.5905C16.3402 25.8798 16.9796 26.3549 17.2276 27.0199L17.2397 27.0524H17.2744H18.4892H18.5175L18.532 27.0282L21.9246 21.4067L21.9318 21.3948V21.3809V9.80808C21.9318 5.06225 18.071 1.20169 13.3254 1.20169C8.5798 1.20169 4.71924 5.06231 4.71901 9.80807V18.7732C4.71901 19.0914 4.46106 19.3493 4.14314 19.3493H3.2917C1.50422 19.3493 0.05 17.8951 0.05 16.1076V12.7753C0.05 10.9878 1.50399 9.53361 3.2917 9.53361H3.52549H3.57388L3.57546 9.48524C3.74683 4.25394 8.05289 0.05 13.3256 0.05C18.5982 0.05 22.9043 4.25383 23.0757 9.48524L23.0773 9.53361H23.1256H23.3592Z" fill="white" stroke="#100E0F" stroke-width="0.1"/>
</svg>
