<svg width="36" height="36" viewBox="0 0 36 36" fill="none" xmlns="http://www.w3.org/2000/svg">
<path d="M18 33.4286C20.0261 33.4286 22.0324 33.0295 23.9043 32.2541C25.7761 31.4788 27.477 30.3423 28.9096 28.9096C30.3423 27.477 31.4788 25.7761 32.2541 23.9043C33.0295 22.0324 33.4286 20.0261 33.4286 18C33.4286 15.9739 33.0295 13.9676 32.2541 12.0957C31.4788 10.2239 30.3423 8.52303 28.9096 7.09035C27.477 5.65768 25.7761 4.52122 23.9043 3.74586C22.0324 2.9705 20.0261 2.57143 18 2.57143C13.9081 2.57143 9.98377 4.19693 7.09035 7.09035C4.19693 9.98377 2.57143 13.9081 2.57143 18C2.57143 22.0919 4.19693 26.0162 7.09035 28.9096C9.98377 31.8031 13.9081 33.4286 18 33.4286ZM18 36C13.2261 36 8.64773 34.1036 5.27208 30.7279C1.89642 27.3523 0 22.7739 0 18C0 13.2261 1.89642 8.64773 5.27208 5.27208C8.64773 1.89642 13.2261 0 18 0C22.7739 0 27.3523 1.89642 30.7279 5.27208C34.1036 8.64773 36 13.2261 36 18C36 22.7739 34.1036 27.3523 30.7279 30.7279C27.3523 34.1036 22.7739 36 18 36Z" fill="#00D2FF"/>
<path d="M27.3751 11.9469C27.6165 11.7055 27.944 11.5698 28.2854 11.5698C28.6268 11.5698 28.9543 11.7055 29.1957 11.9469C29.4371 12.1883 29.5727 12.5157 29.5727 12.8572C29.5727 13.1986 29.4371 13.526 29.1957 13.7674L17.6242 25.3389C17.5048 25.4586 17.3629 25.5536 17.2067 25.6184C17.0505 25.6832 16.8831 25.7166 16.714 25.7166C16.5448 25.7166 16.3774 25.6832 16.2212 25.6184C16.065 25.5536 15.9231 25.4586 15.8037 25.3389L9.3751 18.9103C9.25556 18.7908 9.16073 18.6489 9.09604 18.4927C9.03134 18.3365 8.99805 18.1691 8.99805 18C8.99805 17.831 9.03134 17.6636 9.09604 17.5074C9.16073 17.3512 9.25556 17.2093 9.3751 17.0897C9.49464 16.9702 9.63656 16.8754 9.79274 16.8107C9.94893 16.746 10.1163 16.7127 10.2854 16.7127C10.4544 16.7127 10.6218 16.746 10.778 16.8107C10.9342 16.8754 11.0761 16.9702 11.1957 17.0897L16.714 22.6106L27.3751 11.9469Z" fill="#00D2FF"/>
</svg>
