<svg width="29" height="29" viewBox="0 0 29 29" fill="none" xmlns="http://www.w3.org/2000/svg">
<path d="M5.79171 28.1204L5.7894 28.1204C5.6986 28.1196 5.60892 28.0968 5.52872 28.0538M5.79171 28.1204L5.52872 28.0538M5.79171 28.1204C5.90006 28.1192 6.00612 28.087 6.09676 28.026C6.09684 28.0259 6.09693 28.0259 6.09701 28.0258L12.4766 23.7657H23.2096C24.5119 23.7657 25.761 23.2482 26.6821 22.3273L26.6821 22.3273C27.603 21.4061 28.1205 20.1571 28.1205 18.8548V5.79042C28.1205 4.48808 27.603 3.23903 26.6821 2.31788L26.6821 2.31785C25.761 1.39703 24.5119 0.879464 23.2096 0.879464H5.79045C4.48812 0.879464 3.23907 1.39702 2.31792 2.31785L2.31789 2.31788C1.39707 3.23903 0.879503 4.48808 0.879503 5.79042V18.8545C0.874621 20.0829 1.33021 21.269 2.15663 22.1779C2.95837 23.0597 4.05254 23.6191 5.23429 23.7539M5.79171 28.1204L5.23429 23.7539M5.52872 28.0538C5.34819 27.9573 5.23507 27.7694 5.23429 27.5647L5.23428 27.5643L5.23429 23.7539M5.52872 28.0538L5.23429 23.7539M3.1044 3.10432L3.10436 3.10436C2.39188 3.81654 1.99173 4.78287 1.99173 5.79038V18.8547C1.99173 19.8622 2.39186 20.8286 3.10436 21.5408L3.1044 21.5408C3.81653 22.2532 4.78275 22.6534 5.79018 22.6534C5.79026 22.6534 5.79034 22.6534 5.79042 22.6534V22.774L3.1044 3.10432ZM3.1044 3.10432C3.81657 2.39182 4.78291 1.99169 5.79042 1.99169L23.2096 1.9917C24.2171 1.9917 25.1834 2.39185 25.8956 3.10433L25.8956 3.10437C26.6081 3.81654 27.0083 4.78288 27.0083 5.79039V18.8547C27.0083 19.8623 26.6081 20.8286 25.8956 21.5408L25.8956 21.5408C25.1834 22.2533 24.2171 22.6534 23.2096 22.6534H12.3276C12.2156 22.6447 12.1033 22.67 12.0056 22.7264L12.0055 22.7262M3.1044 3.10432L12.0055 22.7262M12.0055 22.7262L11.9988 22.7307M12.0055 22.7262L11.9988 22.7307M11.9988 22.7307L6.34656 26.5239L11.9988 22.7307Z" fill="white" stroke="black" stroke-width="0.241071"/>
</svg>
