<svg width="27" height="27" viewBox="0 0 27 27" fill="none" xmlns="http://www.w3.org/2000/svg">
<path d="M23.8641 5.89367H9.74135L11.0458 3.02222C11.2547 2.5627 11.2459 2.04193 11.0216 1.59377C10.7972 1.14537 10.3857 0.825963 9.893 0.717229L7.02556 0.0855843C5.54363 -0.240974 4.07203 0.383522 3.27721 1.67645C1.11077 5.20041 -0.0221613 9.28987 0.000328425 13.4978C-0.0221312 17.71 1.11097 21.7996 3.27741 25.3237C3.93211 26.3887 5.04555 27 6.24646 27C6.50345 27 6.76464 26.9722 7.02576 26.9145L9.8932 26.2829C10.3861 26.1742 10.7975 25.855 11.0218 25.4063C11.2458 24.958 11.2547 24.4372 11.046 23.9779L9.74155 21.1064H23.8643C25.2973 21.1064 26.4632 19.9405 26.4632 18.5073V8.49278C26.4632 7.05975 25.2969 5.89384 23.8641 5.89384V5.89367ZM25.6193 18.5077C25.6193 18.855 25.5175 19.1788 25.3426 19.4517L17.7531 12.3364L25.2139 7.3724C25.4667 7.6767 25.6189 8.06724 25.6189 8.49261L25.6193 18.5077ZM23.8641 6.73729C24.0801 6.73729 24.287 6.77685 24.4784 6.8486L15.2424 12.9936L8.28735 8.36635C8.57873 8.198 8.8097 7.94339 8.95716 7.619L9.35765 6.73752L23.8641 6.73729ZM5.93947 18.0493C5.61569 17.9801 5.38791 17.7549 5.31535 17.432C5.02616 16.1488 4.88047 14.8261 4.88167 13.5007V13.5001C4.88048 12.1748 5.02616 10.8523 5.31535 9.56913C5.3881 9.24595 5.61567 9.02098 5.93947 8.95178L7.22922 8.6761L12.7316 12.337L6.50822 18.1711L5.93947 18.0493ZM10.2668 25.0292C10.1569 25.2489 9.95456 25.4057 9.71107 25.459L6.84364 26.0908C5.71727 26.3387 4.5995 25.8644 3.99564 24.8822C1.91188 21.4924 0.821892 17.5572 0.843568 13.4979C0.821904 9.44324 1.91188 5.50796 3.99564 2.11822C4.49312 1.3091 5.33901 0.844601 6.25132 0.844601C6.4467 0.844601 6.64486 0.866067 6.84343 0.909593L9.71087 1.54124C9.95395 1.5947 10.1567 1.75132 10.2666 1.97095C10.3765 2.19057 10.3803 2.44638 10.2773 2.67317L8.18899 7.26982C8.0765 7.51766 7.8841 7.6723 7.61795 7.72934L5.76316 8.12586C5.12317 8.2626 4.63623 8.74438 4.49229 9.38319C4.18958 10.7274 4.03674 12.1127 4.03813 13.5C4.03694 14.8876 4.18978 16.2729 4.49249 17.6171C4.63639 18.2555 5.12352 18.7373 5.76336 18.874L7.61815 19.2705C7.88468 19.3276 8.07668 19.4822 8.18955 19.7302L10.2779 24.3267C10.3804 24.5537 10.3765 24.8095 10.2668 25.0293L10.2668 25.0292ZM9.3577 20.2627L8.9572 19.3812C8.7344 18.8907 8.32139 18.5581 7.7943 18.4454L7.51326 18.3852L13.4537 12.8162L15.0089 13.8509C15.0795 13.898 15.1612 13.9215 15.2425 13.9215C15.3238 13.9215 15.4055 13.898 15.476 13.8509L17.0313 12.8162L24.7297 20.0333C24.4741 20.1789 24.1787 20.2624 23.8639 20.2624L9.3577 20.2627Z" fill="white"/>
</svg>
