<svg viewBox="0 0 61 72" xmlns="http://www.w3.org/2000/svg">
<path d="M58.2995 15.0911C59.0408 15.8325 59.6762 16.8385 60.2057 18.1094C60.7352 19.3802 61 20.5451 61 21.6042V67.3542C61 68.4132 60.6293 69.3134 59.888 70.0547C59.1467 70.796 58.2465 71.1667 57.1875 71.1667H3.8125C2.75347 71.1667 1.8533 70.796 1.11198 70.0547C0.370656 69.3134 0 68.4132 0 67.3542V3.8125C0 2.75347 0.370656 1.8533 1.11198 1.11198C1.8533 0.370656 2.75347 0 3.8125 0H39.3958C40.4549 0 41.6198 0.264754 42.8906 0.794271C44.1615 1.32379 45.1675 1.9592 45.9089 2.70052L58.2995 15.0911ZM40.6667 5.40104V20.3333H55.599C55.3342 19.5655 55.043 19.0228 54.7253 18.7051L42.2949 6.27474C41.9772 5.95703 41.4345 5.6658 40.6667 5.40104ZM55.9167 66.0833V25.4167H39.3958C38.3368 25.4167 37.4366 25.046 36.6953 24.3047C35.954 23.5634 35.5833 22.6632 35.5833 21.6042V5.08333H5.08333V66.0833H55.9167ZM35.5039 42.5332C36.3776 43.2216 37.4896 43.9629 38.8398 44.7572C40.4019 44.5718 41.9507 44.4792 43.4863 44.4792C47.3783 44.4792 49.7214 45.1278 50.5156 46.4251C50.9392 47.0076 50.9657 47.696 50.5951 48.4902C50.5951 48.5167 50.5818 48.5432 50.5553 48.5697C50.5289 48.5961 50.5024 48.6226 50.4759 48.6491V48.6888C50.3171 49.6949 49.3772 50.1979 47.6563 50.1979C46.3854 50.1979 44.8631 49.9332 43.0892 49.4036C41.3153 48.8741 39.5944 48.1725 37.9264 47.2988C32.0753 47.9343 26.8861 49.033 22.3587 50.5951C18.3079 57.5317 15.1044 61 12.748 61C12.3509 61 11.9803 60.9073 11.6361 60.722L10.6829 60.2454C10.6565 60.219 10.577 60.1528 10.4447 60.0469C10.1799 59.7821 10.1005 59.3056 10.2064 58.6172C10.4447 57.5582 11.186 56.3469 12.4303 54.9834C13.6747 53.6199 15.4221 52.3425 17.6725 51.151C18.0432 50.9128 18.3477 50.9922 18.5859 51.3893C18.6389 51.4423 18.6654 51.4952 18.6654 51.5482C20.0421 49.2977 21.4585 46.6899 22.9147 43.7246C24.7151 40.1239 26.0918 36.6556 27.0449 33.3197C26.4095 31.1486 26.0058 29.0372 25.8337 26.9854C25.6616 24.9335 25.7476 23.2457 26.0918 21.9219C26.383 20.8628 26.939 20.3333 27.7598 20.3333H28.5938H28.6335C29.2424 20.3333 29.7057 20.5319 30.0234 20.929C30.5 21.485 30.6191 22.3852 30.3809 23.6296C30.3279 23.7884 30.275 23.8943 30.222 23.9473C30.2485 24.0267 30.2617 24.1326 30.2617 24.265V25.4564C30.2088 28.7129 30.0234 31.2546 29.7057 33.0814C31.1619 37.4234 33.0946 40.574 35.5039 42.5332ZM12.6289 58.8555C14.0056 58.2201 15.8192 56.1285 18.0697 52.5807C16.7194 53.6398 15.5611 54.7517 14.5947 55.9167C13.6284 57.0816 12.9731 58.0612 12.6289 58.8555ZM28.4349 22.319C28.0378 23.431 28.0113 25.1784 28.3555 27.5612C28.3819 27.3759 28.4746 26.7934 28.6335 25.8138C28.6335 25.7344 28.7261 25.1652 28.9115 24.1061C28.9379 24.0002 28.9909 23.8943 29.0703 23.7884C29.0438 23.7619 29.0306 23.7355 29.0306 23.709C29.0041 23.656 28.9909 23.6163 28.9909 23.5898C28.9644 23.0074 28.7923 22.5308 28.4746 22.1602C28.4746 22.1866 28.4614 22.2131 28.4349 22.2396V22.319ZM23.5104 48.5697C27.0847 47.14 30.8442 46.0677 34.7891 45.3529C34.7361 45.3264 34.564 45.2006 34.2728 44.9756C33.9816 44.7505 33.7697 44.5718 33.6374 44.4395C31.6252 42.6656 29.944 40.3357 28.5938 37.4499C27.8789 39.7268 26.7802 42.3346 25.2975 45.2734C24.5033 46.7561 23.9076 47.8548 23.5104 48.5697ZM49.1654 47.9342C48.5299 47.2988 46.6767 46.9811 43.6055 46.9811C45.6176 47.7224 47.2591 48.0931 48.5299 48.0931C48.9006 48.0931 49.1389 48.0799 49.2448 48.0534C49.2448 48.0269 49.2183 47.9872 49.1654 47.9342Z" fill="#100E0F"/>
<defs>
<rect width="61" height="71.1667" />
</defs>
</svg>
