<svg viewBox="0 0 46 32" xmlns="http://www.w3.org/2000/svg">
<path d="M38.3532 2.6682C34.1644 0.960362 28.6524 0 22.7814 0C16.9104 0 11.3987 0.960362 7.2096 2.6682C5.2985 3.38885 3.54712 4.47658 2.05445 5.87024C0.791435 7.01156 0.0495792 8.61925 2.68298e-05 10.3207V13.9977V13.9973C-0.00444003 15.1847 0.549076 16.3048 1.49422 17.0232C2.15457 17.5336 2.96497 17.8113 3.79945 17.8131C4.13819 17.8128 4.47544 17.7681 4.8026 17.6795L14.5577 15.0541C15.3659 14.8352 16.0795 14.3565 16.5883 13.6921C17.0976 13.0276 17.3741 12.2143 17.3756 11.3771V8.93856C17.3749 8.83731 17.4508 8.75207 17.5517 8.74091C21.0284 8.37388 24.5341 8.37388 28.011 8.74091C28.1119 8.75207 28.1879 8.83731 28.1871 8.93856V11.3775V11.3771C28.1886 12.2143 28.4652 13.0276 28.9744 13.6921C29.4832 14.3565 30.1968 14.8352 31.005 15.0541L40.7601 17.6795C41.9048 17.9885 43.1276 17.7469 44.069 17.0262C45.01 16.3059 45.5624 15.1881 45.5628 14.0029V10.3311C45.5628 7.30558 43.0014 4.58935 38.3533 2.66825L38.3532 2.6682ZM42.7717 15.326H42.7721C42.3589 15.6461 41.8191 15.7529 41.3151 15.6141L31.56 12.9991C31.2071 12.9038 30.8955 12.6958 30.6718 12.4069C30.4485 12.1181 30.3253 11.7637 30.3219 11.3985V8.93844C30.3227 8.36296 30.1105 7.80722 29.7263 7.37878C29.3418 6.95033 28.8129 6.67897 28.2407 6.61718C24.6114 6.23341 20.9516 6.23341 17.3221 6.61718C16.7496 6.67785 16.2199 6.94885 15.8353 7.37766C15.4507 7.80648 15.239 8.36261 15.2408 8.93847V11.3774V11.377C15.2375 11.7426 15.1143 12.0966 14.8909 12.3858C14.6672 12.6746 14.3556 12.8827 14.0028 12.978L4.24763 15.625C3.74399 15.7683 3.20237 15.6682 2.78327 15.354C2.3645 15.0398 2.11659 14.5477 2.11324 14.024V10.331C2.18062 9.19415 2.70622 8.13335 3.5698 7.39073C4.86407 6.19995 6.3776 5.27199 8.02588 4.65849C11.9589 3.04185 17.1994 2.13437 22.781 2.13437C28.3627 2.13437 33.6035 3.02551 37.541 4.63734C41.2764 6.17431 43.4112 8.2395 43.4112 10.3155V13.9924V13.9921C43.4212 14.5162 43.1841 15.0143 42.7709 15.3369L42.7717 15.326Z"/>
<path d="M22.7816 13.875C22.192 13.875 21.7145 14.3526 21.7145 14.9422V28.6034L16.2765 24.0141C16.0729 23.7829 15.7788 23.6515 15.4706 23.653C15.1624 23.6549 14.8702 23.7896 14.6684 24.023C14.467 24.256 14.3766 24.565 14.4197 24.8702C14.4629 25.1754 14.636 25.4468 14.8943 25.6151L22.0878 31.7466C22.4865 32.085 23.0716 32.085 23.4699 31.7466L30.669 25.6151C30.9274 25.4468 31.1005 25.1754 31.1437 24.8702C31.1868 24.565 31.0964 24.256 30.895 24.023C30.6932 23.7896 30.401 23.6549 30.0928 23.653C29.7846 23.6515 29.4905 23.7829 29.2869 24.0141L23.8489 28.6246V14.9425C23.8489 14.6592 23.7365 14.3878 23.5363 14.1876C23.3364 13.9877 23.0646 13.8753 22.7817 13.8753L22.7816 13.875Z"/>
</svg>
