<svg viewBox="0 0 23 32" xmlns="http://www.w3.org/2000/svg">
<path d="M19.2998 0.000240583H3.65599C1.63999 0.000240583 0 1.64029 0 3.65623V28.3443C0.000234946 30.36 1.64005 32 3.65599 32H19.2998C21.3158 32 22.9558 30.3599 22.9558 28.344L22.9556 3.65599C22.9556 1.63999 21.3158 0 19.2998 0L19.2998 0.000240583ZM16.3814 1.68444L15.6046 2.91355C15.4847 3.10293 15.2796 3.21595 15.0555 3.21595H7.90061C7.67645 3.21595 7.4711 3.10269 7.3515 2.91355L6.57472 1.68444H16.3814ZM21.2714 28.3442C21.2714 29.4313 20.3867 30.316 19.2996 30.316H3.65635C2.56919 30.316 1.68456 29.4313 1.68456 28.3442L1.6848 3.65617C1.6848 2.56901 2.56919 1.68438 3.65634 1.68438H4.58253L5.92767 3.81316C6.35788 4.49382 7.09518 4.90007 7.90066 4.90007H15.0555C15.8607 4.90007 16.5982 4.49359 17.0285 3.81316L18.3736 1.68438H19.2998C20.387 1.68438 21.2716 2.56901 21.2716 3.65617L21.2714 28.3442Z"/>
<path d="M14.0159 26.4648H8.94073C8.47551 26.4648 8.09863 26.8417 8.09863 27.3069C8.09863 27.7722 8.47551 28.149 8.94073 28.149H14.0157C14.4809 28.149 14.8578 27.7722 14.8578 27.3069C14.858 26.8417 14.4809 26.4648 14.0159 26.4648Z"/>
</svg>
