<svg width="57" height="58" viewBox="0 0 57 58" fill="none" xmlns="http://www.w3.org/2000/svg">
<path d="M22.1143 52.9082C22.3081 52.5199 22.316 52.0673 22.1335 51.663L22.1143 52.9082ZM22.1143 52.9082C21.92 53.2961 21.5627 53.5739 21.1297 53.6686L21.1293 53.6687L15.1698 54.9819C15.1698 54.9819 15.1698 54.9819 15.1697 54.9819C12.9326 55.4741 10.7166 54.5339 9.51733 52.5831C5.21149 45.5785 2.95843 37.4459 3.00325 29.0548L3.00323 29.0521C2.95845 20.6708 5.21148 12.5379 9.51733 5.53336C10.506 3.92537 12.1836 3.00538 13.9925 3.00538C14.3802 3.00538 14.774 3.04797 15.1695 3.13464C15.1695 3.13465 15.1695 3.13466 15.1696 3.13466L21.1289 4.44739L21.129 4.44741C21.5618 4.54261 21.92 4.82039 22.1141 5.20823C22.3082 5.59596 22.3157 6.04846 22.1324 6.45239C22.1324 6.45241 22.1323 6.45243 22.1323 6.45245L17.7921 16.0059L17.792 16.006C17.591 16.4488 17.2563 16.7179 16.7804 16.8199L12.9257 17.644C12.9257 17.644 12.9257 17.644 12.9256 17.644C11.5001 17.9486 10.4133 19.0239 10.0927 20.4467L10.0927 20.4467C9.45947 23.2586 9.13979 26.1563 9.14268 29.0579M22.1143 52.9082L17.7932 42.1099C17.5914 41.6664 17.2573 41.3974 16.7809 41.2955L12.9261 40.4714C11.5009 40.1669 10.4136 39.0915 10.0931 37.6695L10.0931 37.6695C9.45989 34.8576 9.1402 31.9601 9.14268 29.0579M9.14268 29.0579C9.14268 29.0578 9.14268 29.0578 9.14268 29.0577L9.39268 29.0579L9.14268 29.0581C9.14268 29.0581 9.14268 29.058 9.14268 29.0579ZM20.6097 42.863L19.8439 41.1776C19.3481 40.0861 18.4247 39.3426 17.2517 39.0917C17.2517 39.0917 17.2517 39.0917 17.2516 39.0917L17.1348 39.0667L28.9881 27.9545L32.0552 29.9951L20.6097 42.863ZM20.6097 42.863L50.5977 42.8626C51.0845 42.8626 51.547 42.7595 51.9655 42.5744L36.3706 27.9545L33.3035 29.9951L20.6097 42.863ZM32.6793 30.1838C32.4627 30.1838 32.2444 30.1214 32.0555 29.9953L32.6793 30.1838ZM32.6793 30.1838C32.896 30.1838 33.1142 30.1214 33.3032 29.9953L32.6793 30.1838ZM24.1852 50.7312L21.6346 45.1167H50.5985C53.7149 45.1167 56.25 42.5816 56.25 39.4648V18.651C56.25 15.6183 53.8485 13.1362 50.8481 13.005V12.9992H50.5981H21.6342L24.1847 7.38471C24.6498 6.36156 24.6308 5.20005 24.1303 4.20049C23.6299 3.20063 22.7121 2.48863 21.6151 2.24653L21.615 2.24651L15.6554 0.933732C15.6554 0.933731 15.6554 0.93373 15.6554 0.933728C12.4715 0.232122 9.30591 1.57549 7.59824 4.35334C3.07092 11.7175 0.703939 20.2624 0.750679 29.0532C0.704002 37.8531 3.07134 46.3982 7.59866 53.7626C9.00465 56.0497 11.3992 57.3657 13.9824 57.3657C14.5345 57.3657 15.0954 57.3059 15.6558 57.1822C15.6559 57.1822 15.6559 57.1822 15.6559 57.1822L21.6154 55.8694L21.6155 55.8694C22.7129 55.6273 23.6307 54.9158 24.1308 53.9153L24.1308 53.9152C24.6303 52.9154 24.6499 51.754 24.1852 50.7312ZM32.6791 27.705L18.678 18.39C19.1754 18.0245 19.5736 17.5329 19.8438 16.9385L19.8438 16.9384L20.6096 15.253L50.5981 15.2525C50.8348 15.2525 51.0658 15.277 51.2888 15.3235L32.6791 27.705ZM13.3967 38.2685L13.3966 38.2684C12.819 38.145 12.4205 37.751 12.2911 37.1751L12.2911 37.1749C11.6942 34.5263 11.3934 31.7957 11.3959 29.0596V29.0594V29.0581V29.0579C11.3934 26.3218 11.6942 23.5917 12.2911 20.943L12.2911 20.943C12.4209 20.3665 12.819 19.9729 13.3966 19.8495L13.3443 19.605L13.3966 19.8495L15.9741 19.2985L27.0596 26.6741L14.4509 38.4942L13.3967 38.2685ZM17.7933 42.1101L22.1333 51.6625L17.7933 42.1101ZM53.996 39.4657C53.996 40.0297 53.8574 40.5615 53.6127 41.0302L38.2984 26.6728L53.3487 16.6592C53.7555 17.2196 53.9953 17.9076 53.9953 18.6507L53.996 39.4657Z" fill="#100E0F" stroke="#100E0F" stroke-width="0.5"/>
</svg>
