<svg viewBox="0 0 512 512" fill="none" xmlns="http://www.w3.org/2000/svg">
<circle cx="256" cy="256" r="255.63" stroke="#D9D9D9" stroke-width="0.739884"/>
<path d="M86.0465 66.4463C133.092 108.21 193.869 131.19 256.777 130.999C319.686 130.808 380.322 107.46 427.113 65.4109" stroke="#D9D9D9" stroke-width="0.739884"/>
<path d="M86.0465 443.554C133.092 401.789 193.869 378.81 256.777 379.001C319.686 379.192 380.322 402.54 427.113 444.589" stroke="#D9D9D9" stroke-width="0.739884"/>
<path d="M391.802 256C391.802 326.644 376.571 390.582 351.962 436.846C327.346 483.125 293.401 511.63 256.002 511.63C218.604 511.63 184.659 483.125 160.042 436.846C135.434 390.582 120.202 326.644 120.202 256C120.202 185.356 135.434 121.418 160.042 75.1544C184.659 28.8748 218.604 0.369942 256.002 0.369942C293.401 0.369942 327.346 28.8748 351.962 75.1544C376.571 121.418 391.802 185.356 391.802 256Z" stroke="#D9D9D9" stroke-width="0.739884"/>
<line x1="250.925" y1="1.61707e-08" x2="250.925" y2="501.106" stroke="#D9D9D9" stroke-width="0.739884"/>
<line y1="250.179" x2="511.26" y2="250.179" stroke="#D9D9D9" stroke-width="0.747343"/>
</svg>
