<svg
   viewBox="0 0 34 42"
   xmlns="http://www.w3.org/2000/svg"
   xmlns:svg="http://www.w3.org/2000/svg">
  <path
     d="M 15.587891,0.34179688 4.5878906,3.0058594 C 1.898656,3.657229 0,6.0709045 0,8.8378906 V 29.339844 c 0,2.215681 1.2223425,4.252895 3.1777344,5.294922 l 10.9999996,5.861328 c 1.763173,0.939551 3.881359,0.939551 5.644532,0 l 11,-5.861328 C 32.777647,33.592739 34,31.555527 34,29.339844 V 8.8378906 C 34,6.0708914 32.101353,3.6572284 29.412109,3.0058594 l -11,-2.66406252 c -0.928147,-0.22482586 -1.89607,-0.2248272 -2.824218,0 z m 0.234375,0.97265622 c 0.77345,-0.1873544 1.582017,-0.1873537 2.355468,0 l 11,2.6640625 C 31.423486,4.5224654 33,6.5272149 33,8.8378906 V 29.339844 c 0,1.848113 -1.017422,3.542938 -2.648438,4.412109 l -11,5.861328 c -1.470224,0.783447 -3.2329,0.783447 -4.703124,0 L 3.6484375,33.751953 C 2.0174129,32.882782 1,31.187958 1,29.339844 V 8.8378906 C 1,6.5272218 2.5765252,4.5224648 4.8222656,3.9785156 Z"
     />
  <path
     d="M8 16.8888C8 14.1138 9.90304 11.7008 12.6017 11.0541L15.6017 10.3351C16.5209 10.1148 17.4791 10.1148 18.3983 10.3351L21.3983 11.0541C24.097 11.7008 26 14.1138 26 16.8888V23.6355C26 25.8616 24.7675 27.9047 22.7983 28.9429L19.7983 30.5247C18.047 31.448 15.953 31.448 14.2017 30.5246L11.2017 28.9429C9.23251 27.9047 8 25.8616 8 23.6354V16.8888Z"
     />
</svg>
