<svg width="58" height="58" viewBox="0 0 58 58" fill="none" xmlns="http://www.w3.org/2000/svg">
<path d="M10.9384 57.2497L10.9336 57.2498C10.7454 57.2481 10.5595 57.201 10.3932 57.1119C10.3931 57.1118 10.393 57.1118 10.3929 57.1117L10.9384 57.2497ZM10.9384 57.2497C11.1632 57.2473 11.3833 57.1804 11.5713 57.0538C11.5714 57.0537 11.5715 57.0537 11.5716 57.0536L24.8033 48.2178H47.0644C49.7655 48.2178 52.3561 47.1444 54.2667 45.2345L54.2667 45.2345C56.1766 43.3239 57.2501 40.7333 57.2501 38.0321V10.9357C57.2501 8.23455 56.1766 5.64392 54.2667 3.73338L54.2667 3.73332C52.3561 1.82348 49.7655 0.75 47.0644 0.75H10.9358C8.23463 0.75 5.644 1.82344 3.73346 3.73332L3.7334 3.73338C1.82356 5.64392 0.750081 8.23455 0.750081 10.9357V38.0316C0.739956 40.5794 1.68488 43.0394 3.39895 44.9246C5.0618 46.7535 7.3312 47.9138 9.78223 48.1933L10.9384 57.2497ZM5.36461 5.3646L5.36469 5.36452C6.84178 3.88674 8.84604 3.05684 10.9357 3.05684L47.0644 3.05687C49.154 3.05687 51.1583 3.88681 52.6354 5.36455L52.6355 5.36462C54.1132 6.84172 54.9431 8.84597 54.9431 10.9356V38.0321C54.9431 40.1217 54.1132 42.126 52.6355 43.6031L52.6354 43.6032C51.1583 45.081 49.154 45.9109 47.0644 45.9109H24.4943C24.2619 45.8927 24.029 45.9451 23.8265 46.0622L23.8192 46.0664L23.8123 46.0711L12.0892 53.9384L12.0892 47.0643L12.0891 47.0604C12.0844 46.7584 11.9667 46.4694 11.7581 46.2505L11.7582 46.2504L11.7529 46.2452C11.5352 46.03 11.241 45.9092 10.9344 45.9109L10.9357 46.1608V45.9108C8.84604 45.9108 6.84181 45.0809 5.36468 43.6032L5.3646 43.6031C3.88683 42.126 3.05693 40.1217 3.05693 38.0321V10.9356C3.05693 8.84596 3.88687 6.84173 5.36461 5.3646Z" fill="black" stroke="black" stroke-width="0.5"/>
<path d="M32.9743 23.4905L32.9742 23.4906C31.9205 24.545 30.4903 25.1373 28.9998 25.1373C28.3629 25.1373 27.8463 25.6529 27.8463 26.2902V30.8063C27.8463 31.4433 28.3627 31.9597 28.9998 31.9597C29.3053 31.9597 29.599 31.8386 29.8155 31.6221C30.0319 31.4057 30.1533 31.1121 30.1533 30.8065V27.3587C32.1012 27.0721 33.8759 26.0705 35.128 24.5438C36.4277 22.9603 37.0633 20.9352 36.9026 18.8925L36.9026 18.8925C36.7419 16.8503 35.7959 14.95 34.2646 13.5892L34.2646 13.5891C32.7333 12.2288 30.7348 11.5138 28.6875 11.5945C26.6409 11.6751 24.7043 12.5449 23.2847 14.0216C21.8653 15.4984 21.0723 17.4675 21.0723 19.5161C21.0723 20.1532 21.5887 20.6696 22.2257 20.6696C22.8628 20.6696 23.3792 20.1532 23.3792 19.5161C23.3792 18.0256 23.9709 16.596 25.0253 15.5417L25.0253 15.5417C26.0791 14.4879 27.5093 13.8955 28.9998 13.8955C30.4903 13.8955 31.9205 14.4879 32.9743 15.5417C34.0286 16.596 34.6204 18.0256 34.6204 19.5161C34.6204 21.0073 34.0286 22.4368 32.9743 23.4905Z" fill="black" stroke="black" stroke-width="0.5"/>
<path d="M30.4537 37.7772L30.4537 37.7772C30.0684 38.1625 29.5449 38.379 28.9999 38.379C28.168 38.379 27.4185 37.8783 27.1 37.1095L30.4537 37.7772ZM30.4537 37.7772C30.8395 37.3914 31.0561 36.8685 31.0561 36.3227C31.0561 35.4914 30.5556 34.7413 29.7867 34.4228C29.0184 34.1042 28.134 34.2808 27.546 34.8688C26.958 35.4568 26.7814 36.3411 27.0999 37.1095L30.4537 37.7772Z" fill="black" stroke="black" stroke-width="0.5"/>
</svg>
