<svg viewBox="0 0 24 24" xmlns="http://www.w3.org/2000/svg">
<mask id="path-1-inside-1_574_2446" fill="white">
    <path fill-rule="evenodd" clip-rule="evenodd" d="M12 24C18.6274 24 24 18.6274 24 12C24 5.37258 18.6274 0 12 0C5.37258 0 0 5.37258 0 12C0 13.7521 0.375484 15.4164 1.05037 16.917L1.11466 21.7362C1.12939 22.8407 2.03669 23.7241 3.14116 23.7094L9.03439 23.6307C9.98288 23.8719 10.9765 24 12 24Z"/>
</mask>
<path d="M1.05037 16.917L2.05028 16.9037L2.04751 16.6961L1.96238 16.5068L1.05037 16.917ZM1.11466 21.7362L2.11457 21.7229L1.11466 21.7362ZM3.14116 23.7094L3.1545 24.7093H3.1545L3.14116 23.7094ZM9.03439 23.6307L9.28076 22.6616L9.15293 22.6291L9.02105 22.6308L9.03439 23.6307ZM23 12C23 18.0751 18.0751 23 12 23V25C19.1797 25 25 19.1797 25 12H23ZM12 1C18.0751 1 23 5.92487 23 12H25C25 4.8203 19.1797 -1 12 -1V1ZM1 12C1 5.92487 5.92487 1 12 1V-1C4.8203 -1 -1 4.8203 -1 12H1ZM1.96238 16.5068C1.34435 15.1327 1 13.6079 1 12H-1C-1 13.8962 -0.593384 15.7002 0.138365 17.3272L1.96238 16.5068ZM2.11457 21.7229L2.05028 16.9037L0.0504603 16.9303L0.11475 21.7496L2.11457 21.7229ZM3.12783 22.7095C2.57559 22.7168 2.12194 22.2751 2.11457 21.7229L0.11475 21.7496C0.136851 23.4063 1.4978 24.7314 3.1545 24.7093L3.12783 22.7095ZM9.02105 22.6308L3.12782 22.7095L3.1545 24.7093L9.04773 24.6307L9.02105 22.6308ZM12 23C11.0602 23 10.1494 22.8824 9.28076 22.6616L8.78802 24.5999C9.81637 24.8613 10.8927 25 12 25V23Z" mask="url(#path-1-inside-1_574_2446)"/>
<circle cx="8" cy="12" r="1"/>
<circle cx="12" cy="12" r="1"/>
<circle cx="16" cy="12" r="1"/>
</svg>
