<svg viewBox="0 0 60 74" xmlns="http://www.w3.org/2000/svg">
<g clip-path="url(#clip0_4429_22046)">
<path d="M30 0L0 13.3594V33.3594C0 37.9427 0.755201 42.4219 2.26562 46.7969C3.77605 51.1719 5.87238 55.1432 8.55469 58.7109C11.237 62.2787 14.401 65.3515 18.0469 67.9297C21.6927 70.5078 25.6771 72.3177 30 73.3594C34.3229 72.3177 38.3073 70.5078 41.9531 67.9297C45.599 65.3515 48.763 62.2787 51.4453 58.7109C54.1276 55.1432 56.2239 51.1719 57.7344 46.7969C59.2448 42.4219 60 37.9427 60 33.3594V13.3594L30 0ZM30 36.6406H53.3594C52.8906 40.0781 51.9922 43.3854 50.6641 46.5625C49.3359 49.7396 47.6563 52.6432 45.625 55.2734C43.5937 57.9037 41.263 60.1823 38.6328 62.1094C36.0026 64.0365 33.125 65.4687 30 66.4062V36.6406H6.64062V17.6562L30 7.26562V36.6406Z"/>
</g>
<defs>
<clipPath id="clip0_4429_22046">
<rect width="60" height="73.3594"/>
</clipPath>
</defs>
</svg>
