<svg viewBox="0 0 42 42" xmlns="http://www.w3.org/2000/svg">
  <path fill-rule="evenodd" clip-rule="evenodd" d="M39 21c0 9.941-8.059 18-18 18S3 30.941 3 21 11.059 3 21 3s18 8.059 18 18zM10.177 3C4.08 6.675 0 13.361 0 21c0 11.598 9.402 21 21 21s21-9.402 21-21c0-7.639-4.079-14.325-10.177-18H10.177z"/><path d="M10 3h22v3H10zM21.778 21a.778.778 0 01-.778.778.778.778 0 01-.778-.778.778.778 0 01.778-.778.778.778 0 01.778.778zM21.778 17.889a.778.778 0 01-.778.778.778.778 0 01-.778-.778.778.778 0 01.778-.778.778.778 0 01.778.778zM21.778 14.778a.778.778 0 01-.778.778.778.778 0 01-.778-.778A.778.778 0 0121 14a.778.778 0 01.778.778zM18.667 15.611a.778.778 0 01-.778.778.778.778 0 01-.778-.778.778.778 0 01.778-.777.778.778 0 01.778.777zM16.389 17.889a.778.778 0 01-.778.777.778.778 0 01-.778-.777.778.778 0 01.778-.778.778.778 0 01.778.778zM15.556 21a.778.778 0 01-.778.777A.778.778 0 0114 21a.778.778 0 01.778-.778.778.778 0 01.778.778zM16.389 24.11a.778.778 0 01-.778.779.778.778 0 01-.778-.778.778.778 0 01.778-.778.778.778 0 01.778.778zM18.666 26.389a.778.778 0 01-.777.777.778.778 0 01-.778-.777.778.778 0 01.778-.778.778.778 0 01.777.777zM18.667 19.444a.778.778 0 01-.778.778.778.778 0 01-.778-.778.778.778 0 01.778-.777.778.778 0 01.778.777zM18.667 22.555a.778.778 0 01-.778.778.778.778 0 01-.778-.777.778.778 0 01.778-.778.778.778 0 01.778.777zM21.778 24.111a.778.778 0 01-.778.778.778.778 0 01-.778-.778.778.778 0 01.778-.778.778.778 0 01.778.778zM21.778 27.222A.778.778 0 0121 28a.778.778 0 01-.778-.778.778.778 0 01.778-.778.778.778 0 01.778.778zM24.889 26.388a.778.778 0 01-.778.778.778.778 0 01-.778-.778.778.778 0 01.778-.777.778.778 0 01.778.777zM27.166 24.11a.778.778 0 01-.777.779.778.778 0 01-.778-.778.778.778 0 01.777-.778.778.778 0 01.778.778zM28 21a.778.778 0 01-.778.777.778.778 0 01-.778-.777.778.778 0 01.778-.778A.778.778 0 0128 21zM27.166 17.889a.778.778 0 01-.778.777.778.778 0 01-.777-.777.778.778 0 01.777-.778.778.778 0 01.778.778zM24.889 15.611a.778.778 0 01-.778.778.778.778 0 01-.778-.778.778.778 0 01.778-.778.778.778 0 01.778.778zM24.889 19.444a.778.778 0 01-.778.778.778.778 0 01-.778-.778.778.778 0 01.778-.777.778.778 0 01.778.777zM24.889 22.555a.778.778 0 01-.778.778.778.778 0 01-.778-.777.778.778 0 01.778-.778.778.778 0 01.778.777z"/><path d="M15 4a4 4 0 014-4h5a4 4 0 014 4H15z"/>
</svg>
