<svg viewBox="0 0 30 35" xmlns="http://www.w3.org/2000/svg">
<path d="M1.45122 8.61571L1.45115 8.61577C1.03753 8.97805 0.8 9.50101 0.8 10.051V32.2931C0.8 33.3462 1.65384 34.2 2.70688 34.2H27.7412C28.7942 34.2 29.6481 33.3462 29.6481 32.2931V2.70715C29.6481 1.6541 28.7942 0.800267 27.7412 0.800267L11.0995 0.8C10.6376 0.8 10.1915 0.967712 9.84389 1.27189C9.84388 1.27189 9.84388 1.2719 9.84388 1.2719L1.45122 8.61571ZM10.8564 2.42931C10.924 2.37033 11.0104 2.33792 11.0995 2.33792H27.7412C27.9449 2.33792 28.1101 2.50314 28.1101 2.70688V32.2928C28.1101 32.4966 27.9449 32.6618 27.7412 32.6618H2.70687C2.50313 32.6618 2.33791 32.4966 2.33791 32.2928V10.0507C2.33791 9.94439 2.38381 9.84319 2.46405 9.77286L10.8564 2.42931ZM7.25832 16.7312C6.20527 16.7312 5.35144 17.585 5.35144 18.6381V27.7414C5.35144 28.7945 6.20527 29.6483 7.25832 29.6483H23.1892C24.2423 29.6483 25.0961 28.7945 25.0961 27.7414V18.6381C25.0961 17.585 24.2423 16.7312 23.1892 16.7312H7.25832ZM6.88936 18.6381C6.88936 18.4343 7.05458 18.2691 7.25832 18.2691H11.041V22.4208H6.88936V18.6381ZM6.88936 27.7414V23.9587H11.041V28.1104H7.25832C7.05458 28.1104 6.88936 27.9452 6.88936 27.7414ZM17.8686 28.1104H12.579V23.9587H17.8686V28.1104ZM23.1892 28.1104H19.4065V23.9587H23.5582V27.7414C23.5582 27.9452 23.393 28.1104 23.1892 28.1104ZM23.5582 22.4208H19.4065V18.2691H23.1892C23.393 18.2691 23.5582 18.4343 23.5582 18.6381V22.4208ZM12.579 18.2691H17.8686V22.4208H12.579V18.2691ZM23.9582 5.55195C23.9582 5.12729 23.6139 4.78299 23.1892 4.78299C22.7646 4.78299 22.4203 5.12729 22.4203 5.55195V11.2416C22.4203 11.6662 22.7646 12.0105 23.1892 12.0105C23.6139 12.0105 23.9582 11.6662 23.9582 11.2416V5.55195ZM19.4065 5.55195C19.4065 5.12729 19.0622 4.78299 18.6375 4.78299C18.2129 4.78299 17.8686 5.12729 17.8686 5.55195V11.2416C17.8686 11.6662 18.2129 12.0105 18.6375 12.0105C19.0622 12.0105 19.4065 11.6662 19.4065 11.2416V5.55195ZM14.8548 5.55195C14.8548 5.12729 14.5105 4.78299 14.0858 4.78299C13.6612 4.78299 13.3169 5.12729 13.3169 5.55195V11.2416C13.3169 11.6662 13.6612 12.0105 14.0858 12.0105C14.5105 12.0105 14.8548 11.6662 14.8548 11.2416V5.55195Z" stroke-width="0.4"/>
</svg>
