<?xml version="1.0" encoding="UTF-8" standalone="no"?>
<svg
   viewBox="0 0 37 34"
   version="1.1"
   xmlns="http://www.w3.org/2000/svg"
   xmlns:svg="http://www.w3.org/2000/svg">
  <path
     d="M 2.5195313,0.6328125 A 1.36727,1.36727 0 0 0 1.1523437,2 1.36727,1.36727 0 0 0 2.5195313,3.3671875 c 1.7955318,0 3.5735646,0.3538926 5.2324218,1.0410156 1.6588809,0.6871254 3.1658999,1.6932526 4.4355469,2.9628906 1.269638,1.2696289 2.277747,2.7786493 2.964844,4.4375003 0.687105,1.658852 1.039062,3.434941 1.039062,5.230468 0,1.795419 -0.351957,3.57357 -1.039062,5.232422 -0.687098,1.658834 -1.695205,3.165908 -2.964844,4.435547 -1.269639,1.269639 -2.7766223,2.277637 -4.4355469,2.964844 -1.6588591,0.687097 -3.4368808,1.041016 -5.2324218,1.041016 a 1.36727,1.36727 0 0 0 -1.3671876,1.367187 1.36727,1.36727 0 0 0 1.3671876,1.367188 c 2.1545949,0 4.2886996,-0.423545 6.2792968,-1.248047 1.9905719,-0.824592 3.7987069,-2.033082 5.3222659,-3.556641 1.523558,-1.523558 2.732139,-3.333656 3.55664,-5.324219 0.824494,-1.990544 1.25,-4.124719 1.25,-6.279297 0,-2.154668 -0.425506,-4.286799 -1.25,-6.277343 C 16.853233,8.7711328 15.644653,6.9610484 14.121094,5.4375 12.597544,3.9139608 10.789444,2.7053925 8.7988281,1.8808594 6.808229,1.056324 4.6741355,0.6328125 2.5195313,0.6328125 Z"
     />
  <path
     d="m 17.476562,1.2558594 a 1.36727,1.36727 0 0 0 -0.740234,0.7402343 1.36727,1.36727 0 0 0 0.740234,1.7871094 c 1.658832,0.6871239 3.165897,1.693258 4.435547,2.9628906 1.269636,1.2696266 2.277747,2.7766859 2.964844,4.4355473 0.687166,1.65878 1.039063,3.436957 1.039063,5.232421 0,1.795574 -0.351897,3.573642 -1.039063,5.232422 -0.687097,1.658834 -1.695205,3.165908 -2.964844,4.435547 -1.269638,1.269639 -2.776667,2.277637 -4.435547,2.964844 a 1.36727,1.36727 0 0 0 -0.740234,1.787109 1.36727,1.36727 0 0 0 1.787109,0.738282 c 1.990517,-0.824592 3.798708,-2.033083 5.322266,-3.556641 1.523559,-1.523558 2.73214,-3.331703 3.556641,-5.322266 0.824632,-1.990616 1.25,-4.124674 1.25,-6.279297 0,-2.154531 -0.425368,-4.286727 -1.25,-6.277343 C 26.577843,8.1461235 25.369265,6.3360507 23.845703,4.8125 22.322157,3.2889754 20.514002,2.080394 18.523437,1.2558594 a 1.36727,1.36727 0 0 0 -1.046875,0 z"
     />
  <path
     d="m 30.033203,4.8125 a 1.36727,1.36727 0 0 0 0,1.9335937 c 1.269638,1.2696289 2.277747,2.7766965 2.964844,4.4355473 0.687166,1.65878 1.039062,3.436848 1.039062,5.232421 0,1.795465 -0.351896,3.573642 -1.039062,5.232422 -0.687098,1.658834 -1.695205,3.165908 -2.964844,4.435547 a 1.36727,1.36727 0 0 0 0,1.933594 1.36727,1.36727 0 0 0 1.933594,0 c 1.523558,-1.523558 2.732139,-3.331703 3.55664,-5.322266 0.824633,-1.990616 1.25,-4.124765 1.25,-6.279297 0,-2.154622 -0.425367,-4.28868 -1.25,-6.279296 C 34.698936,8.1441797 33.490356,6.3360484 31.966797,4.8125 a 1.36727,1.36727 0 0 0 -1.933594,0 z"
     />
    <path
       d="m 6.5,17.019501 a 3,3 0 0 1 -3,3 3,3 0 0 1 -3,-3 3,3 0 0 1 3,-3 3,3 0 0 1 3,3 z"
        />
    <path
       d="m 3.5,13.519531 c -1.9270724,0 -3.5,1.572928 -3.5,3.5 0,1.927073 1.5729276,3.5 3.5,3.5 1.9270724,0 3.5,-1.572927 3.5,-3.5 0,-1.927072 -1.5729276,-3.5 -3.5,-3.5 z m 0,1 c 1.3866328,0 2.5,1.113367 2.5,2.5 0,1.386633 -1.1133672,2.5 -2.5,2.5 -1.3866328,0 -2.5,-1.113367 -2.5,-2.5 0,-1.386633 1.1133672,-2.5 2.5,-2.5 z"
       />
</svg>
