<?xml version="1.0" encoding="UTF-8" standalone="no"?>
<svg
   viewBox="0 0 22 24"
   version="1.1"
   xmlns="http://www.w3.org/2000/svg"
   xmlns:svg="http://www.w3.org/2000/svg">
  <path
     
     d="m 9.3378906,5.4648437 0.019531,1.1777344 c 0.7240561,-0.012008 1.4436591,0.1187699 2.1171871,0.3847656 0.673543,0.2660014 1.288152,0.6625326 1.808594,1.1660157 0.520458,0.503489 0.936458,1.1032301 1.22461,1.7675781 0.288212,0.6642705 0.443059,1.3794275 0.455078,2.1035155 0.01202,0.724019 -0.118828,1.443623 -0.384766,2.117188 -0.266027,0.67356 -0.662485,1.288167 -1.166016,1.808593 -0.503471,0.520459 -1.105135,0.936461 -1.769531,1.22461 -0.664274,0.288225 -1.379536,0.443151 -2.1035155,0.455078 l 0.019531,1.175781 c 0.8785982,-0.01447 1.7466102,-0.201007 2.5527342,-0.550781 0.806203,-0.349651 1.535557,-0.854788 2.146485,-1.486328 0.611067,-0.631572 1.091289,-1.378075 1.414062,-2.195313 0.322661,-0.817233 0.48138,-1.68978 0.466797,-2.568359 C 16.12409,11.166412 15.937678,10.298376 15.587891,9.4921875 15.238243,8.6860569 14.733103,7.956653 14.101563,7.3457031 13.470006,6.7347273 12.723506,6.2543986 11.90625,5.9316406 11.08898,5.608877 10.216473,5.4502723 9.3378906,5.4648437 Z"
     />
  <path
     
     d="m 8.3105469,1.9570312 0.019531,1.1757813 c 1.2218068,-0.020259 2.4357439,0.1995847 3.5722659,0.6484375 1.136528,0.4488459 2.174472,1.1171734 3.052734,1.9667969 0.878345,0.8496214 1.580154,1.8652665 2.066406,2.9863281 0.486342,1.121049 0.747357,2.326999 0.767578,3.548828 0.02022,1.221866 -0.199622,2.435744 -0.648437,3.572266 -0.448919,1.136546 -1.117214,2.172512 -1.966797,3.050781 -0.849673,0.878359 -1.865224,1.580156 -2.986328,2.066406 -1.120988,0.486336 -2.32702,0.747357 -3.5488281,0.767578 l 0.019531,1.177735 c 1.3763489,-0.02278 2.7352379,-0.317371 3.9980469,-0.865235 1.262894,-0.547748 2.406156,-1.338686 3.363281,-2.328125 0.957016,-0.989329 1.709164,-2.157249 2.214844,-3.4375 0.505584,-1.280275 0.753247,-2.647106 0.730469,-4.023437 C 18.942065,10.887304 18.64942,9.5284736 18.101562,8.265625 17.553816,7.002789 16.762891,5.8594405 15.773438,4.9023437 14.784102,3.945269 13.616207,3.1931132 12.335938,2.6875 11.055662,2.1818738 9.6868775,1.9342102 8.3105469,1.9570312 Z"
     />
  <mask
     id="path-3-inside-1_3702_19560"
     fill="white">
    <path
       d="M9.13204 14.4233C9.42982 14.4183 9.72371 14.3548 9.99693 14.2363C10.2701 14.1178 10.5174 13.9466 10.7244 13.7326C10.9315 13.5185 11.0944 13.2658 11.2038 12.9888C11.3132 12.7118 11.3669 12.4159 11.362 12.1182C11.357 11.8204 11.2935 11.5265 11.175 11.2533C11.0565 10.9801 10.8853 10.7329 10.6713 10.5258C10.4572 10.3187 10.2045 10.1558 9.92747 10.0464C9.65047 9.93705 9.35463 9.88328 9.05686 9.88822L9.09445 12.1558L9.13204 14.4233Z"
        />
  </mask>
  <path
     d="m 9.0371094,8.7109375 -1.1757813,0.019531 0.056641,3.4453122 0.056641,3.44336 1.1777344,-0.01953 c 0.4520253,-0.0076 0.8974412,-0.103185 1.3125002,-0.283203 0.414928,-0.179994 0.790878,-0.440396 1.105469,-0.765625 0.314426,-0.325054 0.562323,-0.708108 0.728515,-1.128906 0.166253,-0.420952 0.247674,-0.870263 0.240235,-1.322266 v -0.002 c -0.0076,-0.452035 -0.105119,-0.897425 -0.285157,-1.3125 C 12.073869,10.370084 11.815141,9.994118 11.490234,9.6796875 11.16518,9.3652609 10.780219,9.1173644 10.359375,8.9511719 9.9387319,8.7851165 9.4894282,8.7034335 9.0371094,8.7109375 Z"
      />
  <path
     
     d="m 3.6425781,3.9960938 c -0.8591656,0 -1.5683593,0.7111469 -1.5683593,1.5703124 V 18.904297 c 0,0.859165 0.7091937,1.568359 1.5683593,1.568359 h 2.3535156 c 0.8591657,0 1.5703126,-0.709194 1.5703125,-1.568359 V 5.5664062 C 7.5664063,4.7072407 6.8552594,3.9960937 5.9960937,3.9960938 Z m 0,1.1777343 h 2.3535156 c 0.2275155,0 0.3925782,0.1650628 0.3925782,0.3925781 V 18.904297 c 0,0.227515 -0.1650627,0.392578 -0.3925782,0.392578 H 3.6425781 C 3.4150628,19.296875 3.25,19.131812 3.25,18.904297 V 5.5664062 c 0,-0.2275153 0.1650628,-0.3925781 0.3925781,-0.3925781 z"
     />
</svg>
