<svg viewBox="0 0 41 35" xmlns="http://www.w3.org/2000/svg">
<path d="M25.3981 1.04535L25.4137 1.02314L25.2234 0.913901C24.9588 0.762033 24.6323 0.762033 24.3678 0.9139L24.3673 0.914155L10.6461 8.83725L10.6446 8.83806L10.6135 8.85532H2.81382C1.70112 8.85532 0.8 9.76139 0.8 10.8691V24.1318C0.8 25.2445 1.70607 26.1456 2.81382 26.1456H10.6117L24.3664 34.0864C24.5039 34.1665 24.6518 34.2 24.7954 34.2C24.9419 34.2 25.0926 34.1608 25.222 34.0877L25.2232 34.087C25.4893 33.9343 25.6519 33.6472 25.6519 33.3435V1.65936C25.6556 1.42692 25.5617 1.20522 25.3981 1.04535ZM2.51735 24.135V10.8686C2.51735 10.7038 2.65126 10.5721 2.81387 10.5721H9.92945V24.4318L2.81388 24.4315C2.65239 24.4315 2.51735 24.2966 2.51735 24.135ZM35.2509 28.6376L35.3137 28.5813L35.3138 28.58C38.5968 25.5911 40.243 21.3447 39.8426 16.9223L39.8426 16.9216C39.4308 12.5491 36.9468 8.57136 33.1966 6.2757L33.1965 6.27561C32.7925 6.02886 32.2631 6.15135 32.0146 6.55809C31.7679 6.96195 31.8903 7.49125 32.2968 7.73978C35.6334 9.78469 37.7616 13.1874 38.1273 17.0802C38.4884 20.9902 37.0227 24.7373 34.1029 27.364L34.1026 27.3642C33.7522 27.6806 33.7258 28.2206 34.0396 28.5739L34.041 28.5754C34.2095 28.7611 34.4411 28.8571 34.6771 28.8571C34.8798 28.8571 35.0875 28.7838 35.2509 28.6376ZM30.9783 26.5127L31.0589 26.4494L31.0588 26.4478C33.7764 24.2488 35.203 20.8678 34.8759 17.3793L34.8759 17.3793C34.55 13.9186 32.529 10.8584 29.4735 9.19432L29.4729 9.19397C29.0576 8.96981 28.5341 9.12008 28.3079 9.53841L28.3078 9.53853C28.0837 9.95378 28.2339 10.4773 28.6523 10.7035L28.7474 10.5276L28.6516 10.7031C31.2063 12.0966 32.8947 14.6505 33.1689 17.5381C33.4434 20.4765 32.2279 23.3299 29.9145 25.1664C29.542 25.4597 29.481 26.0003 29.7734 26.3713L29.7736 26.3715C29.942 26.5845 30.1903 26.6979 30.4444 26.6979C30.6306 26.6979 30.8211 26.636 30.9783 26.5127ZM11.6517 10.2373L23.9399 3.14368L23.9392 31.8605L11.6517 24.7672V10.2373Z" stroke-width="0.4"/>
</svg>
