<svg viewBox="0 0 86 94" xmlns="http://www.w3.org/2000/svg">
<path d="M42.9109 0C51.3254 0 64.2438 9.27752 64.2438 9.27752C64.2438 9.27752 78.6185 16.0199 82.8527 23.4096C87.087 30.7992 85.5497 46.8191 85.5497 46.8191C85.5497 46.8191 87.0061 62.812 82.8527 70.2287C78.6994 77.6453 64.2707 84.3607 64.2707 84.3607C64.2707 84.3607 51.3523 93.6382 42.9378 93.6382C34.5233 93.6382 21.4971 84.3607 21.4971 84.3607C21.4971 84.3607 7.2032 77.6453 2.96899 70.2287C-1.26523 62.812 0.272032 46.8191 0.272032 46.8191C0.272032 46.8191 -1.18432 30.8262 2.96899 23.4096C7.12229 15.9929 21.4971 9.27752 21.4971 9.27752C21.4971 9.27752 34.4964 0 42.9109 0ZM42.9109 86.3025C80.0209 69.069 62.8414 33.4692 75.2743 23.1938C66.1586 19.3372 36.4651 9.70903 12.2735 22.4117C24.194 32.2016 5.71988 69.2038 42.803 86.4373L42.9109 86.3025Z" />
<path d="M16.1094 23.8409C20.02 27.0233 19.3457 31.9317 19.7233 39.4293L34.9881 36.8941L43.3486 20.173L51.7092 36.8941L67.1088 39.5911C67.783 32.579 67.4863 27.9942 71.5048 24.7309C53.8362 17.3451 34.0061 17.0265 16.1094 23.8409ZM56.8603 52.5904L59.6921 69.1227L58.8291 70.3363L43.3216 62.2455L27.3826 70.4982L26.8972 69.6891L29.8638 52.5904L19.8581 40.5889C20.6133 55.557 21.6112 72.2781 42.8362 83.7402C65.5445 71.1724 65.6254 55.1255 67.1088 40.2653L56.8603 52.5904Z" />
</svg>
