<?xml version="1.0" encoding="UTF-8" standalone="no"?>
<svg
   viewBox="0 0 54 53"
   version="1.1"
   xmlns="http://www.w3.org/2000/svg"
   xmlns:svg="http://www.w3.org/2000/svg">
  <defs
     id="defs505" />
  <g
     id="path499">
    <path
       style="color:#000000;fill:#ffffff;stroke-width:0.613085;-inkscape-stroke:none"
       d="M 51.1114,38.2597 50.8446,38.5266 48.766,36.448 h -4e-4 c -0.9569,-0.9569 -1.5962,-2.1854 -1.8308,-3.5186 -0.4023,-2.4723 -1.4852,-4.7833 -3.1274,-6.6745 1.6303,-1.8989 2.7115,-4.2065 3.1274,-6.6745 0.2362,-1.3379 0.8747,-2.5723 1.8308,-3.5374 l 2.0692,-2.0598 0.2668,0.2669 c 0.3712,0.3767 0.9774,0.381 1.3541,0.0098 0.3768,-0.3712 0.381,-0.9773 0.0094,-1.3541 L 51.5116,11.9523 41.2997,1.73062 40.3462,0.777111 c -0.372,-0.369481 -0.9727,-0.369481 -1.3443,0 -0.1805,0.179204 -0.2822,0.422689 -0.2822,0.677239 0,0.25412 0.1017,0.49761 0.2822,0.67682 L 39.2688,2.39806 37.1903,4.4864 C 36.23,5.43906 35.0028,6.07761 33.6717,6.31724 31.2011,6.72419 28.891,7.80668 26.9971,9.44464 25.102,7.80831 22.7928,6.72589 20.3226,6.31724 18.9847,6.08099 17.7503,5.44249 16.7852,4.4864 l -2.0597,-2.06916 0.2669,-0.2669 c 0.1804,-0.1792 0.2822,-0.42269 0.2822,-0.67724 0,-0.25412 -0.1018,-0.497606 -0.2822,-0.67681 -0.3717,-0.369906 -0.9723,-0.369906 -1.3443,0 L 12.6946,1.7498 1.52929,12.9064 c -0.37162,0.3737 -0.36949,0.9777 0.00468,1.3494 0.37374,0.3711 0.97777,0.369 1.34896,-0.0051 l 0.27669,-0.2669 2.07854,2.0785 c 0.94924,0.9616 1.58434,2.1884 1.82147,3.5186 0.41204,2.4689 1.49411,4.7778 3.12737,6.6745 C 8.55418,28.1526 7.47252,30.4611 7.05963,32.93 6.82338,34.2678 6.18488,35.5023 5.22879,36.4673 L 3.15962,38.5271 2.89273,38.2602 C 2.71353,38.0798 2.47004,37.978 2.21549,37.978 c -0.25412,0 -0.49761,0.1018 -0.67681,0.2822 -0.36991,0.3716 -0.36991,0.9723 0,1.3443 l 0.9535,0.9535 11.15652,11.1653 c 0.3721,0.3699 0.9727,0.3699 1.3443,0 0.1805,-0.1788 0.2822,-0.4227 0.2822,-0.6768 0,-0.2541 -0.1017,-0.498 -0.2822,-0.6768 l -0.2669,-0.2767 2.0786,-2.0786 c 0.9582,-0.9543 2.1866,-1.5903 3.5186,-1.8214 2.4672,-0.4176 4.7743,-1.4988 6.6745,-3.1274 1.899,1.6303 4.2066,2.7115 6.6746,3.1274 1.34,0.2303 2.5757,0.8696 3.5373,1.8308 l 2.0598,2.0692 -0.2669,0.2669 c -0.1805,0.1792 -0.2822,0.4227 -0.2822,0.6772 0,0.2541 0.1017,0.4976 0.2822,0.6768 0.3716,0.3699 0.9722,0.3699 1.3443,0 l 12.1188,-12.109 c 0.3699,-0.372 0.3699,-0.9726 0,-1.3442 -0.1788,-0.1805 -0.4227,-0.2823 -0.6769,-0.2823 -0.2541,0 -0.498,0.1018 -0.6768,0.2823 z M 33.9483,8.19536 V 8.19494 C 35.677,7.90122 37.2702,7.07459 38.506,5.83035 l 2.1071,-2.07853 8.8868,8.88678 -2.0786,2.0785 c -1.2442,1.2358 -2.0709,2.8291 -2.3646,4.5577 -0.4295,2.5497 -1.6741,4.8919 -3.5471,6.6745 -0.1511,-0.3575 -0.3716,-0.6815 -0.6483,-0.9535 -0.2976,-0.3048 -0.659,-0.5393 -1.0587,-0.6866 0.367,-0.5836 0.5262,-1.2737 0.4517,-1.959 -0.0745,-0.6853 -0.378,-1.3255 -0.8616,-1.8168 -0.3009,-0.3022 -0.6615,-0.5393 -1.0582,-0.6959 0.3503,-0.5836 0.4955,-1.2673 0.4125,-1.9428 -0.0826,-0.6755 -0.3891,-1.3043 -0.8705,-1.7857 -0.4878,-0.4734 -1.117,-0.7739 -1.7916,-0.8565 -0.6751,-0.083 -1.3584,0.0575 -1.9457,0.3989 -0.1473,-0.3993 -0.3818,-0.7611 -0.6866,-1.0582 -0.5726,-0.5738 -1.3494,-0.8961 -2.1599,-0.8961 -0.81,0 -1.5872,0.3223 -2.1594,0.8961 l -3.814,3.814 c -0.1728,-0.5355 -0.4703,-1.0225 -0.8679,-1.4209 -0.4082,-0.3971 -0.9101,-0.6858 -1.4588,-0.839 l 4.6338,-4.6246 C 29.3436,9.77745 31.5643,8.61374 33.977,8.19485 Z M 6.57345,14.7171 4.49491,12.6386 13.3817,3.75181 15.4602,5.83034 c 1.2358,1.24424 2.8291,2.07091 4.5577,2.36459 2.0615,0.3448 3.994,1.23356 5.5971,2.57447 L 11.5129,24.8628 C 10.1763,23.2605 9.28794,21.3323 8.93847,19.275 8.64476,17.5464 7.81813,15.9531 6.57388,14.7173 Z M 20.0184,44.2758 c -1.7286,0.2937 -3.3219,1.1208 -4.5576,2.3646 L 13.3822,48.7573 4.49546,39.8705 6.57399,37.792 c 1.24425,-1.2358 2.07091,-2.829 2.36459,-4.5577 0.41077,-2.4297 1.57112,-4.67 3.31852,-6.4076 l 8.4956,-8.5054 c 0.3086,-0.2937 0.7181,-0.4576 1.1442,-0.4576 0.4261,0 0.8356,0.1639 1.1442,0.4576 0.3052,0.3026 0.4768,0.7147 0.4768,1.1442 0,0.4299 -0.1716,0.8415 -0.4768,1.1442 l -2.0977,2.1071 v 4e-4 c -0.324,0.378 -0.3022,0.942 0.0498,1.2945 0.3524,0.352 0.9165,0.3737 1.2945,0.0498 l 8.1431,-8.1432 c 0.4504,-0.4495 1.18,-0.4495 1.6304,0 0.2158,0.215 0.3367,0.5066 0.3367,0.8105 0,0.3044 -0.1209,0.5959 -0.3367,0.8105 l -8.1428,8.1431 c -0.1804,0.1792 -0.2822,0.4227 -0.2822,0.6769 0,0.2545 0.1018,0.498 0.2822,0.6772 0.3717,0.3695 0.9727,0.3695 1.3443,0 l 9.6019,-9.6019 c 0.4533,-0.4333 1.1676,-0.4333 1.6209,0 0.2154,0.2146 0.3367,0.5062 0.3367,0.8105 0,0.3044 -0.1213,0.596 -0.3367,0.8105 l -9.6018,9.6019 c -0.324,0.3784 -0.3022,0.942 0.0502,1.2944 0.352,0.3521 0.916,0.3738 1.2945,0.0498 l 8.1524,-8.1431 v 4e-4 c 0.4534,-0.4338 1.1676,-0.4338 1.621,0 0.2154,0.2145 0.3362,0.5061 0.3362,0.8105 0,0.3039 -0.1208,0.5955 -0.3362,0.8105 l -8.1432,8.1427 c -0.1805,0.1792 -0.2822,0.4227 -0.2822,0.6772 0,0.2542 0.1017,0.4976 0.2822,0.6768 0.372,0.37 0.9727,0.37 1.3443,0 l 6.6745,-6.6745 c 0.4478,-0.4478 1.1737,-0.4478 1.621,0 0.4478,0.4478 0.4478,1.1732 0,1.621 C 26.0447,41.3289 24.9866,43.4179 20.0185,44.3137 Z m 18.5177,2.403 C 37.3003,45.4345 35.707,44.6079 33.9784,44.3142 31.9186,43.963 29.9882,43.0751 28.3813,41.7397 L 42.4834,27.6376 c 1.3467,1.5997 2.2361,3.5336 2.5744,5.5972 0.2954,1.7277 1.1221,3.3211 2.3646,4.5576 l 2.0785,2.0786 -8.8867,8.8867 z"
       id="path527" />
    <path
       style="color:#000000;fill:#424141;-inkscape-stroke:none"
       d="m 39.673828,0.1953125 c -0.32189,5.44e-6 -0.644307,0.12226316 -0.888672,0.36523437 -0.238165,0.23645519 -0.371094,0.55833323 -0.371094,0.89453123 0,0.3359062 0.132931,0.6580704 0.371094,0.8945313 l 0.05078,0.048828 -1.863281,1.8710937 C 36.056603,5.1778408 34.886641,5.7870929 33.617187,6.015625 31.170998,6.419236 28.896846,7.496541 26.996094,9.0839844 25.094191,7.4983677 22.820825,6.4205827 20.375,6.015625 h -0.002 C 19.097726,5.7900393 17.922075,5.1806054 17.001953,4.2695312 l -1.84375,-1.8515624 0.05078,-0.050781 c 0.237992,-0.2364085 0.373047,-0.558253 0.373047,-0.8945313 0,-0.3359865 -0.135059,-0.65812182 -0.373047,-0.8945312 -0.488727,-0.48636878 -1.288364,-0.48622719 -1.777343,0 v 0.001953 L 12.478516,1.5332031 1.3125,12.689453 c -0.48848425,0.491218 -0.48569135,1.294897 0.00586,1.783203 0.4913332,0.487863 1.2933525,0.485863 1.78125,-0.0059 l 0.056641,-0.05273 1.8652344,1.865234 c 0.904616,0.917188 1.5102411,2.087215 1.7363281,3.355469 0.4085735,2.444077 1.4856157,4.71815 3.0683594,6.621093 C 8.2436446,28.159933 7.1666828,30.434043 6.7578125,32.878906 6.5322275,34.154129 5.9227736,35.329993 5.0117187,36.25 L 3.1601563,38.09375 3.109375,38.044922 C 2.8729665,37.80693 2.551122,37.671875 2.2148438,37.671875 c -0.3351011,0 -0.6563438,0.134273 -0.8925782,0.371094 -0.48644003,0.488662 -0.48625117,1.288345 0,1.777343 l 0.953125,0.955079 11.1562504,11.164062 v 0.002 c 0.489064,0.486173 1.288699,0.486409 1.777343,0 0.23862,-0.236372 0.373047,-0.558638 0.373047,-0.894531 0,-0.335893 -0.134427,-0.658159 -0.373047,-0.894531 l -0.05273,-0.05469 1.865234,-1.865234 c 0.913635,-0.909917 2.083574,-1.517948 3.353516,-1.738281 v 0.002 c 2.443324,-0.413559 4.716363,-1.489506 6.623047,-3.06836 1.905735,1.580545 4.17882,2.656466 6.623047,3.06836 v -0.002 c 1.27767,0.219587 2.454296,0.829677 3.371093,1.746093 l 1.84375,1.851563 -0.04883,0.05078 c -0.238174,0.236459 -0.373047,0.558367 -0.373047,0.894531 0,0.335893 0.134873,0.658073 0.373047,0.894532 0.488645,0.486409 1.286326,0.486173 1.775391,0 L 52.683594,39.822266 v -0.002 c 0.48622,-0.48898 0.486409,-1.286746 0,-1.77539 -0.236333,-0.23858 -0.558491,-0.373047 -0.894532,-0.373047 -0.202437,0 -0.362374,0.133592 -0.539062,0.224609 l -0.07813,-0.130859 -0.277344,0.277344 v 0.002 l -0.05078,0.04883 -1.861328,-1.863281 c -0.911378,-0.911378 -1.519825,-2.080034 -1.744141,-3.34961 l -0.002,-0.0039 c -0.399141,-2.448019 -1.476827,-4.724602 -3.068359,-6.623047 1.579586,-1.904923 2.656335,-4.178085 3.068359,-6.621094 v -0.002 c 0.225537,-1.275313 0.835011,-2.450972 1.746094,-3.371093 l 1.851562,-1.84375 0.05078,0.05078 c 0.487686,0.492767 1.291157,0.498505 1.785156,0.01172 0.49483,-0.487476 0.501483,-1.292473 0.01367,-1.78711 l -0.002,-0.002 L 51.728516,11.736328 41.515625,1.5136719 40.5625,0.56054687 C 40.317967,0.31767015 39.995718,0.19530706 39.673828,0.1953125 Z M 39.21875,0.99414063 c 0.25447,-0.25301884 0.657175,-0.25320781 0.912109,0 l 0.951172,0.95312497 10.212891,10.2226564 0.951172,0.951172 c 0.255388,0.258962 0.25291,0.664998 -0.0059,0.919922 -0.258745,0.254967 -0.665014,0.252824 -0.919922,-0.0059 l -0.002,-0.002 -0.482422,-0.482422 -2.287109,2.275391 -0.002,0.002 c -1.000052,1.009466 -1.667031,2.299969 -1.914063,3.699219 v 0.002 c -0.406636,2.413027 -1.464616,4.668798 -3.058593,6.52539 l -0.171875,0.201172 0.173828,0.199219 c 1.604882,1.848224 2.663483,4.107322 3.05664,6.523438 v 0.002 0.002 c 0.245503,1.395158 0.914628,2.680253 1.916016,3.68164 l 0.08984,0.08984 2.205078,2.207031 0.207031,-0.207031 0.002,0.002 0.277344,-0.279297 c 0.121267,-0.122419 0.286758,-0.191406 0.458984,-0.191406 0.172359,0 0.337718,0.06899 0.458985,0.191406 0.25339,0.254555 0.253579,0.657091 0,0.91211 L 40.130859,51.496094 c -0.255134,0.253626 -0.657554,0.25339 -0.912109,0 -0.122826,-0.121941 -0.191406,-0.286678 -0.191406,-0.458985 0,-0.172835 0.06858,-0.337043 0.191406,-0.458984 v -0.002 l 0.484375,-0.482422 -2.277344,-2.287109 c -1.0064,-1.005982 -2.298845,-1.675004 -3.701172,-1.916016 h -0.002 c -2.413027,-0.406636 -4.668693,-1.462658 -6.52539,-3.056641 l -0.199219,-0.171875 -0.199219,0.169922 c -1.85801,1.592441 -4.114984,2.650276 -6.527344,3.058594 -1.394055,0.241866 -2.68083,0.907568 -3.683593,1.90625 l -2.291016,2.292969 0.478516,0.496093 0.002,0.002 c 0.122379,0.121227 0.191406,0.286677 0.191406,0.458984 0,0.172307 -0.06903,0.337757 -0.191406,0.458984 -0.254555,0.253391 -0.656975,0.253627 -0.91211,0 L 2.7089844,40.341797 1.7558594,39.388672 c -0.2535681,-0.255001 -0.2533792,-0.657573 0,-0.91211 0.1219911,-0.122808 0.2867314,-0.191406 0.4589844,-0.191406 0.1728212,0 0.3389463,0.0686 0.4609375,0.191406 l 0.4824218,0.484375 2.2871094,-2.277343 h 0.00195 c 1.0000607,-1.009381 1.66698,-2.302031 1.9140625,-3.701172 v -0.002 C 7.764979,30.566815 8.8236409,28.309823 10.419922,26.455078 l 0.171875,-0.199219 -0.171875,-0.201172 C 8.8232453,24.200472 7.7641313,21.944804 7.3613281,19.53125 v -0.002 -0.002 C 7.113317,18.136105 6.44982,16.853372 5.4570312,15.847656 l -0.00195,-0.002 -2.2910156,-2.291015 -0.4960937,0.478515 -0.00195,0.002 C 2.4115338,14.291633 2.006146,14.293399 1.75,14.039063 1.4932115,13.783969 1.4913387,13.379228 1.7460937,13.123047 L 12.912109,1.9667969 13.863281,1.0136719 c 0.25502,-0.2535841 0.657438,-0.2534425 0.91211,0 0.122812,0.1219982 0.193359,0.2867314 0.193359,0.4589843 0,0.1728213 -0.07055,0.3389464 -0.193359,0.4609375 l -0.482422,0.4824219 2.27539,2.2871094 0.002,0.00195 c 1.009466,1.0000414 2.299977,1.6669806 3.699219,1.9140625 h 0.002 0.002 c 2.414553,0.3994441 4.670959,1.4571122 6.523438,3.0566407 l 0.201172,0.1738281 0.199219,-0.1738281 c 1.851155,-1.6009922 4.10862,-2.658879 6.523437,-3.0566407 h 0.0039 0.002 C 35.118783,6.3685075 36.401873,5.6995115 37.40625,4.703125 L 39.701172,2.3984375 39.21875,1.9140625 c -0.122837,-0.1219587 -0.193359,-0.286651 -0.193359,-0.4589844 0,-0.1729015 0.07053,-0.338985 0.193359,-0.46093747 z M 13.380859,3.3183594 4.0605469,12.638672 l 2.296875,2.296875 c 1.1989436,1.190801 1.9962873,2.725001 2.2792969,4.390625 0.3585375,2.11068 1.2693348,4.088536 2.6406252,5.732422 L 11.492188,25.316406 26.068359,10.75 25.8125,10.535156 C 24.167538,9.1592307 22.183647,8.2463745 20.068359,7.8925781 18.402744,7.6095989 16.868538,6.8141709 15.677734,5.6152344 v -0.00195 z m 27.234375,0.00195 -2.326172,2.2929687 v 0.00195 c -1.190807,1.19894 -2.726853,1.9943238 -4.392578,2.2773437 l -0.253906,0.042969 v 0.052734 C 31.281189,8.459267 29.099986,9.5891764 27.408203,11.308594 l -5.003906,4.992187 0.505859,0.142578 c 0.497837,0.138999 0.953384,0.400046 1.324219,0.759766 0.363376,0.364107 0.635066,0.809495 0.792969,1.298828 l 0.154297,0.476563 4.167968,-4.167969 c 0.514726,-0.516165 1.214676,-0.806641 1.94336,-0.806641 0.729233,0 1.428135,0.290337 1.943359,0.806641 l 0.002,0.002 c 0.272,0.265128 0.481734,0.588715 0.613281,0.945313 l 0.126954,0.341796 0.314453,-0.183593 c 0.529579,-0.307847 1.145256,-0.434206 1.753906,-0.359375 0.6084,0.07449 1.17545,0.344682 1.615234,0.771484 0.431934,0.43278 0.707066,0.99684 0.78125,1.603516 0.07467,0.607697 -0.05593,1.222978 -0.371093,1.748046 l -0.1875,0.310547 0.33789,0.132813 c 0.357419,0.141093 0.682061,0.354717 0.953125,0.626953 0.434096,0.441864 0.706485,1.016933 0.773438,1.632812 0.06704,0.616673 -0.07596,1.238442 -0.40625,1.763672 l -0.201172,0.320313 0.355469,0.130859 c 0.356906,0.13153 0.679471,0.339056 0.945312,0.611328 l 0.002,0.0039 0.002,0.002 c 0.247973,0.243761 0.444756,0.533345 0.580078,0.853515 l 0.173829,0.408203 0.320312,-0.304687 c 1.921008,-1.828291 3.198167,-4.230673 3.638672,-6.845703 0.282998,-1.665614 1.078443,-3.199819 2.277344,-4.390625 v -0.002 l 2.296875,-2.294922 z m -0.0039,0.8632812 8.455078,8.4550783 L 47.205078,14.5 c -1.289497,1.280791 -2.146771,2.931074 -2.451172,4.722656 v 0.002 c -0.397852,2.361825 -1.555297,4.507415 -3.232422,6.208985 -0.137728,-0.225286 -0.252681,-0.4662 -0.441406,-0.652344 l -0.002,-0.002 c -0.265704,-0.271665 -0.602579,-0.450542 -0.945313,-0.611328 0.290702,-0.577639 0.496159,-1.204186 0.425782,-1.851563 -0.08195,-0.753832 -0.415254,-1.457563 -0.947266,-1.998047 l -0.002,-0.002 c -0.269663,-0.270828 -0.604495,-0.456577 -0.947266,-0.623047 0.275583,-0.575989 0.467072,-1.197874 0.388672,-1.835937 -0.09091,-0.743435 -0.427258,-1.435071 -0.957031,-1.964844 l -0.002,-0.002 -0.002,-0.002 c -0.535815,-0.519997 -1.225998,-0.850701 -1.966797,-0.941406 v 0.002 c -0.637325,-0.07836 -1.259968,0.108418 -1.837891,0.376953 -0.160626,-0.344335 -0.342498,-0.68245 -0.615234,-0.949219 l -0.002,-0.002 c -0.629789,-0.630072 -1.484156,-0.984375 -2.375,-0.984375 -0.891315,0 -1.74728,0.354894 -2.376953,0.986328 l -3.542969,3.544922 c -0.190123,-0.41249 -0.382509,-0.829126 -0.705078,-1.152344 l -0.002,-0.002 v -0.002 C 24.336192,16.44477 23.907513,16.266852 23.486328,16.087891 l 4.357422,-4.34961 h 0.002 c 1.672312,-1.699628 3.833936,-2.8342426 6.183594,-3.2421872 v -0.00781 c 1.778884,-0.3088111 3.418236,-1.1583998 4.691406,-2.4394532 l 0.002,-0.00195 z m -27.230469,0.00195 1.861329,1.8613281 c 1.280793,1.289541 2.933028,2.1467917 4.724609,2.4511719 1.894484,0.3168654 3.655362,1.1391042 5.162109,2.3242191 l -13.5625,13.554687 C 10.384862,22.871152 9.5614051,21.115314 9.2402344,19.224609 8.9358245,17.433036 8.0786164,15.780796 6.7890625,14.5 l -0.00391,-0.0039 -0.033203,-0.0332 -1.8242187,-1.824219 z m 20.591797,3.7324218 0.28125,0.2773438 -0.226562,0.2714844 z m -2.726562,7.3593753 c -0.373981,0 -0.747471,0.140616 -1.03125,0.423828 l -8.126953,8.126953 c -0.257865,0.220959 -0.635747,0.206119 -0.876954,-0.0332 -0.240949,-0.241291 -0.256681,-0.62046 -0.03516,-0.878906 L 21.25,22.830078 v 0.01367 l 2.007812,-2.015625 v -0.002 c 0.362226,-0.35996 0.566407,-0.85048 0.566407,-1.361328 0,-0.511149 -0.203188,-1.001205 -0.566407,-1.361328 l -0.0039,-0.002 -0.002,-0.002 c -0.365443,-0.347798 -0.850761,-0.542968 -1.355469,-0.542968 -0.504707,0 -0.990026,0.19517 -1.355468,0.542968 l -0.002,0.002 -8.498046,8.507813 c -1.792702,1.782647 -2.9828735,4.081502 -3.4042972,6.574219 -0.28298,1.665716 -1.0803457,3.199816 -2.2792969,4.390625 L 4.0625,39.871094 l 9.322266,9.322265 2.294922,-2.33789 c 1.130241,-1.136877 2.582961,-1.879702 4.15039,-2.197266 l 0.242188,-0.04297 c 2.521259,-0.454609 4.12181,-1.25026 6.708984,-3.578125 2.587174,-2.327864 6.209544,-6.196424 12.933594,-12.896484 0.564843,-0.564843 0.564843,-1.489844 0,-2.054688 -0.564489,-0.56512 -1.489764,-0.564923 -2.054688,0 l -6.673828,6.673829 c -0.254551,0.253454 -0.657095,0.253643 -0.912109,0 -0.122866,-0.121981 -0.191406,-0.286546 -0.191407,-0.458985 0,-0.172835 0.06858,-0.338996 0.191407,-0.460937 l 8.144531,-8.142578 c 0.272927,-0.272421 0.425781,-0.642211 0.425781,-1.027344 0,-0.3855 -0.152558,-0.755263 -0.425781,-1.027344 l -0.002,-0.0039 -0.0039,-0.002 C 37.787858,21.23006 37.20752,21.229437 36.6875,21.429687 v -0.310546 l -0.517578,0.517578 -8.140625,8.132812 c -5.75e-4,4.92e-4 -0.0014,-4.89e-4 -0.002,0 -0.259032,0.220236 -0.636788,0.205078 -0.876953,-0.03516 -0.241315,-0.241314 -0.254981,-0.617939 -0.0332,-0.876953 l 9.583985,-9.583985 0.002,-0.002 c 0.271884,-0.271738 0.425781,-0.642392 0.425781,-1.027343 0,-0.385763 -0.154739,-0.755363 -0.427734,-1.027344 l -0.002,-0.002 -0.002,-0.002 c -0.569574,-0.544444 -1.475348,-0.544444 -2.044922,0 l -0.002,0.002 -9.603516,9.603515 c -0.254414,0.252977 -0.657579,0.253024 -0.912109,0 -0.122804,-0.121987 -0.191407,-0.286229 -0.191407,-0.458984 0,-0.172359 0.0686,-0.336997 0.191407,-0.458984 l 8.142578,-8.144532 c 0.273624,-0.272102 0.427734,-0.641776 0.427734,-1.027343 0,-0.385201 -0.154312,-0.754936 -0.427734,-1.027344 -0.283779,-0.283212 -0.65727,-0.423828 -1.03125,-0.423828 z m -0.59961,0.857422 c 0.333242,-0.332576 0.864025,-0.332576 1.197266,0 h 0.002 c 0.158178,0.157591 0.246094,0.371151 0.246094,0.59375 0,0.223232 -0.08812,0.436653 -0.246094,0.59375 l -8.142578,8.142578 c -0.237996,0.236412 -0.373047,0.55849 -0.373047,0.894531 0,0.336244 0.135051,0.658119 0.373047,0.894531 0.488869,0.485976 1.286606,0.486023 1.775391,0 l 9.597656,-9.597656 c 0.336475,-0.32163 0.858232,-0.32058 1.195312,0 0.155798,0.156904 0.244141,0.366568 0.244141,0.587891 0,0.222964 -0.08835,0.436664 -0.246094,0.59375 l -9.611328,9.611328 -0.0078,0.0098 c -0.426222,0.497785 -0.397079,1.2455 0.06641,1.708985 0.463299,0.463431 1.213017,0.492631 1.710937,0.06641 l 0.0098,-0.0078 8.154297,-8.146484 c 5.5e-4,-5.26e-4 0.0014,5.25e-4 0.002,0 0.336716,-0.320535 0.856643,-0.320535 1.193359,0 0.155577,0.156609 0.244141,0.368058 0.244141,0.589844 0,0.222666 -0.08822,0.436171 -0.246094,0.59375 l -8.142578,8.142578 c -0.237348,0.236337 -0.373047,0.558992 -0.373047,0.894531 0,0.335961 0.134913,0.65616 0.373047,0.892578 0.488985,0.486356 1.288695,0.486545 1.777344,0 l 6.673828,-6.673828 c 0.330675,-0.330675 0.85739,-0.330479 1.1875,0 0.330756,0.330756 0.330756,0.856744 0,1.1875 -6.729637,6.705627 -10.362835,10.582994 -12.910156,12.875 -2.445876,2.200728 -3.880665,2.902431 -6.154297,3.347656 l -0.25,0.04297 c -1.791628,0.304409 -3.441991,1.162112 -4.722656,2.451172 l -0.002,0.002 -1.861329,1.896485 -8.4511715,-8.451172 1.859375,-1.861328 0.00195,-0.002 c 1.2884542,-1.280514 2.1449936,-2.931883 2.4492188,-4.722656 0.4001154,-2.366678 1.5303266,-4.547685 3.2324216,-6.240234 v -0.002 l 8.492188,-8.5 c 0.251756,-0.239601 0.584149,-0.373047 0.93164,-0.373047 0.346615,0 0.680108,0.132632 0.931641,0.371094 0.246002,0.2449 0.382813,0.576863 0.382812,0.923828 0,0.348326 -0.137422,0.682417 -0.384765,0.927734 h -0.002 l -2.1875,2.197266 v 0.126953 l 0.07422,-0.199219 c -0.426473,0.497553 -0.398597,1.24723 0.06445,1.710938 h 0.002 c 0.463666,0.463139 1.211423,0.492755 1.708984,0.06641 l 0.0098,-0.0078 z m 11.855469,11.050781 -14.574219,14.574219 0.257813,0.214843 c 1.648342,1.36984 3.629285,2.282324 5.742187,2.642578 1.665626,0.283001 3.199827,1.078355 4.390625,2.277344 v 0.002 l 2.294922,2.294922 9.320313,-9.320312 -2.294922,-2.294922 v -0.002 c -1.196914,-1.191134 -1.994359,-2.724473 -2.279297,-4.388672 v -0.002 C 45.011916,31.066223 44.100609,29.080918 42.71875,27.439453 Z m -0.07227,0.9375 c 1.190103,1.503917 2.015288,3.265744 2.326172,5.162109 v 0.002 c 0.306135,1.790486 1.163531,3.441233 2.451172,4.722657 l 1.861328,1.861328 -8.455078,8.453125 -1.859375,-1.861328 h -0.002 C 37.471312,45.173912 35.820345,44.316029 34.029297,44.011719 32.136132,43.68893 30.377142,42.868053 28.867187,41.6875 Z"
       id="path524" />
  </g>
</svg>
