<svg
   viewBox="0 0 63 36"
   version="1.1"
   xmlns="http://www.w3.org/2000/svg"
   xmlns:svg="http://www.w3.org/2000/svg">
  <path
     d="M 31.681641,0.078125 C 30.569252,0.07322856 29.456639,0.25945648 28.392578,0.63671875 L 8.7910156,7.5859375 C 7.0736447,8.1948215 6.1705348,9.7454836 6.1582031,11.28125 c -0.012332,1.535766 0.8668426,3.103875 2.5742188,3.740234 l 19.5117191,7.271485 c 2.217388,0.826487 4.659352,0.815473 6.86914,-0.03125 l 18.931641,-7.253906 c 1.685893,-0.64601 2.553504,-2.201355 2.541015,-3.726563 C 56.573449,9.7560424 55.680612,8.2139616 53.984375,7.5957031 L 34.966797,0.6640625 C 33.906108,0.27744618 32.794029,0.08302144 31.681641,0.078125 Z m -0.0039,1 c 0.99786,0.00439 1.993704,0.1785337 2.945313,0.5253906 l 19.019531,6.9335938 c 1.30756,0.4765904 1.933923,1.5995306 1.943359,2.7519536 0.0094,1.152422 -0.598833,2.287167 -1.898437,2.785156 l -18.931641,7.253906 c -1.982607,0.759675 -4.174654,0.768855 -6.164062,0.02734 L 9.0820313,14.083984 C 7.7648205,13.593045 7.1488823,12.451819 7.1582031,11.291016 7.167524,10.130212 7.800074,8.9970887 9.125,8.5273438 L 28.726562,1.578125 c 0.954637,-0.338466 1.953313,-0.5043923 2.951172,-0.5 z"
     />
  <path
     d="M 13.324219,16.705078 V 27.5625 c 0,4.136215 3.363878,7.5 7.5,7.5 h 21.138672 c 4.136214,0 7.5,-3.363785 7.5,-7.5 V 16.705078 h -1 V 27.5625 c 0,3.595777 -2.904223,6.5 -6.5,6.5 H 20.824219 c -3.595671,0 -6.5,-2.904223 -6.5,-6.5 V 16.705078 Z"
     />
  <path
     d="m 54.648437,14.400391 a 0.5,0.5 0 0 0 -0.5,0.5 V 27.5 a 0.5,0.5 0 0 0 0.5,0.5 0.5,0.5 0 0 0 0.5,-0.5 V 14.900391 a 0.5,0.5 0 0 0 -0.5,-0.5 z"
     />
  <path
     d="M 57,20.5 A 2.5,2.5 0 0 1 54.5,23 2.5,2.5 0 0 1 52,20.5 2.5,2.5 0 0 1 54.5,18 2.5,2.5 0 0 1 57,20.5 Z" />
</svg>
