<svg viewBox="0 0 32 32" xmlns="http://www.w3.org/2000/svg">
<path d="M15.431 0c8.522 0 15.431 6.909 15.431 15.431s-6.909 15.431-15.431 15.431c-8.522 0-15.431-6.909-15.431-15.431s6.909-15.431 15.431-15.431z"></path>
<path fill="#2f2d2e" d="M19.731 13.11c0 0.048 0 0.099 0 0.151s0 0.103 0 0.151c0 0.774-0.138 1.555-0.413 2.345s-0.678 1.503-1.21 2.139c-0.531 0.637-1.189 1.156-1.972 1.559s-1.688 0.604-2.712 0.604c-0.627 0-1.227-0.093-1.8-0.278s-1.105-0.443-1.594-0.774c0.084 0.008 0.17 0.016 0.258 0.024s0.178 0.012 0.269 0.012c0.52 0 1.013-0.089 1.479-0.266s0.891-0.423 1.273-0.737c-0.482-0.008-0.912-0.163-1.29-0.465s-0.636-0.687-0.774-1.154c0.061 0.016 0.128 0.026 0.201 0.030s0.143 0.006 0.212 0.006c0.099 0 0.199-0.006 0.298-0.018s0.195-0.030 0.287-0.054c-0.505-0.113-0.927-0.383-1.267-0.81s-0.51-0.923-0.51-1.487c0-0.008 0-0.014 0-0.018s0-0.006 0-0.006c0.145 0.081 0.304 0.147 0.476 0.2s0.346 0.082 0.522 0.091c-0.298-0.209-0.537-0.485-0.717-0.828s-0.269-0.715-0.269-1.118c0-0.218 0.027-0.425 0.080-0.622s0.13-0.381 0.229-0.55c0.268 0.355 0.571 0.675 0.912 0.961s0.703 0.536 1.089 0.749c0.386 0.214 0.795 0.383 1.227 0.508s0.877 0.199 1.336 0.224c-0.023-0.089-0.038-0.177-0.046-0.266s-0.011-0.177-0.011-0.266c0-0.322 0.057-0.627 0.172-0.913s0.273-0.534 0.476-0.743c0.203-0.21 0.438-0.377 0.705-0.502s0.554-0.187 0.86-0.187c0.321 0 0.621 0.066 0.9 0.199s0.518 0.312 0.717 0.538c0.252-0.048 0.497-0.121 0.734-0.218s0.462-0.21 0.676-0.338c-0.084 0.266-0.21 0.51-0.378 0.731s-0.367 0.405-0.596 0.55c0.222-0.024 0.439-0.066 0.654-0.127s0.42-0.139 0.619-0.236c-0.145 0.234-0.311 0.453-0.499 0.659s-0.388 0.389-0.602 0.55z"></path>
</svg>
