<?xml version="1.0" encoding="UTF-8" standalone="no"?>
<svg viewBox="0 0 35 13" version="1.1" xmlns="http://www.w3.org/2000/svg" xmlns:svg="http://www.w3.org/2000/svg">
    <path style="fill: none;" d="M 4.9814952,0.84685498 H 30.018516 c 2.290591,0 4.13464,1.84404952 4.13464,4.13464022 v 2.2217197 c 0,2.2905907 -1.844049,4.1346401 -4.13464,4.1346401 H 4.9814952 c -2.2905907,0 -4.13464022,-1.8440494 -4.13464022,-4.1346401 V 4.9814952 c 0,-2.2905907 1.84404952,-4.13464022 4.13464022,-4.13464022 z"/>
    <path d="M 4.9824219,0 C 2.2373245,0 0,2.2373245 0,4.9824219 V 7.203125 c 0,2.7450974 2.2373245,4.982422 4.9824219,4.982422 H 30.017578 C 32.762676,12.185547 35,9.9482222 35,7.203125 V 4.9824219 C 35,2.2373246 32.762676,0 30.017578,0 Z m 0,1.6933594 H 30.017578 c 1.83608,0 3.289063,1.4529829 3.289063,3.2890625 V 7.203125 c 0,1.8360796 -1.452983,3.287109 -3.289063,3.287109 H 4.9824219 c -1.8360795,0 -3.2890625,-1.4510295 -3.2890625,-3.287109 V 4.9824219 c 0,-1.8360795 1.452983,-3.2890625 3.2890625,-3.2890625 z"/>
    <path d="M 6.85467,6.0457201 H 28.2651"/>
    <path d="M 6.8554687,5.1992187 A 0.84685498,0.84685498 0 0 0 6.0078125,6.0449219 0.84685498,0.84685498 0 0 0 6.8554687,6.8925781 H 28.265625 A 0.84685498,0.84685498 0 0 0 29.111328,6.0449219 0.84685498,0.84685498 0 0 0 28.265625,5.1992187 Z"/>
</svg>
