<?xml version="1.0" encoding="UTF-8" standalone="no"?>
<svg
   viewBox="0 0 27 23"
   version="1.1"
   xmlns="http://www.w3.org/2000/svg"
   xmlns:svg="http://www.w3.org/2000/svg">
  <path
     d="m 5.5761719,8.7558594 a 0.5,0.5 0 0 0 -0.3710938,0.091797 l -2.5,1.8320317 a 0.5,0.5 0 0 0 -0.1074218,0.699218 0.5,0.5 0 0 0 0.6972656,0.107422 l 2.5,-1.8339842 A 0.5,0.5 0 0 0 5.9023437,8.9550781 0.5,0.5 0 0 0 5.5761719,8.7558594 Z"
     />
  <path
     d="M 13.5,0.5 C 12.058054,0.5 10.630022,0.77241859 9.296875,1.3027344 7.9636936,1.8330369 6.7508401,2.6100399 5.7285156,3.5917969 4.7061783,4.5735561 3.8942697,5.7419662 3.3398438,7.0273437 2.7854281,8.3127219 2.5,9.6914863 2.5,11.083984 a 0.5,0.5 0 0 0 0.5,0.5 0.5,0.5 0 0 0 0.5,-0.5 C 3.5,9.8282251 3.7568892,8.5832344 4.2578125,7.421875 4.7587455,6.260515 5.4941743,5.205332 6.421875,4.3144531 7.3495685,3.423572 8.4513596,2.7155783 9.6660156,2.2324219 10.880627,1.7492587 12.184149,1.5 13.5,1.5 c 1.315851,0 2.619351,0.2492574 3.833984,0.7324219 1.214637,0.4831561 2.316457,1.1911506 3.244141,2.0820312 0.927693,0.8908898 1.663221,1.9460986 2.164062,3.1074219 a 0.5,0.5 0 0 0 0.65625,0.2617187 0.5,0.5 0 0 0 0.261719,-0.65625 C 23.105799,5.7419295 22.293789,4.5735453 21.271484,3.5917969 20.24917,2.6100394 19.036286,1.8330372 17.703125,1.3027344 16.369961,0.77241989 14.941946,0.5 13.5,0.5 Z"
     />
  <path
     d="m 0.97851563,8.75 a 0.5,0.5 0 0 0 -0.34765626,0.1621094 0.5,0.5 0 0 0 0.03125,0.7070312 L 2.6621094,11.451172 a 0.5,0.5 0 0 0 0.7070312,-0.0293 0.5,0.5 0 0 0 -0.03125,-0.707031 l -2,-1.8339846 A 0.5,0.5 0 0 0 0.97851563,8.75 Z"
     />
  <path
     d="m 24.279297,11.505859 a 0.5,0.5 0 0 0 -0.371094,0.08984 l -2.5,1.833985 a 0.5,0.5 0 0 0 -0.107422,0.699218 0.5,0.5 0 0 0 0.697266,0.107422 l 2.5,-1.833984 a 0.5,0.5 0 0 0 0.107422,-0.699219 0.5,0.5 0 0 0 -0.326172,-0.197266 z"
     />
  <path
     d="m 24.203125,11.5 a 0.5,0.5 0 0 0 -0.5,0.5 c 0,1.255725 -0.256948,2.49875 -0.757813,3.660156 -0.500952,1.16139 -1.236269,2.218405 -2.164062,3.109375 -0.92768,0.890858 -2.029479,1.598799 -3.244141,2.082031 -1.214638,0.483129 -2.518131,0.730469 -3.833984,0.730469 -1.315853,0 -2.619282,-0.247334 -3.8339844,-0.730469 C 8.6544595,20.368329 7.5527012,19.660392 6.625,18.769531 5.6972838,17.878552 4.9618673,16.821537 4.4609375,15.660156 a 0.5,0.5 0 0 0 -0.65625,-0.261718 0.5,0.5 0 0 0 -0.2617187,0.658203 c 0.5544291,1.285416 1.3663699,2.451774 2.3886718,3.433593 1.0223368,0.981738 2.2352031,1.758697 3.5683594,2.289063 1.333195,0.530264 2.761181,0.802734 4.203125,0.802734 1.441944,0 2.869966,-0.272463 4.203125,-0.802734 1.333136,-0.530366 2.546041,-1.307323 3.568359,-2.289063 1.022405,-0.981827 1.834226,-2.148186 2.388672,-3.433593 C 24.417615,14.771249 24.703125,13.392472 24.703125,12 a 0.5,0.5 0 0 0 -0.5,-0.5 z"
     />
  <path
     d="m 24.541016,11.630859 a 0.5,0.5 0 0 0 -0.707032,0.03125 0.5,0.5 0 0 0 0.03125,0.707032 l 2,1.832031 a 0.5,0.5 0 0 0 0.707032,-0.03125 0.5,0.5 0 0 0 -0.03125,-0.705078 z"
     />
</svg>
