<svg
   
   viewBox="0 0 37 37"
   
   xmlns="http://www.w3.org/2000/svg"
   >
  <path
     
     d="M 18.5,0 C 8.3005093,0 0,8.3005093 0,18.5 0,28.699491 8.3005093,37 18.5,37 28.699491,37 37,28.699491 37,18.5 37,8.3005093 28.699491,0 18.5,0 Z m 0,3 C 27.078172,3 34,9.921828 34,18.5 34,27.078172 27.078172,34 18.5,34 9.921828,34 3,27.078172 3,18.5 3,9.921828 9.921828,3 18.5,3 Z"
      />
  <path
     
     d="m 19,11 c -4.400507,0 -8,3.599493 -8,8 0,4.400507 3.599493,8 8,8 4.400507,0 8,-3.599493 8,-8 0,-4.400507 -3.599493,-8 -8,-8 z m 0,3 c 2.779188,0 5,2.220812 5,5 0,2.779188 -2.220812,5 -5,5 -2.779188,0 -5,-2.220812 -5,-5 0,-2.779188 2.220812,-5 5,-5 z"
      />
  <path
     
     
     d="m 27,13 a 4,4 0 0 1 -4,4 4,4 0 0 1 -4,-4 4,4 0 0 1 4,-4 4,4 0 0 1 4,4 z" />
  <path
     
     
     d="m 17,25 a 3,3 0 0 1 -3,3 3,3 0 0 1 -3,-3 3,3 0 0 1 3,-3 3,3 0 0 1 3,3 z" />
</svg>
