<?xml version="1.0" encoding="UTF-8" standalone="no"?>
<svg
   viewBox="0 0 29 30"
   version="1.1"
   xmlns="http://www.w3.org/2000/svg"
   xmlns:svg="http://www.w3.org/2000/svg">
  <path
     d="M 14.388672,0.99414063 C 6.4467177,0.99414055 3.4150375e-7,7.4408584 0,15.382813 c 0,7.941954 6.4467175,14.390625 14.388672,14.390624 7.941954,0 14.390625,-6.448671 14.390625,-14.390624 0,-7.9419542 -6.448671,-14.38867181 -14.390625,-14.38867237 z m 0,0.87304687 c 7.47064,5e-7 13.517578,6.0449849 13.517578,13.5156255 0,7.47064 -6.046938,13.517577 -13.517578,13.517578 -7.4706409,0 -13.51757825,-6.046938 -13.51757825,-13.517578 C 0.87109407,7.9121719 6.9180313,1.8671874 14.388672,1.8671875 Z"/>
  <path
     d="m 14.390625,7.0996094 a 0.43604651,0.43604651 0 0 0 -0.4375,0.4355468 V 19.744141 a 0.43604651,0.43604651 0 0 0 0.4375,0.435546 0.43604651,0.43604651 0 0 0 0.435547,-0.435546 V 7.5351562 A 0.43604651,0.43604651 0 0 0 14.390625,7.0996094 Z"/>
  <path
     d="m 14.390625,7.0996094 a 0.43604651,0.43604651 0 0 0 -0.4375,0.4355468 V 19.744141 a 0.43604651,0.43604651 0 0 0 0.4375,0.435546 0.43604651,0.43604651 0 0 0 0.435547,-0.435546 V 7.5351562 A 0.43604651,0.43604651 0 0 0 14.390625,7.0996094 Z"/>
  <path
     d="m 14.390625,7.0996094 a 0.43604651,0.43604651 0 0 0 -0.4375,0.4355468 V 19.744141 a 0.43604651,0.43604651 0 0 0 0.4375,0.435546 0.43604651,0.43604651 0 0 0 0.435547,-0.435546 V 7.5351562 A 0.43604651,0.43604651 0 0 0 14.390625,7.0996094 Z"/>
  <path
     d="m 14.390625,7.0996094 a 0.43604651,0.43604651 0 0 0 -0.4375,0.4355468 V 19.744141 a 0.43604651,0.43604651 0 0 0 0.4375,0.435546 0.43604651,0.43604651 0 0 0 0.435547,-0.435546 V 7.5351562 A 0.43604651,0.43604651 0 0 0 14.390625,7.0996094 Z"/>
  <path
     d="m 14.390625,21.923828 a 0.43604651,0.43604651 0 0 0 -0.4375,0.4375 v 0.871094 a 0.43604651,0.43604651 0 0 0 0.4375,0.435547 0.43604651,0.43604651 0 0 0 0.435547,-0.435547 v -0.871094 a 0.43604651,0.43604651 0 0 0 -0.435547,-0.4375 z"/>
  <path
     d="m 14.390625,21.923828 a 0.43604651,0.43604651 0 0 0 -0.4375,0.4375 v 0.871094 a 0.43604651,0.43604651 0 0 0 0.4375,0.435547 0.43604651,0.43604651 0 0 0 0.435547,-0.435547 v -0.871094 a 0.43604651,0.43604651 0 0 0 -0.435547,-0.4375 z"/>
  <path
     d="m 14.390625,21.923828 a 0.43604651,0.43604651 0 0 0 -0.4375,0.4375 v 0.871094 a 0.43604651,0.43604651 0 0 0 0.4375,0.435547 0.43604651,0.43604651 0 0 0 0.435547,-0.435547 v -0.871094 a 0.43604651,0.43604651 0 0 0 -0.435547,-0.4375 z"/>
  <path
     d="m 14.390625,21.923828 a 0.43604651,0.43604651 0 0 0 -0.4375,0.4375 v 0.871094 a 0.43604651,0.43604651 0 0 0 0.4375,0.435547 0.43604651,0.43604651 0 0 0 0.435547,-0.435547 v -0.871094 a 0.43604651,0.43604651 0 0 0 -0.435547,-0.4375 z"/>
</svg>
