<svg viewBox="0 0 30 30" version="1.1" xmlns="http://www.w3.org/2000/svg"
   xmlns:svg="http://www.w3.org/2000/svg">
    <path
       fill="none"
       style="fill: none; stroke-width:2.73454;-inkscape-stroke:none"
       d="M 28.6327,15 A 13.6327,13.6327 0 0 1 15,28.6327 13.6327,13.6327 0 0 1 1.3673,15 13.6327,13.6327 0 0 1 15,1.3673 13.6327,13.6327 0 0 1 28.6327,15 Z"
       />
    <path
       d="M 15,0 C 6.7319484,0 0,6.7319484 0,15 0,23.268052 6.7319484,30 15,30 23.268052,30 30,23.268052 30,15 30,6.7319484 23.268052,0 15,0 Z m 0,2.734375 C 21.790198,2.734375 27.265625,8.209802 27.265625,15 27.265625,21.790198 21.790198,27.265625 15,27.265625 8.209802,27.265625 2.734375,21.790198 2.734375,15 2.734375,8.209802 8.209802,2.734375 15,2.734375 Z"
       />
  <path
     transform="matrix(1 0 0 -1 14 17)"
     d="M 1.5,0 C 2.331,0 3,0.669 3,1.5 v 7 C 3,9.331 2.331,10 1.5,10 0.669,10 0,9.331 0,8.5 v -7 C 0,0.669 0.669,0 1.5,0 Z" />
  <path
     transform="matrix(1 0 0 -1 14 24)"
     d="M 1.5,0 C 2.331,0 3,0.669 3,1.5 3,2.331 2.331,3 1.5,3 0.669,3 0,2.331 0,1.5 0,0.669 0.669,0 1.5,0 Z" />
</svg>
