<svg width="33" height="33" viewBox="0 0 33 33" fill="none" xmlns="http://www.w3.org/2000/svg">
<circle cx="16.5" cy="16.5" r="16" stroke="#139B6A"/>
<path d="M24.6067 11.1971C24.5013 11.0729 24.3574 11.002 24.2067 11C24.056 10.9981 23.9107 11.0652 23.8029 11.1866L14.9279 21.4168L10.9634 16.8488C10.8562 16.7294 10.7126 16.6634 10.5635 16.6649C10.4145 16.6664 10.2719 16.7353 10.1665 16.8568C10.0611 16.9782 10.0013 17.1426 10 17.3144C9.99873 17.4862 10.056 17.6517 10.1596 17.7752L14.5254 22.8071C14.5781 22.8682 14.6407 22.9167 14.7097 22.9498C14.7786 22.983 14.8526 23 14.9274 23C15.0021 23 15.0761 22.983 15.145 22.9498C15.214 22.9167 15.2766 22.8682 15.3293 22.8071L24.6067 12.1144C24.7109 11.9919 24.7692 11.8273 24.7692 11.6558C24.7692 11.4843 24.7109 11.3196 24.6067 11.1971Z" fill="#139B6A"/>
</svg>
