<svg viewBox="0 0 32 32" xmlns="http://www.w3.org/2000/svg">
<path  d="M16.443 0c8.522 0 15.431 6.909 15.431 15.431s-6.909 15.431-15.431 15.431c-8.522 0-15.431-6.909-15.431-15.431s6.909-15.431 15.431-15.431z"></path>
<path fill="#2f2d2e" style="fill: var(--color2, #2f2d2e)" d="M18.099 15.283l-2.5-1.174c-0.101-0.058-0.192-0.062-0.272-0.011s-0.12 0.141-0.12 0.272v2.196c0 0.116 0.040 0.199 0.12 0.25s0.17 0.047 0.272-0.011l2.5-1.152c0.116-0.058 0.174-0.123 0.174-0.196s-0.058-0.13-0.174-0.174zM16.317 19.804c-2.739 0-4.351-0.243-4.837-0.728s-0.728-1.692-0.728-3.619c0-1.928 0.243-3.13 0.728-3.609s2.098-0.717 4.837-0.717c2.739 0 4.351 0.239 4.837 0.717s0.728 1.681 0.728 3.609c0 1.927-0.243 3.134-0.728 3.619s-2.098 0.728-4.837 0.728z"></path>
</svg>
